<?xml version="1.0" encoding="UTF-8"?>
<svg id="Layer_2" data-name="Layer 2" xmlns="http://www.w3.org/2000/svg" xmlns:xlink="http://www.w3.org/1999/xlink" viewBox="0 0 430.62 221.94">
  <defs>
    <style>
      .cls-1 {
        fill: url(#linear-gradient-2);
      }

      .cls-2 {
        fill: #da1f26;
      }

      .cls-3 {
        fill: #381a3f;
      }

      .cls-4 {
        fill: #fff;
      }

      .cls-5 {
        fill: #090909;
      }

      .cls-6 {
        fill: #5e0b0c;
      }

      .cls-7 {
        fill: url(#Untitled_Gradient_3);
      }

      .cls-8 {
        fill: url(#Untitled_Gradient_3-3);
      }

      .cls-9 {
        fill: #36160e;
      }

      .cls-10 {
        fill: #fecf0a;
      }

      .cls-11 {
        fill: #7ab2a6;
      }

      .cls-12 {
        fill: #374250;
      }

      .cls-13 {
        fill: #45655f;
      }

      .cls-14 {
        fill: #670f0f;
      }

      .cls-15 {
        fill: #6e7988;
      }

      .cls-16 {
        fill: #5b857d;
      }

      .cls-17 {
        fill: #6a6f7c;
      }

      .cls-18 {
        fill: #252c64;
      }

      .cls-19 {
        fill: #2f499f;
      }

      .cls-20 {
        fill: #401246;
      }

      .cls-21 {
        fill: #a03522;
      }

      .cls-22 {
        fill: #3e3940;
      }

      .cls-23 {
        fill: #737641;
      }

      .cls-24 {
        fill: #91191c;
      }

      .cls-25 {
        fill: #1b2a29;
      }

      .cls-26 {
        fill: #f37575;
      }

      .cls-27 {
        fill: #6e2011;
      }

      .cls-28 {
        fill: url(#Untitled_Gradient_3-4);
      }

      .cls-29 {
        fill: #163e56;
      }

      .cls-30 {
        fill: #2f2d36;
      }

      .cls-31 {
        fill: #8eaba5;
      }

      .cls-32 {
        fill: #2f4440;
      }

      .cls-33 {
        fill: #5a5664;
      }

      .cls-34 {
        fill: #a84526;
      }

      .cls-35 {
        fill: #9e1c20;
      }

      .cls-36 {
        fill: #221310;
        opacity: .5;
      }

      .cls-37 {
        fill: #605d92;
        opacity: .47;
      }

      .cls-38 {
        fill: #563a19;
      }

      .cls-39 {
        fill: #6b3d17;
      }

      .cls-40 {
        fill: #ced4de;
      }

      .cls-41 {
        fill: #d87527;
      }

      .cls-42 {
        fill: #e9ac6a;
      }

      .cls-43 {
        fill: #495769;
      }

      .cls-44 {
        fill: url(#linear-gradient-5);
      }

      .cls-45 {
        fill: #bee3dc;
      }

      .cls-46 {
        fill: #272e73;
      }

      .cls-47 {
        fill: #f2edb4;
      }

      .cls-48 {
        fill: #252238;
      }

      .cls-49 {
        fill: #ee4c23;
      }

      .cls-50 {
        fill: #505524;
      }

      .cls-51 {
        fill: #3d4019;
      }

      .cls-52 {
        fill: #755736;
      }

      .cls-53 {
        fill: #191a0e;
      }

      .cls-54 {
        fill: #e45556;
      }

      .cls-55 {
        fill: #253c97;
      }

      .cls-56 {
        fill: url(#linear-gradient-3);
      }

      .cls-57 {
        fill: #626f81;
      }

      .cls-58 {
        fill: url(#linear-gradient);
      }

      .cls-59 {
        fill: #476578;
      }

      .cls-60 {
        fill: #451211;
      }

      .cls-61 {
        fill: #b55c41;
      }

      .cls-62 {
        fill: url(#Untitled_Gradient_3-2);
      }

      .cls-63 {
        fill: #653870;
      }

      .cls-64 {
        fill: #0c2747;
      }

      .cls-65 {
        fill: #f99d1c;
      }

      .cls-66 {
        fill: #f15f5c;
      }

      .cls-67 {
        fill: url(#linear-gradient-4);
      }

      .cls-68 {
        fill: #010101;
      }

      .cls-69 {
        fill: #1d2056;
      }

      .cls-70 {
        fill: #29233a;
      }

      .cls-71 {
        fill: #833030;
      }
    </style>
    <linearGradient id="Untitled_Gradient_3" data-name="Untitled Gradient 3" x1="283.29" y1="147.26" x2="324.34" y2="147.26" gradientUnits="userSpaceOnUse">
      <stop offset="0" stop-color="#2d4a49"/>
      <stop offset="1" stop-color="#415e5d"/>
    </linearGradient>
    <linearGradient id="linear-gradient" x1="252.43" y1="118.1" x2="324.12" y2="211.66" gradientUnits="userSpaceOnUse">
      <stop offset="0" stop-color="#4c7e7c"/>
      <stop offset="1" stop-color="#d17a66"/>
    </linearGradient>
    <linearGradient id="Untitled_Gradient_3-2" data-name="Untitled Gradient 3" x1="309.13" y1="140.71" x2="339.71" y2="140.71" xlink:href="#Untitled_Gradient_3"/>
    <linearGradient id="Untitled_Gradient_3-3" data-name="Untitled Gradient 3" x1="324.13" y1="161.92" x2="379.62" y2="161.92" xlink:href="#Untitled_Gradient_3"/>
    <linearGradient id="linear-gradient-2" x1="356.88" y1="243.98" x2="246.27" y2="167.66" gradientUnits="userSpaceOnUse">
      <stop offset="0" stop-color="#233837"/>
      <stop offset="1" stop-color="#6fa2a0"/>
    </linearGradient>
    <linearGradient id="Untitled_Gradient_3-4" data-name="Untitled Gradient 3" x1="3289.01" y1="-511.47" x2="3373" y2="-511.47" gradientTransform="translate(-1669.09 257.11) rotate(7.88) scale(.6 .69)" xlink:href="#Untitled_Gradient_3"/>
    <linearGradient id="linear-gradient-3" x1="324.74" y1="158.27" x2="368.56" y2="158.27" xlink:href="#linear-gradient-2"/>
    <linearGradient id="linear-gradient-4" x1="347.81" y1="90.09" x2="322.28" y2="201.55" xlink:href="#linear-gradient"/>
    <linearGradient id="linear-gradient-5" x1="324.74" y1="193.01" x2="375.48" y2="193.01" gradientUnits="userSpaceOnUse">
      <stop offset="0" stop-color="#804b40"/>
      <stop offset="1" stop-color="#2d4a49"/>
    </linearGradient>
  </defs>
  <g id="Layer_1-2" data-name="Layer 1">
    <g>
      <g>
        <g>
          <path class="cls-4" d="m76.8,40.43c2.45,0,3.68-.59,3.68-1.78,0-.59.21-.89.62-.89s.62.49.62,1.45-.55,1.71-1.66,2.23c-1.11.51-2.09.77-2.94.77s-1.55-.04-2.11-.12c-5.82-.75-10.8-2.02-14.96-3.8-2.81,4.43-5.32,10.33-7.54,17.69-.83,2.65-2.01,5.52-3.53,8.61-1.52,3.09-3.17,5.63-4.93,7.63-1.76,2-3.79,3.63-6.08,4.9-4.51,2.45-9.83,3.68-15.96,3.68-4.99,0-9.65-1.23-14.01-3.68-4.27-2.41-6.77-6.13-7.48-11.16-.08-.67-.12-1.67-.12-3s.39-3.21,1.16-5.67c.77-2.45,2.23-4.31,4.36-5.58.87-.51,1.52-.77,1.96-.77.71,0,1.03.34.95,1.01-.16.2-.56.52-1.22.98-.65.45-1.28.93-1.87,1.42-.59.49-1.19,1.26-1.78,2.28-1.03,1.74-1.54,3.7-1.54,5.88,0,4.99,1.7,8.82,5.1,11.51,1.82,1.5,3.86,2.65,6.11,3.44,2.25.79,4.51,1.19,6.77,1.19h.3c8.19-.2,14.92-3.17,20.18-8.9,3.32-3.6,7.87-11.73,13.65-24.39,1.98-4.35,3.24-6.9,3.8-7.66-7-2.22-13.29-3.32-18.87-3.32s-10.11,1.68-13.59,5.04c-2.81,2.69-4.21,5.5-4.21,8.43,0,3.2,1.4,5.24,4.21,6.11.99.28,1.89.42,2.7.42s1.74-.15,2.79-.44c1.05-.3,2.06-.91,3.03-1.84.97-.93,1.7-1.85,2.2-2.76s.7-1.6.62-2.08v-.12c.32-.28.59-.37.83-.27.24.1.36.35.36.74-.4,3.09-1.96,5.4-4.69,6.94-1.66.99-3.21,1.48-4.63,1.48s-2.69-.2-3.8-.59c-3.24-1.15-5.3-3.34-6.17-6.59-.28-1.03-.42-2.04-.42-3.03,0-2.37.73-4.69,2.2-6.94,2.61-4.04,6.71-6.47,12.28-7.3,1.27-.2,2.47-.3,3.62-.3s2.48.06,4.01.18c1.52.12,3.54.51,6.05,1.19,2.51.67,5.08,1.45,7.72,2.34,2.63.89,4.2,1.41,4.72,1.57,1.94-2.37,3.38-3.58,4.33-3.62.2-.08.47-.12.8-.12s.6.28.8.83c.2.55.06.91-.41,1.07-.2.04-.46.02-.77-.06-.24-.16-.72.09-1.45.74-.73.65-1.28,1.2-1.63,1.63,3.72,1.19,6.98,2.05,9.79,2.58,2.81.53,4.83.8,6.05.8Z"/>
          <path class="cls-4" d="m22.02,81.21c-5.03,0-9.82-1.26-14.21-3.73-4.37-2.47-6.96-6.32-7.69-11.46-.08-.7-.12-1.7-.12-3.06s.4-3.31,1.18-5.79c.8-2.54,2.33-4.5,4.55-5.81,1.84-1.09,2.77-.98,3.27-.43.23.26.32.62.27,1.07v.12s-.09.09-.09.09c-.12.15-.38.42-1.3,1.06-.64.44-1.26.92-1.84,1.4-.55.46-1.12,1.19-1.69,2.17-.99,1.67-1.49,3.58-1.49,5.67,0,4.83,1.66,8.59,4.95,11.19,1.78,1.47,3.79,2.6,5.99,3.38,2.2.77,4.43,1.16,6.63,1.16h.3c8.02-.19,14.71-3.14,19.87-8.77,3.28-3.55,7.85-11.72,13.58-24.28,1.7-3.74,2.86-6.13,3.53-7.25-6.73-2.08-12.86-3.14-18.23-3.14s-9.92,1.66-13.3,4.93c-2.71,2.6-4.09,5.33-4.09,8.13,0,3.03,1.28,4.9,3.92,5.71.94.26,1.81.4,2.58.4s1.67-.14,2.68-.43c.98-.28,1.94-.86,2.85-1.74.93-.9,1.65-1.79,2.12-2.66.56-1.02.62-1.55.58-1.81v-.38s.14-.12.14-.12c.55-.48.99-.45,1.26-.34.28.12.61.41.61,1.13-.42,3.26-2.06,5.7-4.9,7.31-1.71,1.02-3.34,1.54-4.83,1.54s-2.79-.21-3.94-.62c-3.37-1.19-5.53-3.5-6.44-6.87-.28-1.06-.43-2.11-.43-3.14,0-2.45.76-4.86,2.26-7.17,2.67-4.12,6.9-6.64,12.57-7.48,1.28-.2,2.52-.3,3.68-.3s2.51.06,4.04.18c1.54.12,3.6.52,6.13,1.2,2.53.68,5.13,1.47,7.74,2.35,2.3.78,3.76,1.27,4.44,1.49,1.93-2.33,3.33-3.46,4.39-3.55.24-.08.53-.12.89-.12s.87.19,1.19,1.11c.15.41.15.76,0,1.05-.13.26-.36.45-.68.56-.31.06-.63.04-1.01-.05l-.12-.05s-.24.07-.95.7c-.47.42-.86.79-1.17,1.12,3.44,1.08,6.51,1.88,9.13,2.38,2.77.53,4.78.79,5.97.79,2.17,0,3.26-.46,3.26-1.36,0-1.18.73-1.31,1.04-1.31.69,0,1.04.63,1.04,1.87,0,1.14-.64,2.02-1.9,2.6-1.16.54-2.2.81-3.11.81s-1.6-.04-2.17-.12c-5.67-.73-10.62-1.97-14.73-3.69-2.7,4.35-5.16,10.16-7.3,17.29-.83,2.66-2.03,5.57-3.56,8.67-1.53,3.11-3.21,5.7-4.99,7.72-1.78,2.02-3.87,3.7-6.19,4.98-4.55,2.48-9.99,3.73-16.17,3.73Zm-14.12-29.85c-.25,0-.75.12-1.75.71-2.04,1.21-3.44,3-4.18,5.35-.75,2.4-1.14,4.27-1.14,5.54s.04,2.3.12,2.95c.69,4.86,3.13,8.51,7.27,10.84,4.27,2.41,8.91,3.63,13.8,3.63,6.03,0,11.34-1.22,15.77-3.63,2.24-1.24,4.25-2.85,5.97-4.81,1.73-1.96,3.36-4.5,4.87-7.54,1.51-3.06,2.69-5.93,3.51-8.55,2.21-7.36,4.77-13.34,7.58-17.78l.19-.3.33.14c4.1,1.76,9.1,3.03,14.85,3.77.53.08,1.22.12,2.05.12.79,0,1.72-.25,2.76-.73.96-.44,1.42-1.05,1.42-1.85,0-.9-.19-1.04-.19-1.04-.08,0-.22,0-.22.47,0,1.46-1.38,2.2-4.1,2.2-1.26,0-3.27-.26-6.13-.81-2.81-.53-6.12-1.41-9.84-2.59l-.58-.19.39-.47c.37-.45.94-1.02,1.68-1.68.63-.56,1.35-1.09,1.88-.82.28.07.45.06.54.04.02-.01.12-.05.15-.12.04-.07.02-.22-.04-.4-.12-.35-.28-.55-.41-.55-.35,0-.55.05-.65.09l-.14.03c-.46.02-1.6.5-4.03,3.47l-.18.22-.27-.08c-.51-.16-2.06-.67-4.73-1.58-2.59-.88-5.18-1.66-7.69-2.34-2.47-.66-4.49-1.06-5.98-1.17-1.51-.12-2.84-.18-3.97-.18s-2.32.1-3.56.29c-5.43.81-9.47,3.2-12,7.11-1.41,2.18-2.13,4.44-2.13,6.72,0,.95.14,1.93.4,2.92.84,3.13,2.77,5.19,5.91,6.3,1.06.38,2.29.57,3.66.57s2.83-.48,4.42-1.43c2.64-1.49,4.11-3.66,4.49-6.64,0-.02-.01-.27-.1-.31-.05-.02-.14,0-.24.08.06.51-.17,1.25-.68,2.2-.51.94-1.28,1.91-2.27,2.86-1.01.97-2.09,1.63-3.2,1.94-1.08.31-2.06.46-2.9.46s-1.79-.14-2.81-.43c-3-.93-4.52-3.12-4.52-6.51,0-3.03,1.46-5.97,4.34-8.73,3.55-3.42,8.22-5.16,13.88-5.16s11.99,1.12,19,3.34l.56.18-.35.47c-.53.72-1.8,3.28-3.75,7.58-5.77,12.64-10.39,20.89-13.72,24.5-5.32,5.8-12.21,8.84-20.47,9.04h-.31c-2.29,0-4.62-.41-6.9-1.21-2.29-.8-4.39-1.99-6.24-3.51-3.48-2.76-5.26-6.74-5.26-11.84,0-2.24.54-4.29,1.6-6.09.61-1.06,1.24-1.87,1.87-2.39.6-.5,1.24-.99,1.9-1.45.63-.44.92-.68,1.05-.81,0-.11-.01-.23-.07-.29-.07-.08-.24-.13-.47-.13Z"/>
        </g>
        <g>
          <path class="cls-4" d="m64.45,51.41c0,1.78-1.13,3.46-3.38,5.05.79.04,1.85.06,3.17.06s3-.1,5.01-.3c.08.12.12.44.12.95s-.24,1.28-.71,2.28c-.47,1.01-.9,1.88-1.28,2.61-.38.73-.73,1.42-1.07,2.08-.34.65-.71,1.45-1.13,2.4-.42.95-.76,1.82-1.04,2.61-.99,3.01-.83,4.51.48,4.51,1.66,0,4.11-3.3,7.36-9.91.28-.51.5-.71.68-.59s.27.27.27.44-.26.79-.77,1.84c-.51,1.05-1.07,2.13-1.66,3.23-.59,1.11-1.52,2.39-2.79,3.86-1.5,1.82-2.95,2.73-4.33,2.73-1.54,0-2.61-.93-3.21-2.79-.12-.36-.18-.89-.18-1.6s.23-1.66.68-2.85c.45-1.19,1.18-2.63,2.17-4.33.99-1.7,1.54-2.7,1.66-3s.18-.58.18-.86c0-1.23-1.58-1.88-4.75-1.96l-.71,1.9c-2.49,6.53-4.89,10.9-7.18,13.12-.4.36-.59.24-.59-.36,0-.12.04-.26.12-.42,2.22-2.93,4.13-6.39,5.76-10.39,1.62-4,2.75-7.79,3.38-11.39.24-1.23.79-1.84,1.66-1.84s1.5.55,1.9,1.66c.12.36.18.77.18,1.25Z"/>
          <path class="cls-4" d="m63.39,75.69c-1.74,0-2.95-1.04-3.6-3.08-.13-.4-.2-.97-.2-1.73s.23-1.75.71-3c.46-1.2,1.2-2.68,2.19-4.39,1.21-2.09,1.56-2.75,1.64-2.94.1-.25.15-.48.15-.71,0-1.13-2.13-1.46-4.05-1.53l-.61,1.62c-2.5,6.56-4.95,11.02-7.28,13.27-.33.3-.63.38-.89.27-.41-.18-.41-.72-.41-.92,0-.18.05-.38.16-.6,2.22-2.95,4.14-6.41,5.74-10.36,1.6-3.95,2.73-7.75,3.36-11.31.35-1.81,1.32-2.18,2.07-2.18s1.72.34,2.29,1.94c.14.41.2.87.2,1.39,0,1.64-.88,3.21-2.62,4.67.58.01,1.25.02,2,.02,1.31,0,2.98-.1,4.97-.3l.25-.02.14.21c.1.15.19.39.19,1.18,0,.58-.25,1.39-.75,2.46-.48,1.01-.9,1.89-1.28,2.62l-1.07,2.08c-.33.64-.71,1.44-1.12,2.38-.41.94-.76,1.81-1.03,2.58-.85,2.6-.64,3.46-.43,3.74.07.09.19.21.51.21.83,0,2.85-1.26,6.99-9.68.28-.52.52-.77.8-.84.17-.04.34-.01.49.08.37.25.45.57.45.79,0,.18-.06.49-.81,2.02-.53,1.07-1.09,2.17-1.67,3.25-.61,1.13-1.56,2.45-2.84,3.93-1.57,1.9-3.14,2.87-4.65,2.87Zm-3.73-18.23h.3c1.27.04,5.15.14,5.15,2.38,0,.33-.07.67-.21,1.02-.05.12-.19.48-1.69,3.05-.98,1.68-1.69,3.12-2.14,4.27-.43,1.13-.65,2.04-.65,2.7s.05,1.16.16,1.47c.54,1.69,1.46,2.5,2.81,2.5,1.25,0,2.6-.87,4.01-2.58,1.25-1.44,2.17-2.71,2.74-3.79.58-1.07,1.13-2.16,1.65-3.22.44-.9.62-1.32.68-1.52-.03.06-.08.12-.12.21-4.46,9.08-6.55,10.13-7.73,10.13-.65,0-1-.3-1.19-.56-.55-.75-.44-2.18.32-4.5.28-.8.63-1.69,1.05-2.65.42-.95.8-1.77,1.14-2.43l1.07-2.08c.37-.73.8-1.59,1.27-2.6.56-1.18.67-1.8.67-2.11,0-.23,0-.39-.02-.5-3.83.36-6.36.28-7.89.2l-1.21-.06.99-.7c2.13-1.49,3.21-3.07,3.21-4.7,0-.43-.05-.8-.16-1.11-.49-1.38-1.25-1.38-1.5-1.38-.41,0-.99.16-1.25,1.5-.64,3.61-1.78,7.47-3.41,11.47-1.63,4.01-3.58,7.54-5.81,10.48-.01.04-.02.07-.03.1,2.2-2.19,4.54-6.51,6.96-12.85l.82-2.17Z"/>
        </g>
        <g>
          <path class="cls-4" d="m74.54,66.07c-.55,1.35-.83,2.85-.83,4.51,0,1.11.25,1.99.74,2.64.49.65,1.2.98,2.11.98,3.6,0,6.86-3.38,9.79-10.15.28-.63.61-.91,1.01-.83.16.04.24.14.24.3s-.44,1.2-1.34,3.12c-.89,1.92-1.79,3.47-2.7,4.66-2.02,2.77-4.51,4.16-7.48,4.16-1.58,0-2.93-.51-4.04-1.54-1.11-1.03-1.66-2.43-1.66-4.21s.42-3.67,1.28-5.67c.85-2,2.01-3.86,3.47-5.58,1.46-1.72,3.15-2.98,5.05-3.77.91-.4,1.78-.59,2.61-.59s1.6.24,2.32.71c.67.55,1.01,1.17,1.01,1.84,0,2.37-1.42,4.65-4.27,6.83-.87.67-2.1,1.28-3.68,1.81-1.58.53-2.79.8-3.62.8Zm9.97-9.5c0-.79-.32-1.19-.95-1.19-1.11,0-2.79,1.36-5.05,4.1-1.35,1.66-2.53,3.52-3.56,5.58.67,0,1.65-.24,2.94-.71,1.29-.47,2.4-1.11,3.35-1.9,2.18-1.86,3.26-3.82,3.26-5.88Z"/>
          <path class="cls-4" d="m76.09,75.87c-1.68,0-3.14-.56-4.32-1.65-1.19-1.11-1.79-2.63-1.79-4.52s.44-3.79,1.31-5.83c.86-2.03,2.05-3.94,3.54-5.69,1.5-1.76,3.25-3.07,5.2-3.88,1.93-.84,3.78-.87,5.32.16.8.66,1.19,1.39,1.19,2.19,0,2.5-1.49,4.91-4.44,7.16-.9.7-2.18,1.33-3.8,1.87-1.47.5-2.61.76-3.47.81-.47,1.23-.7,2.6-.7,4.1,0,1.01.22,1.81.66,2.39.41.55,1,.81,1.78.81,3.4,0,6.57-3.33,9.41-9.9.45-1.04,1.06-1.16,1.47-1.07.36.09.57.36.57.71,0,.15,0,.33-1.37,3.29-.9,1.93-1.82,3.53-2.75,4.74-2.08,2.86-4.71,4.32-7.81,4.32Zm6.71-21.37c-.77,0-1.59.19-2.45.56-1.84.76-3.48,1.99-4.89,3.66-1.43,1.68-2.57,3.52-3.41,5.47-.82,1.94-1.24,3.79-1.24,5.5s.5,2.95,1.53,3.91c1.04.96,2.26,1.43,3.75,1.43,2.85,0,5.19-1.3,7.14-3.98.89-1.17,1.79-2.71,2.66-4.59.83-1.78,1.13-2.51,1.24-2.81-.15.08-.29.34-.39.57-2.99,6.9-6.41,10.4-10.17,10.4-1.04,0-1.86-.38-2.44-1.14-.55-.72-.83-1.7-.83-2.89,0-1.71.29-3.28.86-4.67l.11-.26h.28c.78,0,1.95-.26,3.49-.78,1.53-.52,2.73-1.1,3.56-1.74,2.73-2.08,4.11-4.27,4.11-6.5,0-.55-.28-1.04-.86-1.52-.61-.41-1.3-.62-2.05-.62Zm-7.83,10.98h-.67l.3-.6c1.04-2.08,2.25-3.98,3.61-5.65,2.4-2.9,4.1-4.25,5.37-4.25.41,0,1.37.16,1.37,1.6,0,2.18-1.15,4.26-3.41,6.19-.99.82-2.15,1.48-3.48,1.97-1.34.5-2.35.74-3.08.74Zm8.61-9.67c-.67,0-2.03.68-4.72,3.94-1.17,1.44-2.23,3.06-3.16,4.82.55-.1,1.25-.31,2.07-.61,1.24-.46,2.32-1.07,3.23-1.83,2.07-1.77,3.11-3.64,3.11-5.56,0-.77-.32-.77-.53-.77Z"/>
        </g>
        <g>
          <path class="cls-4" d="m101.78,59.19c0-1.07-.53-1.6-1.6-1.6-1.58,0-3.41.9-5.49,2.7-2.08,1.8-3.81,3.69-5.19,5.67-.59,1.15-1.08,2.59-1.45,4.33-.38,1.74-.56,2.95-.56,3.62s.12,1.11.36,1.31h-3.74c-.59,0-.74-.52-.44-1.57.3-1.05.7-2.19,1.22-3.41.51-1.23,1.16-2.64,1.93-4.24.77-1.6,1.34-2.82,1.69-3.65-3.24,6.13-5.34,9.65-6.29,10.56-.4.36-.59.24-.59-.36,0-.12.04-.26.12-.42,1.39-1.82,4.14-6.77,8.28-14.84,4.13-8.07,7.03-13.35,8.69-15.85,1.34-1.94,2.65-2.91,3.92-2.91h.36s.39.06,1.04.18c.65.12,1.14.14,1.45.06-1.46,1.11-3.48,3.65-6.05,7.63-2.57,3.98-4.61,7.46-6.11,10.45-1.5,2.99-2.51,5.25-3.03,6.8,3.6-4.47,6.82-7.24,9.67-8.31,1.34-.43,2.41-.65,3.21-.65,1.74,0,2.61.73,2.61,2.2,0,.48-.1,1.01-.3,1.6-.55,1.5-1.69,2.86-3.41,4.07-1.72,1.21-3.61,1.91-5.67,2.11-.48,1.11-.71,2.13-.71,3.06s.1,1.77.3,2.52c.48,1.9,1.36,3.07,2.67,3.5.28.08.55.12.83.12,1.11,0,2.41-.69,3.92-2.08,1.23-1.34,2.83-4.06,4.81-8.13.28-.51.49-.68.65-.5.16.18.24.35.24.5s-.3.93-.89,2.31c-.59,1.39-1.42,2.91-2.49,4.57-2.26,3.4-4.75,5.1-7.48,5.1-1.66,0-2.95-.47-3.86-1.42-1.31-1.34-1.96-3.1-1.96-5.28,0-1.11.3-2.23.89-3.38.59-1.15,1.29-1.76,2.08-1.84h.36c1.38,0,2.74-.53,4.07-1.6,1.33-1.07,1.99-2.04,1.99-2.91Z"/>
          <path class="cls-4" d="m98.22,76.04c-1.77,0-3.17-.52-4.16-1.55-1.37-1.42-2.07-3.29-2.07-5.57,0-1.17.31-2.37.94-3.57.66-1.27,1.47-1.97,2.41-2.06h.4c1.28,0,2.56-.51,3.8-1.51,1.22-.98,1.83-1.85,1.83-2.58,0-.84-.34-1.19-1.19-1.19-1.47,0-3.23.87-5.22,2.6-2.04,1.77-3.77,3.65-5.12,5.59-.55,1.06-1.02,2.49-1.39,4.18-.37,1.7-.55,2.89-.55,3.53,0,.77.17.96.21.99l.89.74h-4.89c-.43,0-.67-.2-.79-.36-.27-.36-.29-.91-.05-1.74.23-.8.52-1.66.87-2.56-.71,1.13-1.25,1.87-1.63,2.23-.33.3-.62.38-.89.27-.41-.18-.41-.72-.41-.92,0-.18.05-.38.16-.6,1.4-1.86,4.18-6.83,8.28-14.84,4.12-8.05,7.06-13.39,8.72-15.89,1.45-2.08,2.84-3.09,4.26-3.09h.36c.05,0,.1,0,1.11.18.74.14,1.1.11,1.28.07l1.98-.5-1.63,1.23c-1.42,1.07-3.42,3.6-5.96,7.52-2.55,3.94-4.6,7.44-6.09,10.41-.86,1.7-1.55,3.17-2.09,4.41,3-3.39,5.75-5.57,8.22-6.5,1.42-.46,2.51-.68,3.35-.68,2.5,0,3.03,1.42,3.03,2.61,0,.52-.11,1.1-.32,1.73-.59,1.59-1.79,3.02-3.57,4.27-1.7,1.19-3.59,1.92-5.62,2.15-.39.97-.59,1.86-.59,2.67,0,.89.1,1.71.28,2.42.44,1.77,1.23,2.82,2.4,3.21,1.13.33,2.58-.25,4.33-1.87,1.17-1.28,2.76-3.99,4.71-8.01.29-.53.53-.77.83-.8.19-.02.38.05.51.2.23.26.34.52.34.78,0,.14,0,.32-.92,2.48-.6,1.4-1.45,2.96-2.52,4.63-2.33,3.51-4.96,5.29-7.83,5.29Zm-2.85-11.93c-.6.06-1.19.61-1.71,1.61-.56,1.08-.84,2.16-.84,3.19,0,2.05.62,3.73,1.84,4.99.84.87,2,1.3,3.56,1.3,2.57,0,4.97-1.65,7.13-4.92,1.05-1.63,1.88-3.15,2.46-4.5.63-1.47.8-1.96.84-2.12-.03.04-.06.1-.09.16-2.01,4.13-3.6,6.83-4.87,8.21-2.04,1.88-3.66,2.52-5.17,2.08-1.46-.49-2.45-1.76-2.96-3.8-.2-.77-.31-1.66-.31-2.62s.25-2.07.75-3.22l.1-.23.25-.02c1.98-.19,3.82-.87,5.47-2.03,1.64-1.15,2.74-2.45,3.26-3.87.18-.53.27-1.03.27-1.46,0-.83-.25-1.78-2.19-1.78-.74,0-1.78.21-3.08.63-2.52.95-5.42,3.34-8.62,7.13.9-.99,1.89-1.95,2.96-2.89,2.15-1.86,4.08-2.8,5.76-2.8,1.3,0,2.02.72,2.02,2.02,0,1.01-.7,2.07-2.14,3.23-1.4,1.12-2.85,1.69-4.33,1.69h-.36Zm-7.25-1.98l.75.36c-.36.83-.91,2.03-1.7,3.67-.77,1.6-1.42,3.02-1.92,4.22-.5,1.2-.91,2.33-1.2,3.37-.23.8-.1.99-.09,1.01.02.03.1.03.13.03h3.06c-.06-.25-.09-.54-.09-.89,0-.71.19-1.93.57-3.71.38-1.77.88-3.26,1.49-4.44.08-.12.17-.24.25-.35l-.24.29.73-2.19c.52-1.55,1.54-3.86,3.05-6.85,1.5-2.99,3.57-6.52,6.14-10.48,2.15-3.33,3.9-5.63,5.29-6.98-.13-.02-.27-.04-.42-.07-.58-.11-.92-.17-.99-.17h-.27c-1.18,0-2.38.92-3.63,2.73-1.64,2.46-4.56,7.78-8.67,15.8-4.19,8.17-6.91,13.05-8.32,14.9-.01.03-.02.07-.03.1.96-1.03,3.01-4.5,6.09-10.34Z"/>
        </g>
        <g>
          <path class="cls-4" d="m.54,128.77c0-3.28,1.58-8.78,4.75-16.5h-3.09c-.2,0-.33-.11-.39-.33-.06-.22-.04-.44.06-.65.1-.22.25-.33.44-.33h3.56c1.42-3.13,2.75-5.74,3.98-7.83,1.23-2.1,2.35-3.51,3.38-4.24,1.03-.73,1.77-1.1,2.23-1.1s.78.04.98.12c.91.44,1.36,1.34,1.36,2.7s-.46,3.02-1.36,4.96c-.91,1.94-1.8,3.74-2.67,5.4h2.85c.2,0,.33.11.39.33.06.22.04.44-.06.65-.1.22-.25.33-.44.33h-3.44c-2.18,3.68-4.81,6.94-7.89,9.79l-1.37,6.05c-.12.51-.18,1.02-.18,1.51s.14,1,.41,1.51c.28.51.71.77,1.31.77.67,0,1.42-.24,2.26-.71,1.9-1.42,4-4.41,6.29-8.96.16-.36.35-.57.56-.65.22-.08.35-.03.39.15.04.18-.02.47-.18.86-1.31,2.73-2.33,4.67-3.09,5.82-2.14,3.44-4.41,5.16-6.82,5.16-1.23,0-2.24-.45-3.03-1.36-.79-.91-1.19-2.06-1.19-3.44Zm11.16-16.5h-2.79c-.48,1.11-1.54,3.74-3.21,7.89,2.14-2.22,4.13-4.85,5.99-7.89Zm.77-1.31c2.61-4.67,3.92-7.91,3.92-9.73,0-.79-.14-1.19-.42-1.19-.44,0-1.1.63-1.99,1.9-.89,1.27-2.38,4.27-4.48,9.02h2.97Z"/>
          <path class="cls-4" d="m4.75,134c-1.35,0-2.47-.51-3.34-1.51-.85-.98-1.29-2.23-1.29-3.72,0-3.24,1.53-8.65,4.54-16.08h-2.47c-.39,0-.68-.24-.79-.63-.09-.31-.06-.63.08-.94.23-.5.61-.57.82-.57h3.29c1.38-3.02,2.69-5.59,3.88-7.63,1.27-2.17,2.41-3.6,3.5-4.37,1.13-.8,1.91-1.18,2.47-1.18.51,0,.88.05,1.13.15,1.09.52,1.63,1.56,1.63,3.09,0,1.42-.47,3.15-1.4,5.13-.8,1.7-1.59,3.31-2.36,4.81h2.16c.38,0,.68.24.79.63.09.31.06.63-.08.94-.23.5-.61.57-.82.57h-3.21c-2.14,3.58-4.75,6.8-7.75,9.59l-1.34,5.93c-.11.48-.17.96-.17,1.42,0,.42.12.87.36,1.32.2.38.5.55.94.55.6,0,1.29-.22,2.05-.66,1.79-1.35,3.87-4.32,6.13-8.79.19-.44.46-.74.79-.86.24-.09.45-.08.62.01.11.06.26.19.31.43.06.27,0,.62-.2,1.11-1.32,2.76-2.37,4.73-3.12,5.89-2.2,3.55-4.62,5.35-7.17,5.35Zm-2.43-22.61s-.04.03-.07.08c-.06.13-.07.25-.04.37l3.69.02-.24.57c-3.13,7.63-4.72,13.13-4.72,16.34,0,1.29.35,2.33,1.08,3.17.71.82,1.6,1.22,2.71,1.22,2.25,0,4.43-1.67,6.47-4.97.74-1.13,1.77-3.08,3.06-5.78.02-.06.04-.11.06-.16-.02.04-.05.09-.07.15-2.36,4.67-4.45,7.65-6.42,9.13-.93.54-1.76.8-2.51.8s-1.32-.34-1.67-.99c-.31-.57-.46-1.15-.46-1.71,0-.52.06-1.06.19-1.61l1.39-6.18.1-.09c3.04-2.81,5.67-6.07,7.82-9.7l.12-.2h3.68s.04-.02.07-.08c.06-.13.07-.25.04-.37l-3.52-.02.32-.61c.86-1.65,1.76-3.46,2.66-5.39.88-1.87,1.33-3.48,1.33-4.78,0-1.2-.37-1.96-1.13-2.32-.06-.02-.28-.08-.8-.08-.2,0-.74.13-1.98,1.02-.98.7-2.08,2.08-3.27,4.11-1.21,2.07-2.54,4.7-3.96,7.8l-.11.24h-3.83Zm2.21,10.6l.79-1.98c1.66-4.14,2.73-6.8,3.21-7.9l.11-.25h3.81l-.39.63c-1.87,3.06-3.9,5.74-6.05,7.97l-1.48,1.53Zm4.66-9.3c-.41.98-1.16,2.81-2.23,5.48,1.39-1.63,2.73-3.47,4-5.48h-1.77Zm3.53-1.31h-3.85l.26-.58c2.09-4.74,3.61-7.8,4.52-9.09,1.01-1.44,1.73-2.08,2.33-2.08.83,0,.83,1.21.83,1.6,0,1.91-1.3,5.16-3.97,9.94l-.12.21Zm-2.57-.83h2.08c2.49-4.47,3.75-7.6,3.75-9.32,0-.44-.05-.66-.08-.75-.17.07-.63.38-1.57,1.7-.84,1.19-2.24,4.01-4.18,8.37Z"/>
        </g>
        <g>
          <path class="cls-4" d="m24.69,112.75c2.89,0,4.33,1.82,4.33,5.46,0,1.66-.44,3.44-1.31,5.34-1.11,2.57-2.77,4.91-4.98,7,.51.99,1.44,1.48,2.79,1.48,1.07,0,2.08-.53,3.03-1.6,1.19-1.23,2.04-2.3,2.55-3.23.51-.93.89-1.61,1.13-2.05.24-.43.54-1.06.92-1.87.38-.81.6-1.31.68-1.48.08-.18.22-.27.42-.27.39-.04.59.1.59.42,0,.12-.04.26-.12.41l-.36.83c-.24.55-.42.95-.53,1.19s-.33.66-.62,1.28-.55,1.1-.77,1.45-.51.83-.89,1.42c-.38.59-.71,1.07-1.01,1.42s-.66.75-1.1,1.19c-.44.44-.85.77-1.25,1.01-.99.59-1.92.89-2.79.89-1.62,0-2.89-.51-3.8-1.54-1.82,1.35-3.5,2.02-5.04,2.02-2.89,0-4.33-1.82-4.33-5.46,0-1.66.43-3.44,1.31-5.34,1.19-2.77,2.86-5.12,5.01-7.06,2.16-1.94,4.2-2.91,6.14-2.91Zm.65,1.84c-1.07,0-2.34.71-3.8,2.14-1.46,1.42-2.77,3.36-3.92,5.82-1.39,2.85-2.08,5.18-2.08,7s.69,2.73,2.08,2.73c.99,0,2.1-.53,3.32-1.6-.63-.91-.95-1.88-.95-2.91.08-1.7.77-2.55,2.08-2.55.51,0,.94.18,1.28.53.34.36.5.68.5.98s-.04.6-.12.92c.67-.99,1.44-2.39,2.31-4.21.99-2.02,1.48-4,1.48-5.93s-.73-2.91-2.2-2.91Z"/>
          <path class="cls-4" d="m16.56,133.94c-2.17,0-4.75-1.02-4.75-5.88,0-1.72.45-3.57,1.34-5.51,1.2-2.8,2.92-5.23,5.11-7.2,2.22-2,4.38-3.01,6.42-3.01,2.17,0,4.75,1.02,4.75,5.88,0,1.71-.45,3.57-1.34,5.52-1.08,2.51-2.71,4.83-4.84,6.9.46.67,1.2,1,2.26,1,.95,0,1.84-.48,2.72-1.46,1.17-1.2,2-2.26,2.5-3.16.51-.93.89-1.61,1.13-2.05.23-.42.53-1.02.91-1.84.37-.81.6-1.3.68-1.48.14-.33.43-.51.8-.51.3-.03.57.04.76.21.12.1.25.3.25.62,0,.18-.05.39-.16.6l-.34.81c-.24.57-.42.97-.55,1.21-.12.24-.33.66-.62,1.27-.3.62-.56,1.12-.79,1.49-.22.36-.52.84-.89,1.43-.39.62-.73,1.1-1.04,1.47-.31.37-.68.78-1.12,1.21-.46.46-.9.82-1.33,1.07-1.05.63-2.06.95-3,.95-1.59,0-2.88-.47-3.85-1.41-1.77,1.25-3.45,1.88-4.99,1.88Zm8.13-20.77c-1.82,0-3.8.94-5.86,2.8-2.1,1.89-3.75,4.22-4.91,6.92-.85,1.84-1.27,3.58-1.27,5.18,0,3.39,1.28,5.04,3.92,5.04,1.44,0,3.06-.65,4.8-1.94l.31-.23.25.29c.83.94,1.97,1.4,3.49,1.4.79,0,1.66-.28,2.58-.83.36-.22.76-.54,1.17-.95s.78-.81,1.07-1.16c.28-.34.61-.8.98-1.38.37-.59.67-1.06.89-1.42.21-.35.47-.83.75-1.42.3-.62.51-1.04.63-1.28.12-.23.29-.62.52-1.16l.36-.83c.08-.16.09-.23.09-.25.03,0,0,0-.05,0-.02,0-.05,0-.08,0-.16.2-.38.7-.76,1.51-.39.84-.69,1.46-.93,1.89-.24.44-.61,1.12-1.13,2.05-.53.96-1.41,2.08-2.62,3.32-1.02,1.14-2.14,1.73-3.33,1.73-1.51,0-2.57-.58-3.16-1.71l-.14-.28.23-.22c2.16-2.05,3.81-4.36,4.89-6.87.85-1.84,1.27-3.58,1.27-5.18,0-3.39-1.28-5.04-3.92-5.04Zm-7.06,19.53c-1.14,0-2.49-.55-2.49-3.15,0-1.88.71-4.29,2.12-7.19,1.16-2.48,2.51-4.48,4-5.93,1.56-1.52,2.9-2.25,4.09-2.25s2.61.58,2.61,3.32c0,1.99-.51,4.05-1.53,6.12-.87,1.83-1.66,3.26-2.34,4.26l-1.31,1.93.57-2.27c.07-.28.11-.56.11-.82,0-.18-.14-.42-.39-.69s-.58-.4-.97-.4c-.67,0-1.57.22-1.66,2.16,0,.92.3,1.82.88,2.65l.21.31-.28.25c-1.3,1.13-2.51,1.7-3.6,1.7Zm7.72-17.69c-.95,0-2.13.68-3.51,2.02-1.42,1.38-2.71,3.3-3.83,5.69-1.35,2.78-2.04,5.08-2.04,6.83,0,2.07.95,2.31,1.66,2.31.81,0,1.74-.43,2.77-1.27-.54-.89-.82-1.84-.82-2.83.11-2.46,1.42-2.97,2.49-2.97.63,0,1.16.22,1.58.66.23.25.4.49.5.72.47-.81.98-1.79,1.52-2.93.96-1.95,1.44-3.89,1.44-5.76,0-2.23-1.02-2.49-1.78-2.49Z"/>
        </g>
        <g>
          <path class="cls-4" d="m47.66,128.77c0-3.28,1.58-8.78,4.75-16.5h-3.09c-.2,0-.33-.11-.39-.33-.06-.22-.04-.44.06-.65.1-.22.25-.33.44-.33h3.56c1.42-3.13,2.75-5.74,3.98-7.83,1.23-2.1,2.35-3.51,3.38-4.24,1.03-.73,1.77-1.1,2.23-1.1s.78.04.98.12c.91.44,1.36,1.34,1.36,2.7s-.46,3.02-1.36,4.96c-.91,1.94-1.8,3.74-2.67,5.4h2.85c.2,0,.33.11.39.33.06.22.04.44-.06.65-.1.22-.25.33-.44.33h-3.44c-2.18,3.68-4.81,6.94-7.89,9.79l-1.37,6.05c-.12.51-.18,1.02-.18,1.51s.14,1,.41,1.51c.28.51.71.77,1.31.77.67,0,1.42-.24,2.26-.71,1.9-1.42,4-4.41,6.29-8.96.16-.36.35-.57.56-.65.22-.08.35-.03.39.15.04.18-.02.47-.18.86-1.31,2.73-2.33,4.67-3.09,5.82-2.14,3.44-4.41,5.16-6.82,5.16-1.23,0-2.24-.45-3.03-1.36-.79-.91-1.19-2.06-1.19-3.44Zm11.16-16.5h-2.79c-.48,1.11-1.54,3.74-3.21,7.89,2.14-2.22,4.13-4.85,5.99-7.89Zm.77-1.31c2.61-4.67,3.92-7.91,3.92-9.73,0-.79-.14-1.19-.42-1.19-.44,0-1.1.63-1.99,1.9-.89,1.27-2.38,4.27-4.48,9.02h2.97Z"/>
          <path class="cls-4" d="m51.87,134c-1.35,0-2.47-.51-3.34-1.51-.85-.98-1.29-2.23-1.29-3.72,0-3.24,1.53-8.65,4.54-16.08h-2.47c-.39,0-.68-.24-.79-.63-.09-.31-.06-.63.08-.94.23-.5.61-.57.82-.57h3.29c1.38-3.02,2.69-5.59,3.88-7.63,1.27-2.17,2.41-3.6,3.5-4.37,1.13-.8,1.91-1.18,2.47-1.18.51,0,.88.05,1.13.15,1.09.52,1.63,1.56,1.63,3.09,0,1.42-.47,3.15-1.4,5.13-.8,1.7-1.59,3.31-2.36,4.81h2.16c.38,0,.68.24.79.63.09.31.06.63-.08.94-.23.5-.61.57-.82.57h-3.21c-2.14,3.58-4.75,6.8-7.75,9.59l-1.34,5.93c-.11.48-.17.96-.17,1.42,0,.42.12.87.36,1.32.2.38.5.55.94.55.6,0,1.29-.22,2.05-.66,1.79-1.35,3.87-4.32,6.13-8.79.19-.44.46-.74.79-.86.24-.09.45-.08.62.01.11.06.26.19.31.43.06.27,0,.62-.2,1.11-1.32,2.76-2.37,4.73-3.12,5.89-2.2,3.55-4.62,5.35-7.17,5.35Zm-2.43-22.61s-.04.03-.07.08c-.06.13-.07.25-.04.37l3.69.02-.24.57c-3.13,7.63-4.72,13.13-4.72,16.34,0,1.29.35,2.33,1.08,3.17.71.82,1.6,1.22,2.71,1.22,2.25,0,4.43-1.67,6.47-4.97.74-1.13,1.77-3.08,3.06-5.78.02-.06.04-.11.06-.16-.02.04-.05.09-.07.15-2.36,4.67-4.45,7.65-6.42,9.13-.93.54-1.76.8-2.51.8s-1.32-.34-1.67-.99c-.31-.57-.46-1.15-.46-1.71,0-.52.06-1.06.19-1.61l1.39-6.18.1-.09c3.04-2.81,5.67-6.07,7.82-9.7l.12-.2h3.68s.04-.02.07-.08c.06-.13.07-.25.04-.37l-3.52-.02.32-.61c.86-1.65,1.76-3.46,2.66-5.39.88-1.87,1.33-3.48,1.33-4.78,0-1.2-.37-1.96-1.13-2.32-.06-.02-.28-.08-.8-.08-.2,0-.74.13-1.98,1.02-.98.7-2.08,2.08-3.27,4.11-1.21,2.07-2.54,4.7-3.96,7.8l-.11.24h-3.83Zm2.21,10.6l.79-1.98c1.66-4.14,2.73-6.8,3.21-7.9l.11-.25h3.81l-.39.63c-1.87,3.06-3.9,5.74-6.05,7.97l-1.48,1.53Zm4.66-9.3c-.41.98-1.16,2.81-2.23,5.48,1.39-1.63,2.73-3.47,4-5.48h-1.77Zm3.53-1.31h-3.85l.26-.58c2.09-4.74,3.61-7.8,4.52-9.09,1.01-1.44,1.73-2.08,2.33-2.08.83,0,.83,1.21.83,1.6,0,1.91-1.3,5.16-3.97,9.94l-.12.21Zm-2.57-.83h2.08c2.49-4.47,3.75-7.6,3.75-9.32,0-.44-.05-.66-.08-.75-.17.07-.63.38-1.57,1.7-.84,1.19-2.24,4.01-4.18,8.37Z"/>
        </g>
        <g>
          <path class="cls-4" d="m71.57,130.85c0,1.11.4,1.66,1.19,1.66,1.86,0,4.49-3.48,7.89-10.44.28-.55.52-.77.74-.65.22.12.33.28.33.48s-.23.76-.68,1.69c-.45.93-.91,1.82-1.36,2.67-.45.85-1.12,1.97-1.99,3.35-1.82,2.77-3.76,4.16-5.82,4.16-1.35,0-2.41-.55-3.21-1.66-.36-.51-.53-1.22-.53-2.11s.2-1.97.59-3.24c.4-1.27,1.48-3.32,3.26-6.17.44-.71.65-1.28.65-1.69s-.34-.62-1.01-.62-1.96.89-3.86,2.67c-2.85,2.61-5.62,6.53-8.31,11.75-.28.59-1.01.89-2.2.89-1.07.08-1.74.2-2.02.36,7.52-15.63,12.96-26.53,16.32-32.7.75-1.38,1.41-2.35,1.99-2.91.57-.55,1.26-.83,2.05-.83.2,0,.61.05,1.25.15.63.1,1.11.13,1.42.09-1.19,1.23-3.31,4.62-6.38,10.18-3.07,5.56-6,11.21-8.81,16.94,1.86-2.33,3.53-4.15,5.01-5.46,1.48-1.31,3.29-2.54,5.43-3.71,2.14-1.17,3.7-1.75,4.69-1.75.24,0,.45.04.65.12-4.87,8.55-7.3,14.15-7.3,16.8Z"/>
          <path class="cls-4" d="m54.3,134.96l.58-1.2c7.48-15.54,12.97-26.55,16.33-32.72.78-1.43,1.45-2.42,2.07-3.01.65-.63,1.44-.95,2.34-.95.22,0,.63.05,1.31.15.73.12,1.12.11,1.31.09l1.17-.15-.82.85c-1.16,1.2-3.28,4.59-6.31,10.09-2.5,4.52-4.93,9.16-7.27,13.82,1.01-1.13,1.95-2.08,2.83-2.85,1.5-1.32,3.35-2.58,5.51-3.76,2.22-1.21,3.82-1.8,4.89-1.8.29,0,.56.05.81.15l.44.18-.24.42c-4.81,8.44-7.25,14.03-7.25,16.59,0,1.24.52,1.24.77,1.24,1.15,0,3.39-1.77,7.52-10.21.26-.52.51-.8.8-.89.17-.06.36-.04.52.05.47.26.54.64.54.84s-.09.57-.72,1.87c-.46.93-.92,1.83-1.37,2.68-.46.86-1.11,1.97-2,3.38-1.9,2.89-3.97,4.35-6.17,4.35-1.48,0-2.67-.62-3.54-1.84-.41-.59-.61-1.38-.61-2.35s.21-2.06.61-3.36c.41-1.31,1.49-3.36,3.31-6.27.49-.8.59-1.24.59-1.47,0-.14-.2-.21-.59-.21-.25,0-1.11.25-3.57,2.56-2.8,2.57-5.57,6.48-8.22,11.64-.34.74-1.21,1.12-2.57,1.12-1.33.1-1.71.24-1.81.3l-1.16.66Zm17.33-17.11c1.29,0,1.43.73,1.43,1.04,0,.5-.23,1.12-.71,1.91-1.76,2.81-2.84,4.85-3.22,6.08-.38,1.22-.57,2.27-.57,3.11s.15,1.43.46,1.87c.71,1,1.65,1.48,2.86,1.48,1.9,0,3.74-1.33,5.47-3.97.86-1.37,1.53-2.49,1.97-3.32.45-.85.91-1.73,1.36-2.66.59-1.2.64-1.47.64-1.52,0,0,0-.02-.02-.04-.05.06-.14.18-.26.41-3.56,7.28-6.19,10.67-8.27,10.67-.6,0-1.6-.27-1.6-2.08,0-2.7,2.31-8.1,7.07-16.5h0c-.91,0-2.42.57-4.49,1.7-2.1,1.15-3.9,2.38-5.35,3.66-1.46,1.29-3.13,3.1-4.96,5.41l-2.38,2.99,1.68-3.43c2.8-5.72,5.77-11.42,8.82-16.96,2.66-4.82,4.58-7.97,5.85-9.58-.18-.02-.38-.04-.59-.08-.77-.12-1.07-.14-1.18-.14-.69,0-1.26.23-1.76.71-.54.52-1.19,1.47-1.91,2.81-3.29,6.05-8.65,16.76-15.92,31.86.3-.05.7-.09,1.22-.13,1.04,0,1.65-.22,1.85-.65,2.71-5.25,5.53-9.25,8.4-11.88,2.66-2.49,3.64-2.78,4.14-2.78Z"/>
        </g>
        <g>
          <path class="cls-4" d="m83.32,124.38c-.55,1.35-.83,2.85-.83,4.51,0,1.11.25,1.99.74,2.64.49.65,1.2.98,2.11.98,3.6,0,6.86-3.38,9.79-10.15.28-.63.61-.91,1.01-.83.16.04.24.14.24.3s-.44,1.2-1.34,3.12c-.89,1.92-1.79,3.47-2.7,4.66-2.02,2.77-4.51,4.16-7.48,4.16-1.58,0-2.93-.51-4.04-1.54-1.11-1.03-1.66-2.43-1.66-4.21s.42-3.67,1.28-5.67c.85-2,2.01-3.86,3.47-5.58,1.46-1.72,3.15-2.98,5.05-3.77.91-.4,1.78-.59,2.61-.59s1.6.24,2.32.71c.67.55,1.01,1.17,1.01,1.84,0,2.37-1.42,4.65-4.27,6.83-.87.67-2.1,1.28-3.68,1.81-1.58.53-2.79.8-3.62.8Zm9.97-9.5c0-.79-.32-1.19-.95-1.19-1.11,0-2.79,1.36-5.05,4.1-1.35,1.66-2.53,3.52-3.56,5.58.67,0,1.65-.24,2.94-.71,1.29-.47,2.4-1.11,3.35-1.9,2.18-1.86,3.26-3.82,3.26-5.88Z"/>
          <path class="cls-4" d="m84.87,134.17c-1.68,0-3.14-.56-4.32-1.65-1.19-1.11-1.79-2.63-1.79-4.52s.44-3.79,1.31-5.83c.86-2.03,2.05-3.94,3.54-5.69,1.5-1.76,3.25-3.07,5.2-3.88,1.94-.84,3.78-.87,5.32.16.8.66,1.19,1.39,1.19,2.19,0,2.5-1.49,4.91-4.44,7.16-.9.7-2.18,1.33-3.8,1.87-1.47.5-2.61.76-3.47.81-.47,1.23-.7,2.6-.7,4.1,0,1.01.22,1.81.66,2.39.41.55,1,.81,1.78.81,3.4,0,6.57-3.33,9.41-9.9.45-1.04,1.06-1.16,1.47-1.07.36.09.57.36.57.71,0,.15,0,.33-1.37,3.29-.9,1.93-1.82,3.53-2.75,4.74-2.08,2.86-4.71,4.32-7.81,4.32Zm6.71-21.37c-.77,0-1.59.19-2.45.56-1.84.76-3.48,1.99-4.89,3.66-1.43,1.68-2.57,3.52-3.41,5.47-.82,1.94-1.24,3.79-1.24,5.5s.5,2.95,1.53,3.91c1.04.96,2.26,1.43,3.75,1.43,2.85,0,5.19-1.3,7.14-3.98.89-1.17,1.79-2.71,2.66-4.59.83-1.78,1.13-2.51,1.24-2.81-.15.08-.29.34-.39.57-2.99,6.9-6.41,10.4-10.17,10.4-1.04,0-1.86-.38-2.44-1.14-.55-.72-.83-1.7-.83-2.89,0-1.71.29-3.28.86-4.67l.11-.26h.28c.78,0,1.95-.26,3.49-.78,1.53-.52,2.73-1.1,3.56-1.74,2.73-2.08,4.11-4.27,4.11-6.5,0-.55-.28-1.04-.86-1.52-.61-.41-1.3-.62-2.05-.62Zm-7.83,10.98h-.67l.3-.6c1.04-2.08,2.25-3.98,3.61-5.65,2.4-2.9,4.1-4.25,5.37-4.25.41,0,1.37.16,1.37,1.6,0,2.18-1.15,4.26-3.41,6.19-.99.82-2.15,1.48-3.48,1.97-1.34.5-2.35.74-3.08.74Zm8.61-9.67c-.67,0-2.03.68-4.72,3.94-1.17,1.44-2.23,3.06-3.16,4.82.55-.1,1.25-.31,2.07-.61,1.24-.46,2.32-1.07,3.23-1.83,2.07-1.77,3.11-3.64,3.11-5.56,0-.77-.32-.77-.53-.77Z"/>
        </g>
        <g>
          <path class="cls-4" d="m76.8,157.05c2.45,0,3.68-.59,3.68-1.78,0-.59.21-.89.62-.89s.62.49.62,1.45-.55,1.71-1.66,2.23c-1.11.51-2.09.77-2.94.77s-1.55-.04-2.11-.12c-5.82-.75-10.8-2.02-14.96-3.8-2.81,4.43-5.32,10.33-7.54,17.69-.83,2.65-2.01,5.52-3.53,8.61-1.52,3.09-3.17,5.63-4.93,7.63-1.76,2-3.79,3.63-6.08,4.9-4.51,2.45-9.83,3.68-15.96,3.68-4.99,0-9.65-1.23-14.01-3.68-4.27-2.41-6.77-6.13-7.48-11.16-.08-.67-.12-1.67-.12-3s.39-3.21,1.16-5.67c.77-2.45,2.23-4.31,4.36-5.58.87-.51,1.52-.77,1.96-.77.71,0,1.03.34.95,1.01-.16.2-.56.52-1.22.98-.65.45-1.28.93-1.87,1.42-.59.49-1.19,1.26-1.78,2.28-1.03,1.74-1.54,3.7-1.54,5.88,0,4.99,1.7,8.82,5.1,11.51,1.82,1.5,3.86,2.65,6.11,3.44,2.25.79,4.51,1.19,6.77,1.19h.3c8.19-.2,14.92-3.17,20.18-8.9,3.32-3.6,7.87-11.73,13.65-24.39,1.98-4.35,3.24-6.9,3.8-7.66-7-2.22-13.29-3.32-18.87-3.32s-10.11,1.68-13.59,5.04c-2.81,2.69-4.21,5.5-4.21,8.43,0,3.2,1.4,5.24,4.21,6.11.99.28,1.89.42,2.7.42s1.74-.15,2.79-.44c1.05-.3,2.06-.91,3.03-1.84.97-.93,1.7-1.85,2.2-2.76s.7-1.6.62-2.08v-.12c.32-.28.59-.37.83-.27.24.1.36.35.36.74-.4,3.09-1.96,5.4-4.69,6.94-1.66.99-3.21,1.48-4.63,1.48s-2.69-.2-3.8-.59c-3.24-1.15-5.3-3.34-6.17-6.59-.28-1.03-.42-2.04-.42-3.03,0-2.37.73-4.69,2.2-6.94,2.61-4.04,6.71-6.47,12.28-7.3,1.27-.2,2.47-.3,3.62-.3s2.48.06,4.01.18c1.52.12,3.54.51,6.05,1.19,2.51.67,5.08,1.45,7.72,2.34,2.63.89,4.2,1.41,4.72,1.57,1.94-2.37,3.38-3.58,4.33-3.62.2-.08.47-.12.8-.12s.6.28.8.83c.2.55.06.91-.41,1.07-.2.04-.46.02-.77-.06-.24-.16-.72.09-1.45.74-.73.65-1.28,1.2-1.63,1.63,3.72,1.19,6.98,2.05,9.79,2.58,2.81.53,4.83.8,6.05.8Z"/>
          <path class="cls-4" d="m22.02,197.82c-5.03,0-9.82-1.26-14.21-3.73-4.37-2.47-6.96-6.32-7.69-11.46-.08-.7-.12-1.7-.12-3.06s.4-3.31,1.18-5.79c.8-2.54,2.33-4.5,4.55-5.81,1.84-1.09,2.77-.98,3.27-.43.23.26.32.62.27,1.07v.12s-.09.09-.09.09c-.12.15-.38.42-1.3,1.06-.64.44-1.26.92-1.84,1.4-.55.46-1.12,1.19-1.69,2.17-.99,1.67-1.49,3.58-1.49,5.67,0,4.83,1.66,8.59,4.95,11.19,1.78,1.47,3.79,2.6,5.99,3.38,2.2.77,4.43,1.16,6.63,1.16h.3c8.02-.19,14.71-3.14,19.87-8.77,3.28-3.55,7.85-11.72,13.58-24.28,1.7-3.74,2.86-6.13,3.53-7.25-6.73-2.08-12.86-3.14-18.23-3.14s-9.92,1.66-13.3,4.93c-2.71,2.6-4.09,5.33-4.09,8.13,0,3.03,1.28,4.9,3.92,5.71.94.26,1.81.4,2.58.4s1.67-.14,2.68-.43c.98-.28,1.94-.86,2.85-1.74.93-.9,1.65-1.79,2.12-2.66.56-1.02.62-1.55.58-1.81v-.38s.14-.12.14-.12c.55-.48.99-.45,1.26-.34.28.12.61.41.61,1.13-.42,3.26-2.06,5.7-4.9,7.31-1.71,1.02-3.34,1.54-4.83,1.54s-2.79-.21-3.94-.62c-3.37-1.19-5.53-3.5-6.44-6.87-.28-1.06-.43-2.11-.43-3.14,0-2.45.76-4.86,2.26-7.17,2.67-4.12,6.9-6.64,12.57-7.48,1.28-.2,2.52-.3,3.68-.3s2.51.06,4.04.18c1.54.12,3.6.52,6.13,1.2,2.53.68,5.13,1.47,7.74,2.35,2.3.78,3.76,1.27,4.44,1.49,1.93-2.33,3.33-3.46,4.39-3.55.24-.08.53-.12.89-.12s.87.19,1.19,1.11c.15.41.15.76,0,1.05-.13.26-.36.45-.68.56-.31.06-.63.04-1.01-.05l-.12-.05s-.24.07-.95.7c-.47.42-.86.79-1.17,1.12,3.44,1.08,6.51,1.88,9.13,2.38,2.77.53,4.78.79,5.97.79,2.17,0,3.26-.46,3.26-1.36,0-1.18.73-1.31,1.04-1.31.69,0,1.04.63,1.04,1.87,0,1.14-.64,2.02-1.9,2.6-1.16.54-2.2.81-3.11.81s-1.6-.04-2.17-.12c-5.67-.73-10.62-1.97-14.73-3.69-2.7,4.35-5.16,10.16-7.3,17.29-.83,2.66-2.03,5.57-3.56,8.67-1.53,3.11-3.21,5.7-4.99,7.72-1.78,2.02-3.87,3.7-6.19,4.98-4.55,2.48-9.99,3.73-16.17,3.73Zm-14.12-29.85c-.25,0-.75.12-1.75.71-2.04,1.21-3.44,3-4.18,5.35-.75,2.4-1.14,4.27-1.14,5.54s.04,2.3.12,2.95c.69,4.86,3.13,8.51,7.27,10.84,4.27,2.41,8.91,3.63,13.8,3.63,6.03,0,11.34-1.22,15.77-3.63,2.24-1.24,4.25-2.85,5.97-4.81,1.73-1.96,3.36-4.5,4.87-7.54,1.51-3.06,2.69-5.93,3.51-8.55,2.21-7.36,4.77-13.34,7.58-17.78l.19-.3.33.14c4.1,1.76,9.1,3.03,14.85,3.77.53.08,1.22.12,2.05.12.79,0,1.72-.25,2.76-.73.96-.44,1.42-1.05,1.42-1.85,0-.9-.19-1.04-.19-1.04-.08,0-.22,0-.22.47,0,1.46-1.38,2.2-4.1,2.2-1.26,0-3.27-.26-6.13-.81-2.81-.53-6.12-1.41-9.84-2.59l-.58-.19.39-.47c.37-.45.94-1.02,1.68-1.68.63-.56,1.35-1.09,1.88-.82.28.07.45.06.54.04.02-.01.12-.05.15-.12.04-.07.02-.22-.04-.4-.12-.35-.28-.55-.41-.55-.35,0-.55.05-.65.09l-.14.03c-.46.02-1.6.5-4.03,3.47l-.18.22-.27-.08c-.51-.16-2.06-.67-4.73-1.58-2.59-.88-5.18-1.66-7.69-2.34-2.47-.66-4.49-1.06-5.98-1.17-1.51-.12-2.84-.18-3.97-.18s-2.32.1-3.56.29c-5.43.81-9.47,3.2-12,7.11-1.41,2.18-2.13,4.44-2.13,6.72,0,.95.14,1.93.4,2.92.84,3.13,2.77,5.19,5.91,6.3,1.06.38,2.29.57,3.66.57s2.83-.48,4.42-1.43c2.64-1.49,4.11-3.66,4.49-6.64,0-.02-.01-.27-.1-.31-.05-.02-.14,0-.24.08.06.51-.17,1.25-.68,2.2-.51.94-1.28,1.91-2.27,2.86-1.01.97-2.09,1.63-3.2,1.94-1.08.31-2.06.46-2.9.46s-1.79-.14-2.81-.43c-3-.93-4.52-3.12-4.52-6.51,0-3.03,1.46-5.97,4.34-8.73,3.55-3.42,8.22-5.16,13.88-5.16s11.99,1.12,19,3.34l.56.18-.35.47c-.53.72-1.8,3.28-3.75,7.58-5.77,12.64-10.39,20.89-13.72,24.5-5.32,5.8-12.21,8.84-20.47,9.04h-.31c-2.29,0-4.62-.41-6.9-1.21-2.29-.8-4.39-1.99-6.24-3.51-3.48-2.76-5.26-6.74-5.26-11.84,0-2.24.54-4.29,1.6-6.09.61-1.06,1.24-1.87,1.87-2.39.6-.5,1.24-.99,1.9-1.45.63-.44.92-.68,1.05-.81,0-.11-.01-.23-.07-.29-.07-.08-.24-.13-.47-.13Z"/>
        </g>
        <g>
          <path class="cls-4" d="m67.3,171.06c2.89,0,4.33,1.82,4.33,5.46,0,1.66-.44,3.44-1.31,5.34-1.11,2.57-2.77,4.91-4.98,7,.51.99,1.44,1.48,2.79,1.48,1.07,0,2.08-.53,3.03-1.6,1.19-1.23,2.04-2.3,2.55-3.23.51-.93.89-1.61,1.13-2.05.24-.43.54-1.06.92-1.87.38-.81.6-1.31.68-1.48.08-.18.22-.27.42-.27.39-.04.59.1.59.42,0,.12-.04.26-.12.41l-.36.83c-.24.55-.42.95-.53,1.19s-.33.66-.62,1.28-.55,1.1-.77,1.45-.51.83-.89,1.42c-.38.59-.71,1.07-1.01,1.42s-.66.75-1.1,1.19c-.44.44-.85.77-1.25,1.01-.99.59-1.92.89-2.79.89-1.62,0-2.89-.51-3.8-1.54-1.82,1.35-3.5,2.02-5.04,2.02-2.89,0-4.33-1.82-4.33-5.46,0-1.66.43-3.44,1.31-5.34,1.19-2.77,2.86-5.12,5.01-7.06,2.16-1.94,4.2-2.91,6.14-2.91Zm.65,1.84c-1.07,0-2.34.71-3.8,2.14-1.46,1.42-2.77,3.36-3.92,5.82-1.39,2.85-2.08,5.18-2.08,7s.69,2.73,2.08,2.73c.99,0,2.1-.53,3.32-1.6-.63-.91-.95-1.88-.95-2.91.08-1.7.77-2.55,2.08-2.55.51,0,.94.18,1.28.53.34.36.5.68.5.98s-.04.6-.12.92c.67-.99,1.44-2.39,2.31-4.21.99-2.02,1.48-4,1.48-5.93s-.73-2.91-2.2-2.91Z"/>
          <path class="cls-4" d="m59.17,192.25c-2.17,0-4.75-1.02-4.75-5.88,0-1.72.45-3.57,1.34-5.51,1.2-2.8,2.92-5.23,5.11-7.2,2.22-2,4.38-3.01,6.42-3.01,2.17,0,4.75,1.02,4.75,5.88,0,1.71-.45,3.57-1.34,5.52-1.08,2.51-2.71,4.83-4.84,6.9.46.67,1.2,1,2.26,1,.95,0,1.84-.48,2.72-1.46,1.17-1.2,2-2.26,2.5-3.16.51-.93.89-1.61,1.13-2.05.23-.42.53-1.02.91-1.84.37-.81.6-1.3.68-1.48.14-.33.43-.51.8-.51.3-.03.57.04.76.21.12.1.25.3.25.62,0,.18-.05.39-.16.6l-.34.81c-.24.57-.42.97-.55,1.21-.12.24-.33.66-.62,1.27-.3.62-.56,1.12-.79,1.49-.22.36-.52.84-.89,1.43-.39.62-.73,1.1-1.04,1.47-.31.37-.68.78-1.12,1.21-.46.46-.9.82-1.33,1.07-1.05.63-2.06.95-3,.95-1.59,0-2.88-.47-3.85-1.41-1.77,1.25-3.45,1.88-4.99,1.88Zm8.13-20.77c-1.82,0-3.8.94-5.86,2.8-2.1,1.89-3.75,4.22-4.91,6.92-.85,1.84-1.27,3.58-1.27,5.18,0,3.39,1.28,5.04,3.92,5.04,1.44,0,3.06-.65,4.8-1.94l.31-.23.25.29c.83.94,1.97,1.4,3.49,1.4.79,0,1.66-.28,2.58-.83.36-.22.76-.54,1.17-.95s.78-.81,1.07-1.16c.28-.34.61-.8.98-1.38.37-.59.67-1.06.89-1.42.21-.35.47-.83.75-1.42.3-.62.51-1.04.63-1.28.12-.23.29-.62.52-1.16l.36-.83c.08-.16.09-.23.09-.25.03,0,0,0-.05,0-.02,0-.05,0-.08,0-.16.2-.38.7-.76,1.51-.39.84-.69,1.46-.93,1.89-.24.44-.61,1.12-1.13,2.05-.53.96-1.41,2.08-2.62,3.32-1.02,1.14-2.14,1.73-3.33,1.73-1.51,0-2.57-.58-3.16-1.71l-.14-.28.23-.22c2.16-2.05,3.81-4.36,4.89-6.87.85-1.84,1.27-3.58,1.27-5.18,0-3.39-1.28-5.04-3.92-5.04Zm-7.06,19.53c-1.14,0-2.49-.55-2.49-3.15,0-1.88.71-4.29,2.12-7.19,1.16-2.48,2.51-4.48,4-5.93,1.56-1.52,2.9-2.25,4.09-2.25s2.61.58,2.61,3.32c0,1.99-.51,4.05-1.53,6.12-.87,1.83-1.66,3.26-2.34,4.26l-1.31,1.93.57-2.27c.07-.28.11-.56.11-.82,0-.18-.14-.42-.39-.69s-.58-.4-.97-.4c-.67,0-1.57.22-1.66,2.16,0,.92.3,1.82.88,2.65l.21.31-.28.25c-1.3,1.13-2.51,1.7-3.6,1.7Zm7.72-17.69c-.95,0-2.13.68-3.51,2.02-1.42,1.38-2.71,3.3-3.83,5.69-1.35,2.78-2.04,5.08-2.04,6.83,0,2.07.95,2.31,1.66,2.31.81,0,1.74-.43,2.77-1.27-.54-.89-.82-1.84-.82-2.83.11-2.46,1.42-2.97,2.49-2.97.63,0,1.16.22,1.58.66.23.25.4.49.5.72.47-.81.98-1.79,1.52-2.93.96-1.95,1.44-3.89,1.44-5.76,0-2.23-1.02-2.49-1.78-2.49Z"/>
        </g>
        <g>
          <path class="cls-4" d="m94.19,175.69c0,1.74-.45,3.66-1.36,5.76-.91,2.1-2.17,4.12-3.77,6.05-1.6,1.94-3.55,3.26-5.85,3.98-.87.24-1.87.36-3,.36s-2.36-.36-3.71-1.07l-5.64,14.07c-.59,1.27-1.15,2.1-1.66,2.49-.51.4-1.01.59-1.48.59h-.86c-.1,0-.45-.06-1.07-.18-.61-.12-1.08-.16-1.39-.12.87-.83,3.08-4.78,6.62-11.84,3.54-7.06,5.55-11.82,6.02-14.27-.44.63-.85.97-1.25,1.01-.24,0-.24-.23,0-.68.24-.45.63-1.33,1.19-2.64.71-1.7,1.07-3.27,1.07-4.72s-.28-2.28-.83-2.52c2.37-.39,3.76-.58,4.15-.56.4.02.64.19.74.5.1.32.15.67.15,1.07,0,2.41-.55,5.1-1.66,8.07l1.19-1.9c1.42-2.29,2.46-3.78,3.12-4.45.65-.67,1.36-1.37,2.11-2.08,1.15-1.11,2.26-1.66,3.32-1.66.32,0,.61.04.89.12,1.98.51,2.97,2.06,2.97,4.63Zm-2.85-.59c0-.63-.13-1.22-.39-1.75-.26-.53-.66-.8-1.22-.8-1.39,0-3,1.29-4.84,3.86-1.84,2.57-4.48,7.06-7.92,13.47.51.51,1.23.77,2.14.77s2.2-.69,3.86-2.08c2.65-2.22,4.87-4.97,6.65-8.25,1.15-2.14,1.72-3.88,1.72-5.22Z"/>
          <path class="cls-4" d="m67.72,208.33h-.86c-.1,0-.3-.02-1.15-.19-.71-.14-1.08-.14-1.26-.11l-1.25.16.91-.87c.57-.55,2.17-3.03,6.53-11.73,2.93-5.85,4.82-10.14,5.63-12.79-.15.07-.29.11-.44.12-.3-.02-.45-.1-.55-.27-.19-.31-.03-.69.14-1.02.23-.44.62-1.32,1.17-2.61.69-1.64,1.04-3.17,1.04-4.56,0-1.71-.41-2.07-.58-2.14l-1.31-.56,1.4-.23c3.24-.54,3.98-.59,4.24-.57.77.04,1.03.51,1.12.79.11.36.17.76.17,1.19,0,1.57-.23,3.27-.7,5.08,1.17-1.84,2.03-3.04,2.62-3.64.66-.68,1.38-1.39,2.12-2.09,1.22-1.18,2.44-1.78,3.61-1.78.35,0,.69.05,1,.14,2.17.56,3.27,2.26,3.27,5.03,0,1.79-.47,3.78-1.4,5.92-.92,2.12-2.21,4.19-3.83,6.15-1.65,1.99-3.68,3.37-6.04,4.11-.92.25-1.96.38-3.12.38-1.07,0-2.25-.31-3.49-.91l-5.47,13.64c-.64,1.36-1.22,2.22-1.79,2.67-.59.45-1.17.68-1.74.68Zm-2.47-1.1c.19.02.4.06.62.1.79.15.96.17.99.17h.86c.38,0,.79-.17,1.23-.51.46-.35.98-1.14,1.54-2.34l5.8-14.47.41.22c1.28.68,2.46,1.02,3.51,1.02s2.06-.11,2.89-.34c2.19-.68,4.09-1.97,5.63-3.84,1.57-1.9,2.82-3.9,3.71-5.95.88-2.03,1.33-3.92,1.33-5.59,0-2.38-.87-3.76-2.66-4.23-1.1-.31-2.45.12-3.82,1.44-.74.7-1.44,1.39-2.1,2.07-.63.65-1.66,2.12-3.06,4.38l-3.37,5.4,1.44-3.86c1.09-2.91,1.64-5.58,1.64-7.93,0-.35-.04-.67-.13-.95-.02-.07-.06-.2-.37-.21-.22-.01-.98.06-3.28.43.27.5.4,1.24.4,2.24,0,1.49-.37,3.14-1.1,4.88-.48,1.13-.83,1.92-1.08,2.42.12-.12.26-.28.41-.5l1.13-1.64-.38,1.96c-.48,2.51-2.47,7.21-6.06,14.38-3,5.97-5.02,9.69-6.14,11.26Zm13.87-16.17c-1.02,0-1.84-.3-2.43-.89l-.22-.22.15-.27c3.43-6.39,6.11-10.94,7.95-13.52,1.94-2.71,3.64-4.03,5.18-4.03.71,0,1.26.36,1.59,1.04.28.59.43,1.24.43,1.93,0,1.43-.58,3.2-1.77,5.42-1.8,3.32-4.07,6.13-6.75,8.37-1.76,1.46-3.1,2.17-4.12,2.17Zm-1.61-1.28c.41.3.94.45,1.61.45.55,0,1.63-.34,3.59-1.98,2.6-2.17,4.8-4.91,6.55-8.13,1.11-2.06,1.67-3.75,1.67-5.02,0-.57-.12-1.09-.34-1.57-.19-.39-.45-.57-.84-.57-1.24,0-2.75,1.24-4.5,3.68-1.8,2.51-4.4,6.93-7.74,13.13Z"/>
        </g>
      </g>
      <g>
        <path class="cls-25" d="m321.08,44.29c-8.9,20.17-15.38,19.75-15.6,19.99-.13-.02-6.11,1.72-9.4-4.93l2.36-1.06c.44,1.03,1.3,2.12,2.24,2.84,2.13,1.53,4.12.95,4.33.97.16-.05,1.66-.31,2.65-1.07,4.49-2.8,9.89-12.51,12.19-17.26l1.23.53Z"/>
        <path class="cls-25" d="m182.31,29.16c-8.9,20.17-15.38,19.75-15.61,19.99-.13-.02-6.11,1.72-9.4-4.93l2.36-1.06c.44,1.03,1.29,2.12,2.24,2.84,2.13,1.54,4.12.95,4.33.97.16-.05,1.66-.31,2.65-1.07,4.49-2.8,9.89-12.51,12.19-17.26l1.23.53Z"/>
        <path class="cls-25" d="m178.74,82.18c-8.9,20.17-15.38,19.75-15.6,19.99-.13-.02-6.11,1.72-9.4-4.93l2.36-1.06c.44,1.03,1.3,2.12,2.24,2.84,2.13,1.54,4.12.95,4.33.97.16-.05,1.66-.31,2.65-1.07,4.49-2.8,9.89-12.51,12.19-17.26l1.23.53Z"/>
        <path class="cls-25" d="m322.08,47.42l38.91-40.22s-8.81-3.98-21.27,3.56c-12.46,7.55-16.14,23.25-19.92,27.03-3.78,3.78-6.13,3.92-6.13,3.92l8.41,5.7Z"/>
        <path class="cls-54" d="m394.09,94.37s6.36,1.4,8.03-1.02c1.16-1.69,7.73-2.73,7.73-2.73l.89,9.59-6.42,1.54-7.11-.59-3.14-6.8Z"/>
        <g>
          <rect class="cls-6" x="407.97" y="105.49" width="1.45" height="87.52" transform="translate(-4.82 13.93) rotate(-1.94)"/>
          <rect class="cls-35" x="408.38" y="105.49" width=".62" height="87.52" transform="translate(-4.84 13.98) rotate(-1.95)"/>
          <rect class="cls-30" x="409.21" y="191.88" width="2.09" height="6.86" transform="translate(-6.42 14.1) rotate(-1.95)"/>
          <rect class="cls-5" x="409.67" y="198.74" width="1.45" height="1.25" transform="translate(-6.52 14.02) rotate(-1.94)"/>
          <polygon class="cls-30" points="411.34 211.93 410.31 211.96 409.29 199.92 411.54 199.85 411.34 211.93"/>
          <polygon class="cls-33" points="410.94 214.85 410.41 211.96 411.23 211.93 410.94 214.85"/>
          <path class="cls-5" d="m407.8,86.63c-.12,1.09-.06,2.28-.06,2.28.69,2.47.13,5.41.13,5.41-.3,2.4.3,4.46.3,4.46.66,2.21.53,4.4.53,4.4l-.76,2.57-1.45.05-.98-2.35-1.88-19.65,4.97-.17.04,1.25c-.51.02-.74.85-.84,1.75Z"/>
          <path class="cls-2" d="m408.7,103.18c-2.58-.33-3.08-7.75-2.71-12.03.24-2.8,1.18-4.02,1.8-4.53-.12,1.09-.06,2.28-.06,2.28.69,2.47.13,5.41.13,5.41-.3,2.4.3,4.46.3,4.46.66,2.21.53,4.4.53,4.4Z"/>
          <path class="cls-24" d="m406.89,89.64c.1-1.14.31-2.01.58-2.69-.58.64-1.27,1.87-1.47,4.21-.37,4.28.13,11.7,2.71,12.03,0,0,.05-.86-.08-2.06-1.73-1.83-2.06-7.81-1.74-11.49Z"/>
          <path class="cls-33" d="m410.44,195.32c.05,1.49-.11,2.71-.35,2.71s-.48-1.19-.53-2.68c-.05-1.49.11-2.71.35-2.71s.48,1.19.53,2.68Z"/>
        </g>
        <g>
          <path class="cls-13" d="m238.59,118.23s-2.81,16-2.81,29.72,4.23,28.48,11.31,35.56c7.08,7.08,17.12,18.77,17.12,18.77,0,0-4.06-35.24-9.77-52.58-5.71-17.34-15.85-31.47-15.85-31.47Z"/>
          <path class="cls-16" d="m217.73,158.27s2.83,21.37,7.85,28.47c9.32,13.16,38.63,15.54,38.63,15.54,0,0-13.46-30.33-46.48-44.01Z"/>
          <path class="cls-11" d="m255.43,172.85c7.24,25.47,8.56,27.88,8.56,27.88,0,0,14.27-32.93,10.1-54.44-4.17-21.51-8.34-35.56-8.34-35.56,0,0-17.56,36.66-10.32,62.13Z"/>
          <path class="cls-11" d="m319,154.18s-11,17.15-29.49,31.47c-18.49,14.32-25.31,16.63-25.31,16.63,0,0-4.94-25,9.68-32.38,14.62-7.39,39.07-9.23,45.11-15.72Z"/>
          <path class="cls-16" d="m264.48,202.28s-9.15-12.35-25.7-16.87c-16.55-4.51-32.06-2.26-32.06-2.26,0,0,22.79,23.25,57.76,19.12Z"/>
          <path class="cls-11" d="m302.2,132.28s-1.48,38.18-9.24,44.51c-7.75,6.33-28.76,25.49-28.76,25.49,0,0,10.31-55.33,37.99-70Z"/>
          <path class="cls-11" d="m282.05,118.23s8.37,39.22-17.57,84.05c0,0-14.93-47.46,17.57-84.05Z"/>
          <path class="cls-11" d="m330.38,173.53s-53.83,6.84-65.89,28.75c0,0,56.29-1.28,65.89-28.75Z"/>
          <path class="cls-45" d="m213.31,185.62c14.26,3.72,39.66,12.06,51.17,16.66-11.78-3-37.25-11.2-51.17-16.66Z"/>
          <path class="cls-31" d="m225.69,165.8c6.74,8.69,23.24,30.5,36.79,36.3-14.95-5.27-31.24-27-36.79-36.3Z"/>
        </g>
        <g>
          <path class="cls-7" d="m287.35,86.57s-4.06,23.1-4.06,42.92,6.1,41.13,16.33,51.36c10.22,10.22,24.73,27.11,24.73,27.11,0,0-5.87-50.88-14.11-75.93-8.24-25.04-22.89-45.45-22.89-45.45Z"/>
          <path class="cls-58" d="m260.46,105.55s3.88,49.72,10.79,66.23c12.8,30.61,53.09,36.17,53.09,36.17,0,0-18.5-70.56-63.88-102.4Z"/>
          <path class="cls-49" d="m267.15,115.78c12.08,28.74,33.32,72.01,57.19,92.16-24.92-18.75-46.94-63.15-57.19-92.16Z"/>
          <path class="cls-62" d="m311.66,165.43c10.46,36.77,12.36,40.26,12.36,40.26,0,0,20.61-47.55,14.58-78.62-6.02-31.07-12.05-51.36-12.05-51.36,0,0-25.36,52.94-14.9,89.72Z"/>
          <path class="cls-8" d="m378.33,115.99s6.24,32.56-8.73,62.84c-14.97,30.28-45.47,29.02-45.47,29.02,0,0,.91-20.77,15.23-39.59,14.32-18.83,35.22-40.01,38.97-52.26Z"/>
          <path class="cls-1" d="m324.74,207.94s-13.21-17.84-37.12-24.36c-23.9-6.52-46.29-3.26-46.29-3.26,0,0,32.91,33.58,83.41,27.62Z"/>
          <path class="cls-28" d="m324.13,207.85s26.9-11.36,40.98-23.66c14.08-12.3,17.04-29.08,17.04-29.08,0,0-32.64,7.32-43.59,16.88-10.94,9.56-14.43,35.85-14.43,35.85Z"/>
          <path class="cls-56" d="m368.56,108.6s-1.71,54.9-10.65,64c-8.94,9.11-33.17,35.34-33.17,35.34,0,0,11.9-78.24,43.82-99.35Z"/>
          <path class="cls-67" d="m350.11,86.57s12.09,56.64-25.37,121.38c0,0-21.56-68.54,25.37-121.38Z"/>
          <path class="cls-49" d="m345.53,97.21c-5.69,35.93-13.93,76.44-20.79,110.74,6.14-36.2,12.94-74.61,20.79-110.74Z"/>
          <path class="cls-44" d="m375.48,178.08s-41.45,7.1-50.74,29.86c0,0,43.34-1.33,50.74-29.86Z"/>
        </g>
        <path class="cls-36" d="m430.62,211.28c0,5.89-57.74,10.67-128.97,10.67s-128.97-4.78-128.97-10.67,57.74-10.67,128.97-10.67,128.97,4.78,128.97,10.67Z"/>
        <polygon class="cls-20" points="385.14 196.75 390.49 207.61 398.66 202.91 393.15 193.62 385.14 196.75"/>
        <path class="cls-27" d="m377.48,55.53s3.03,33.19,6.75,34.81c3.72,1.62,13.59,4.1,13.59,4.1l.1,7.26s-16.32,4.52-20.44.4c-4.12-4.12-10.03-11.97-8.73-13.26,1.29-1.29,8.73-33.31,8.73-33.31Z"/>
        <path class="cls-64" d="m360.98,114.06l-21.02,47.86-20.37,36.22v2.91h-7.76s1.94-14.23,4.2-25.55c2.26-11.32,14.55-29.75,14.55-29.75l5.82-33.96,24.58-4.53v6.79Z"/>
        <path class="cls-29" d="m340.61,107.27h-4.2l-2.59,9.06s10.03,20.05,27.17,34.28l22.11,50.01,10.55-6.35s-16.01-47.38-19.08-50.45c-3.07-3.07-19.81-35.4-19.81-35.4l-14.14-1.15Z"/>
        <path class="cls-29" d="m376.65,21.03c-.12.86-16.07,26.3-19.33,44.41-3.26,18.11-12.18,39.56-19.33,45.71-7.15,6.14-30.36-3.58-33.38-10.7-3.01-7.11-2.02-17.76,3-32.21,5.02-14.45,9.04-13.58,16.82-27.81,7.78-14.23,13.56-27.38,25.61-32.12,12.05-4.74,27.87,3.66,26.61,12.72Z"/>
        <path class="cls-59" d="m350.04,8.31c-1.61.63-3.11,1.43-4.51,2.35,8.17-.02,18.15,1.65,15.31,10.37-3.18,9.78,3.72,12.77,8.38,13.69,3.98-7.69,7.39-13.3,7.44-13.69,1.25-9.06-14.56-17.46-26.61-12.72Z"/>
        <path class="cls-25" d="m328.67,112.8c-9.35-11.89-3.92-43.73,7.73-53.74,12.87-11.05,20.16-32.42,24.43-38.03,4.27-5.61,16.5,3.63,16.5,3.63-.12.86-16.76,22.67-20.02,40.78-3.26,18.11-12.18,39.56-19.33,45.71-1.83,1.57-5.23,2-9.32,1.65Z"/>
        <path class="cls-21" d="m367.99,38.28s-10.56-1.29-20.27,12.29c-9.7,13.58-15.99,58.08-17.05,62.35-1.06,4.27,30.31,3.19,30.31,3.19,0,0,11.34-26.07,12.29-33.65,1.72-13.71,5.92-28.01,5.92-28.01l-11.21-16.17Z"/>
        <path class="cls-9" d="m371.87,24.48s3.1-.94,4.18,3.13c1.08,4.07,14.64,21.8,12.21,22.53-5.54,1.65-14.27-14.68-14.27-14.68l-2.11-10.97Z"/>
        <g>
          <path class="cls-3" d="m376.83,33.48c-.21-.3-.19-10.75-.19-10.75,0,0,.3-7.73,2.23-8.27,1.93-.54,7-3.06,10.13-1.86,3.13,1.2,4.84,3.03,5.04,3.33.21.3.85,4.69.85,4.69,0,0-.48-1.59-2.67,2.67-2.19,4.26-15.39,10.18-15.39,10.18Z"/>
          <path class="cls-26" d="m384.82,36.29c-.81,1-7.81,8.65-6.27,11.9.47.99-9.83.81-7.15-6.71,2.69-7.52,6.75-15.99,6.75-15.99l6.66,10.8Z"/>
          <path class="cls-66" d="m378.16,25.48s-1.04,2.17-2.41,5.28c.14,3.64,1.88,8.89,5.08,10.61,1.65-2.43,3.59-4.58,4-5.08l-6.66-10.8Z"/>
          <path class="cls-26" d="m380.43,18.52c-2.28,2.51-4.44,7.93-3.3,13.17,1.14,5.23,4.07,8.9,7.56,7.92,3.49-.97,9.26-13.69,8.61-17.85-.65-4.15-9.38-7.07-12.86-3.25Z"/>
          <path class="cls-63" d="m375.63,31.03s1.03-4.51-.13-6.19c-1.16-1.68-1.62-2.6-1.32-4.22.3-1.62-4.51-4.76-2.71-6.89,1.8-2.13,6.31-1.62,10.04-5.07,3.72-3.46,6.87-4.92,11.09-1.37,4.22,3.55,3.7,6.91,3.7,6.91,0,0,2.28.49,2.55,3.69.27,3.21-1.24,4.34-2.56,5.25,0,0,1.54-3.46.29-3.68-1.25-.23-1.58,4.13-1.58,4.13,0,0-1.16-2.2-2.12-5.26-.96-3.06-1.54-.18-2.12,2.96-.58,3.14-3.61-1.29-4.62-4.14-1.01-2.86-4.37-1.95-6.47.65-2.1,2.6.19,8.98-4.04,13.23Z"/>
          <path class="cls-26" d="m379.53,23.56s-.53-3.75-1.92-2.78c-1.39.96-2.19,5.22-.32,6.03,1.86.81,2.25-3.25,2.25-3.25Z"/>
          <path class="cls-66" d="m378.48,23.39s.74-1.74-.4-1.53c-1.14.21-1.31,3.43-.44,3.71.86.29.84-2.19.84-2.19Z"/>
          <path class="cls-18" d="m388.44,26.53c.02.94-.09,1.88-.29,2.8-.45,1.98-1.04,2.66-1.1,2.78-.19-.13-.71-.44-1.36-.94.48.18.94.38,1.39.6l-.2.06c.73-1.66,1.07-3.49,1.56-5.29Z"/>
          <path class="cls-18" d="m382.23,32.73c-.04-.29.39-.35.43-.07.01.09.37,2.26,2.46,2.64.12.02.2.14.18.25-.11.62-2.65-.4-3.07-2.83Z"/>
          <path class="cls-19" d="m385.97,26.04c-.1.57-.51.97-.91.9-.4-.07-.64-.59-.54-1.16.1-.57.51-.97.91-.9.4.07.64.59.54,1.17Z"/>
          <path class="cls-19" d="m391.35,27.37c-.1.57-.51.97-.91.9-.4-.07-.64-.59-.54-1.16.1-.57.51-.97.91-.9s.64.59.54,1.16Z"/>
          <path class="cls-18" d="m383.59,23.51s1.34-1.12,2.75-.86c1.41.26.57,1.25.24,1.19-.33-.06-2.94-.62-2.99-.32Z"/>
          <path class="cls-18" d="m390.72,23.67s1.36,1.11,1.37,1.98c0,0-1.58-.81-1.72-1.34s.35-.64.35-.64Z"/>
        </g>
        <path class="cls-27" d="m371.87,24.48l-5.17,13.77s6.47,17.28,10.78,17.28l10.78-5.39s-4.45-1.51-7.51-6.9c-3.06-5.39-5.43-18.76-8.88-18.76Z"/>
        <path class="cls-26" d="m409.85,90.62s-3.57-.92-6.08.57c-2.51,1.48,4.75.94,3.86,1.62-.89.68-5.04,2.25-4.11,2.95.93.7,5.34-1.26,5.26-.69-.08.58-4.68,2.01-3.66,2.8,1.02.79,4.09-.54,4.29-.01.21.52-3.58,1.23-2.25,1.72,1.32.49,3.39,1.02,4.09.48.71-.54,1.3-1.79,1.12-2.92-.18-1.13.56-1.5-.7-3.65-1.26-2.15-1.82-2.89-1.82-2.89Z"/>
        <g>
          <rect class="cls-6" x="348.7" y="120.88" width="1.45" height="87.52" transform="translate(157.46 -170.55) rotate(34.97)"/>
          <rect class="cls-35" x="349.11" y="120.88" width=".62" height="87.52" transform="translate(157.52 -170.59) rotate(34.98)"/>
          <rect class="cls-30" x="321.96" y="198.97" width="2.09" height="6.86" transform="translate(174.36 -148.6) rotate(34.98)"/>
          <rect class="cls-5" x="319.96" y="205.1" width="1.45" height="1.25" transform="translate(175.88 -146.69) rotate(34.98)"/>
          <polygon class="cls-30" points="313.89 216.33 313.04 215.74 319.46 205.51 321.3 206.79 313.89 216.33"/>
          <polygon class="cls-33" points="311.81 218.43 313.13 215.8 313.8 216.27 311.81 218.43"/>
          <path class="cls-5" d="m386.32,114.03c-.75.8-1.42,1.79-1.42,1.79-.93,2.39-3.14,4.4-3.14,4.4-1.68,1.74-2.44,3.75-2.44,3.75-.8,2.17-2.22,3.84-2.22,3.84l-2.16,1.6-1.19-.83.63-2.47,10.3-16.84,4.07,2.85-.71,1.02c-.41-.29-1.1.23-1.73.89Z"/>
          <path class="cls-2" d="m377.1,127.81c-1.86-1.81,2.19-8.05,5.06-11.24,1.88-2.09,3.36-2.5,4.16-2.54-.75.8-1.42,1.79-1.42,1.79-.93,2.39-3.14,4.4-3.14,4.4-1.68,1.74-2.44,3.75-2.44,3.75-.8,2.17-2.22,3.84-2.22,3.84Z"/>
          <path class="cls-24" d="m383.79,115.89c.76-.85,1.46-1.42,2.08-1.8-.85.16-2.14.74-3.7,2.48-2.87,3.2-6.92,9.43-5.06,11.24,0,0,.56-.66,1.18-1.69-.29-2.5,3.05-7.48,5.51-10.23Z"/>
          <path class="cls-33" d="m323.14,202.52c-.86,1.22-1.71,2.1-1.91,1.96-.2-.14.33-1.24,1.19-2.47.86-1.22,1.71-2.1,1.91-1.96.2.14-.33,1.24-1.19,2.47Z"/>
        </g>
        <path class="cls-26" d="m375.44,116.28s.95-2.42,2.63-2.78c1.68-.35,7.1,3.82,6.89,4.58-.21.76-1.75,1.29-1.33,2.03.42.74.24.99-.38,1.8-.62.81-1.32,1.96-1.78,2.21-.45.26-7.79-1.47-6.04-7.85Z"/>
        <path class="cls-26" d="m375.8,112.26l-3.92,3.48s.1.09.27.25c.78.71,2.96,2.74,3.13,3.32l2.79-5.79-2.27-1.25Z"/>
        <g>
          <path class="cls-51" d="m190.75,28.51s-9.38,2.98-8.57-2.52c0,0,4.53-17.04,12.29-21.09,7.76-4.04,20.01-4.9,20.01-4.9l-23.73,28.51Z"/>
          <path class="cls-54" d="m246.79,90.48s6.49.52,7.82-2.11c.92-1.83,7.29-3.77,7.29-3.77l2.2,9.38-6.15,2.41-7.12.39-4.04-6.3Z"/>
          <g>
            <rect class="cls-6" x="268.07" y="99.09" width="1.45" height="87.52" transform="translate(-20.47 48.07) rotate(-9.85)"/>
            <rect class="cls-35" x="268.48" y="99.09" width=".62" height="87.52" transform="translate(-20.47 48.06) rotate(-9.85)"/>
            <rect class="cls-30" x="275.62" y="184.82" width="2.09" height="6.86" transform="translate(-28.08 50.01) rotate(-9.83)"/>
            <rect class="cls-5" x="276.63" y="191.62" width="1.45" height="1.25" transform="translate(-28.77 50.21) rotate(-9.84)"/>
            <polygon class="cls-30" points="280.01 204.56 279 204.74 276.34 192.96 278.55 192.57 280.01 204.56"/>
            <polygon class="cls-33" points="280.02 207.51 279.1 204.72 279.91 204.58 280.02 207.51"/>
            <path class="cls-5" d="m259.31,80.94c.03,1.1.25,2.27.25,2.27,1.03,2.35.87,5.34.87,5.34.03,2.42.91,4.38.91,4.38.96,2.1,1.13,4.29,1.13,4.29l-.4,2.65-1.43.25-1.3-2.19-4.56-19.21,4.9-.85.21,1.23c-.5.09-.62.94-.59,1.85Z"/>
            <path class="cls-2" d="m262.48,97.21c-2.6.03-4.12-7.25-4.33-11.54-.14-2.81.62-4.14,1.16-4.73.03,1.1.25,2.27.25,2.27,1.03,2.35.87,5.34.87,5.34.03,2.42.91,4.38.91,4.38.96,2.1,1.13,4.29,1.13,4.29Z"/>
            <path class="cls-24" d="m258.82,84.04c-.06-1.14.04-2.04.2-2.74-.49.71-1,2.03-.88,4.37.22,4.29,1.73,11.57,4.33,11.54,0,0-.07-.86-.36-2.03-1.97-1.57-3.11-7.46-3.3-11.14Z"/>
            <path class="cls-33" d="m276.85,188.24c.26,1.47.27,2.69.03,2.74-.24.04-.64-1.12-.9-2.59-.25-1.47-.27-2.69-.03-2.74.24-.04.64,1.12.9,2.59Z"/>
          </g>
          <path class="cls-26" d="m261.89,84.6s-3.66-.42-5.95,1.4c-2.28,1.82,4.84.27,4.05,1.07-.79.8-4.68,2.92-3.67,3.49,1.01.57,5.12-1.98,5.12-1.4,0,.58-4.36,2.63-3.24,3.28,1.11.65,3.97-1.09,4.25-.6.28.49-3.37,1.71-1.99,2.02,1.38.31,3.5.55,4.12-.08.62-.63,1.04-1.95.71-3.04-.33-1.09.35-1.56-1.19-3.52-1.54-1.96-2.2-2.61-2.2-2.61Z"/>
          <path class="cls-21" d="m239.92,53.66s3.45-1.59,5.5,7.36c2.05,8.95-4.85,20.27-2.75,23.82,2.1,3.56,12.88,1.94,12.88,1.94l.43,10.67s-11.86,1.76-17.68.77c-5.82-.99-8.52-6.06-7.87-12.52.65-6.47,9.49-32.04,9.49-32.04Z"/>
          <path class="cls-43" d="m216.73,124.83l-9.69,38.63s-21.34,35.02-21.34,45.46l-6.79-3.73s6.43-46.57,16.63-54.03l2.12-45.12,19.07,18.79Z"/>
          <path class="cls-57" d="m197.66,114.81l25.55,40.1s2.32,19.64,12.11,29.43c9.79,9.79,17.76,24.58,17.76,24.58l6.03-1.94-20.05-51.1-17.46-42.2-23.93,1.13Z"/>
          <path class="cls-40" d="m259.11,206.98c-8.73-19.81-25.92-64.29-28.77-72.17,7.21,15.41,19.63,45.71,28.77,72.17Z"/>
          <path class="cls-50" d="m214.48,0s18.43,3.23,20.7,12.94c2.26,9.7-22.96,41.4-20.7,57.4,2.26,16.01-6.47,31.47-22.96,35.71-16.49,4.23-23.93-2.56-26.52-14.04-2.59-11.48-2.59-19.94,3.56-38.35,6.14-18.41,15.83-30.28,21.99-38.13,7.35-9.37,23.93-15.52,23.93-15.52Z"/>
          <path class="cls-51" d="m235.18,12.94c-.4-1.7-1.3-3.2-2.5-4.52-10.57,1.57-23.24,4.7-25.08,10.81-3.23,10.73-.8,34.06-12.04,49.56-9.35,12.89-15.4,28.39-16.55,38.24,3.44.55,7.56.29,12.52-.99,16.49-4.23,25.23-19.7,22.96-35.71-2.26-16.01,22.96-47.7,20.7-57.4Z"/>
          <path class="cls-41" d="m230.81,40.97s-3.56-2-21.83,16.27c-18.27,18.27-15.96,62.53-15.96,62.53,0,0,13.37,8.61,25.01,8.61s14.23-2.05,14.23-2.05c0,0-.06-34,6.47-50.02,9.29-22.77-.67-35.35-7.92-35.35Z"/>
          <path class="cls-39" d="m238.53,54.12l-.27-3.06c-.03.26-4.4,28.56-8.51,38.11-3.91,9.07-3.22,23.08-3.07,38.72.47-.06.89-.13,1.29-.2-.15-15.61-.81-29.26,2.97-38.01,4.19-9.71,7.46-34.49,7.6-35.56Z"/>
          <g>
            <path class="cls-34" d="m221.59,22.96s4.49,2.99,6.65,7.5c2.16,4.51,18.38,13.3,18.38,13.3,0,0-9.45,2.4-9.7,2.66-.26.26-18.33-7.8-18.33-7.8l3-15.66Z"/>
            <g>
              <g>
                <path class="cls-26" d="m235.87,46.26c.2-1.33.63-2.55.92-4.53.42-2.83.88-4.94.88-4.94l-7.01-3.07s-1.12,4.58-1.94,8.22c-.54,2.39,7.01,5.19,7.14,4.32Z"/>
                <path class="cls-66" d="m230.67,33.72s-.18.81-.47,2.07c.57.85,1.38,1.75,2.51,2.9,1.13,1.15,2.58,2.25,4.08,3.04.42-2.83.88-4.94.88-4.94l-7.01-3.07Z"/>
                <path class="cls-46" d="m247.69,23.73s-6.16,6.11-8.51,6.72c-2.34.61-7.53,1.43-7.53,1.43,0,0-2.79,9.2-3.11,11.23,0,0-8.97-1.99-3.74-16.43,1.99-5.5,2.97-9.02,9.2-10.91,6.23-1.89,12.26,2.36,13.69,7.95Z"/>
                <path class="cls-26" d="m243.38,21.5s3.78,1.61,3.86,4.52c.09,2.91-.78,4.28-.74,5.68.04,1.4-.39,3.97-2.52,7.79-2.14,3.82-7.82,1.04-10.93-2.12-3.49-3.55-3.75-4.56-3.22-9.74.53-5.18,7.53-8.87,13.55-6.13Z"/>
                <path class="cls-55" d="m242.21,35c-.02-.45.56.13,1.77-1.18-.36-.66-.51-1.46-.49-2.15.24,1.43.95,2.05,1.04,2.18-.04.04-1,1.29-2.09,1.36h0c-.12,0-.23-.08-.23-.2Z"/>
                <path class="cls-55" d="m240.04,31.53c.26.23.67.22.92-.03s.23-.64-.03-.88-.67-.22-.92.03-.23.64.03.88Z"/>
                <path class="cls-55" d="m245.4,31.84c.26.23.67.22.92-.03.25-.25.23-.64-.03-.88-.26-.23-.67-.22-.92.03-.25.25-.23.64.03.88Z"/>
                <path class="cls-69" d="m242.51,30.23c-.73-.13-1.47-.13-2.21.02-.38.09-.71.2-1.05.33-.34.13-.67.26-1,.45.38.03.75-.02,1.11-.09.36-.07.71-.2,1.03-.29.68-.17,1.39-.27,2.11-.42Z"/>
                <path class="cls-69" d="m247.37,30.57c-.54-.07-1.1-.03-1.66.12-.29.08-.54.19-.8.3-.26.11-.51.23-.77.39.28,0,.56-.05.84-.12.27-.07.54-.19.79-.26.52-.16,1.06-.27,1.6-.41Z"/>
                <path class="cls-69" d="m242.68,28.37l-.38.73s-1.94-.29-2.86.39c0,0,1.65-1.73,3.24-1.12Z"/>
                <path class="cls-69" d="m247.04,28.49l-.2.7s-1.94-.29-2.86.39c0,0,1.47-1.7,3.06-1.09Z"/>
                <path class="cls-4" d="m243.6,37.15s-2.2-.42-3.99-1.26c0,0,1.44,2.77,2.5,2.74,1.06-.03,1.49-1.47,1.49-1.47Z"/>
                <path class="cls-19" d="m247.37,19.15s3.05.76,2.39,3.58c-.66,2.82-8.43,5.61-13.46,4.58-1.89-.39-1.96.7-2.76,1.34-1.33,1.07-2.51,2.42-1.58,4.75,1.49,3.73,3.28,1.98,3.28,1.98,0,0-1.65,2.05-6.01.51-4.36-1.54-4.49-7.89-.92-11.29,3.57-3.4,7.11-4.85,9.94-5.53,6.14-1.46,9.12.09,9.12.09Z"/>
                <path class="cls-26" d="m231.93,27.68c.52.05,2.65,1.69,1.94,3.19-.71,1.5-1.31,1.57-2.7.74-1.39-.83-.56-4.05.76-3.93Z"/>
                <path class="cls-66" d="m233.28,29.83s-1.01-1.39-1.61-.78c-.6.61-.5,1.74.25,2.16.75.42,2.05-.54,1.36-1.38Z"/>
              </g>
              <path class="cls-66" d="m236.38,33.23c-.07.7.82,1.35,1.98,1.46,1.16.1,2.16-.38,2.23-1.08.07-.7-.82-1.35-1.98-1.46-1.16-.1-2.16.38-2.23,1.08Z"/>
              <path class="cls-66" d="m244.66,34.34c.06-.6.79-1.03,1.72-1.09-.11.66-.3,1.44-.62,2.35-.7-.27-1.16-.75-1.11-1.26Z"/>
            </g>
            <path class="cls-47" d="m246.62,43.76s-16.09-3.25-20.15-7.3c-4.76-4.76-4.88-13.5-4.88-13.5,0,0-3.08.17-4.86,1.94-1.77,1.78-10.27,19.61,8.25,18.48,8.5-.52,13.54,10.74,13.54,10.74l8.09-10.35Z"/>
          </g>
          <path class="cls-38" d="m221.06,41.72s7.11,5.82,4.09,17.46c-3.02,11.64-16.39,20.91-16.39,20.91v10.35s13.79-11.11,19.62-21.34c10.56-18.54-2.16-27.38-2.16-27.38h-5.17Z"/>
          <path class="cls-52" d="m233.09,89.95s1.3-6.11-.51-5.78c-1.81.33-4.5,6.27-4.5,6.27l2.26,3.02s2-.28,2.75-3.52Z"/>
          <g>
            <rect class="cls-6" x="224.97" y="100.94" width="1.45" height="87.52" transform="translate(31.41 -40.04) rotate(10.89)"/>
            <rect class="cls-35" x="225.38" y="100.94" width=".62" height="87.52" transform="translate(31.4 -40.03) rotate(10.89)"/>
            <rect class="cls-30" x="215.94" y="186.52" width="2.09" height="6.86" transform="translate(39.77 -37.56) rotate(10.88)"/>
            <rect class="cls-5" x="215.5" y="193.31" width="1.45" height="1.25" transform="translate(40.53 -37.36) rotate(10.89)"/>
            <polygon class="cls-30" points="214.35 206.39 213.34 206.2 215.02 194.24 217.23 194.66 214.35 206.39"/>
            <polygon class="cls-33" points="213.31 209.16 213.44 206.22 214.25 206.37 213.31 209.16"/>
            <path class="cls-5" d="m238.73,83.44c-.36,1.04-.57,2.21-.57,2.21.13,2.56-1.07,5.3-1.07,5.3-.82,2.27-.69,4.42-.69,4.42.15,2.31-.46,4.41-.46,4.41l-1.32,2.34-1.42-.27-.44-2.51,2.53-19.58,4.88.94-.24,1.22c-.5-.1-.91.66-1.21,1.52Z"/>
            <path class="cls-2" d="m235.94,99.78c-2.44-.89-1.28-8.24.03-12.33.86-2.68,2.05-3.65,2.76-4.01-.36,1.04-.57,2.21-.57,2.21.13,2.56-1.07,5.3-1.07,5.3-.82,2.27-.69,4.42-.69,4.42.15,2.31-.46,4.41-.46,4.41Z"/>
            <path class="cls-24" d="m237.18,86.17c.35-1.09.75-1.89,1.16-2.49-.71.5-1.65,1.54-2.37,3.77-1.32,4.09-2.47,11.43-.03,12.33,0,0,.24-.83.38-2.02-1.28-2.17-.27-8.08.86-11.59Z"/>
            <path class="cls-33" d="m217.16,190.01c-.28,1.46-.7,2.61-.94,2.57-.24-.05-.21-1.27.08-2.74.28-1.46.7-2.61.94-2.57.24.05.21,1.27-.08,2.74Z"/>
          </g>
          <path class="cls-26" d="m229.71,89.94s-.12-2.6,1.27-3.61c1.39-1.01,8.04.59,8.16,1.37.12.78-1.07,1.89-.38,2.4.69.5.63.81.39,1.79-.24.99-.41,2.32-.72,2.75-.31.42-7.72,1.84-8.72-4.7Z"/>
          <path class="cls-42" d="m232.84,84.17s-24.07.45-17.6-5.22c6.47-5.67,15.54-33.35,11-36.52-4.55-3.17-8.18.41-9.49,1.76-8.48,8.77-28.99,31.26-20.69,43.23,6.33,9.13,34.29,6.04,34.29,6.04-1.71-2.83,2.5-9.29,2.5-9.29Z"/>
          <path class="cls-47" d="m215.27,80.73c.26-.58,1.16-1.18,1.7-1.8,7.61-8.46,14.16-33.63,9.26-36.49,3.91,3.53-6.44,29.39-11.08,34.86-.87,1.13-2.05,1.57-2.16,3.51.26,3.65,8.17,3.78,12.12,3.81,2.58-.02,5.16-.14,7.72-.45-.27-.03-17.25-1.45-17.56-3.44Z"/>
        </g>
        <path class="cls-38" d="m362.57,38.79s19.33,18.33,3,41.93c-13.94,20.14-33.47,9.89-33.47,9.89l1.71-5.52s29.16,6.79,31.27-30.4c.57-10.05-9.7-12.75-9.7-12.75l7.19-3.16Z"/>
        <path class="cls-61" d="m360.38,42.9c4.97,4.08,6.87,17.49,6.31,22.12-1.59,13.24-3.99,26.4,0,30.39,3.99,3.99,9.49,13.15,9.49,13.15l2.37,4.35-7.11,6.86-7.71-6.86s-16.65-17.29-19.24-24.83c-2.16-6.3-1.02-14.64-.25-21.06.9-7.48,2.34-17.79,8.36-23.11,3.15-2.79,5.73-2.69,7.78-1.01Z"/>
        <path class="cls-25" d="m325.42,90.49c-8.39-6.85-22.58-3.39-22.71-3.35l.2-4.06c.63-.17,15.03-3.71,24.96,4.41l-2.45,3.01Z"/>
        <g>
          <path class="cls-12" d="m389.18,207.2s-1.99-2.5-4.04-1.69l-.54,2.1h4.31l.27-.4Z"/>
          <path class="cls-43" d="m396.45,195.24s4.1,4.42,5.5,5.82c1.4,1.4,7.44-.97,11.32-.43,3.88.54,3.88,5.71,3.88,5.71l-10.1,7.91-7.58,1.57s-4.31,3.34-6.36,3.34-6.41-10.83-5.28-11.97,5.82-5.28,5.82-8.08,2.8-3.88,2.8-3.88Z"/>
          <path class="cls-12" d="m403.2,203.24c-4.5,0-6.62-2.31-8.6-2.71-1.49-.3-2.06,3.86-6.77,6.67,1.48-1.67,3.25-4.34,4.14-5.94.43-.55.6-1.74,2.03-2.01,1.41-.25,3.47,1.25,4.79,2.06,1.36.79,2.84,1.43,4.41,1.92Z"/>
          <polygon class="cls-47" points="402.39 200.61 400.02 204.43 400.61 204.81 403.2 200.93 402.39 200.61"/>
          <polygon class="cls-47" points="403.79 201.09 401.9 204.81 402.39 204.81 404.87 201.09 403.79 201.09"/>
          <path class="cls-41" d="m399.2,213.39c.67-.67,5.61-.55,7.44-.88,1.32-.23,6.85-6.45,9.85-9.27,1.12,1.39,1.2,2.66,1.2,2.66l-10.68,8.6-7.53,1.32s-4.31,3.34-6.36,3.34c-.55,0-1.28-.79-2.02-1.97,3.06-1.8,7.66-3.36,8.11-3.8Z"/>
          <path class="cls-15" d="m406.89,202.95c4.47-1.98,8.55-.66,7.81.63-.88,1.53-1.36-2.23-7.81-.63Z"/>
        </g>
        <g>
          <path class="cls-12" d="m311.92,201.03s-.31-2.96-2.33-3.35l-1.47,1.38,3.39,2.16.41-.18Z"/>
          <path class="cls-43" d="m323.61,195.27s1.01,5.52,1.41,7.32c.4,1.8,6.33,2.96,9.1,5.32,2.78,2.36.19,6.43.19,6.43l-11.89,1.17-6.74-2.56s-5.06.47-6.67-.56c-1.61-1.02.38-11.71,1.83-12.04,1.45-.32,7.21-1.24,8.61-3.44,1.4-2.2,4.14-1.65,4.14-1.65Z"/>
          <path class="cls-12" d="m324.9,204.93c-3.53-2.25-4.05-5.12-5.4-6.43-1.02-.98-3.55,2-8.65,1.86,2-.57,4.72-1.78,6.22-2.59.61-.22,1.34-1.07,2.6-.56,1.23.5,2.1,2.72,2.73,4.01.67,1.3,1.51,2.54,2.5,3.71Z"/>
          <polygon class="cls-47" points="325.59 202.46 321.81 204.27 322.09 204.87 326.06 203.11 325.59 202.46"/>
          <polygon class="cls-47" points="326.45 203.53 323.1 205.51 323.49 205.76 327.29 204.07 326.45 203.53"/>
          <path class="cls-41" d="m316.69,210.9c.87-.19,4.68,2.37,6.28,3.03,1.15.48,8.61-1.64,12.37-2.36.18,1.65-.39,2.69-.39,2.69l-12.69,1.41-6.58-2.73s-5.06.47-6.67-.56c-.44-.28-.61-1.26-.6-2.56,3.3.12,7.7,1.19,8.27,1.07Z"/>
          <path class="cls-15" d="m327.95,206.54c4.5.69,7.04,3.76,5.82,4.4-1.46.76.05-2.43-5.82-4.4Z"/>
        </g>
        <g>
          <path class="cls-12" d="m179.71,202.86s-.23-2.14-1.68-2.42l-1.06,1,2.45,1.56.3-.13Z"/>
          <path class="cls-13" d="m188.17,198.69s.73,3.99,1.02,5.29c.29,1.3,4.57,2.14,6.58,3.85,2.01,1.71.14,4.65.14,4.65l-8.59.84-4.87-1.85s-3.66.34-4.82-.4c-1.16-.74.27-8.47,1.33-8.7,1.05-.23,5.22-.9,6.23-2.49,1.01-1.59,2.99-1.19,2.99-1.19Z"/>
          <path class="cls-32" d="m189.1,205.68c-2.55-1.62-2.93-3.7-3.9-4.65-.74-.71-2.57,1.45-6.26,1.34,1.45-.41,3.42-1.29,4.5-1.87.44-.16.97-.77,1.88-.41.89.37,1.52,1.97,1.98,2.9.49.94,1.09,1.84,1.81,2.68Z"/>
          <polygon class="cls-47" points="189.6 203.89 186.87 205.2 187.07 205.63 189.94 204.36 189.6 203.89"/>
          <polygon class="cls-47" points="190.22 204.67 187.8 206.1 188.08 206.27 190.83 205.06 190.22 204.67"/>
          <path class="cls-41" d="m183.16,209.99c.63-.14,3.38,1.71,4.54,2.19.83.34,6.22-1.19,8.95-1.71.13,1.19-.28,1.95-.28,1.95l-9.18,1.02-4.75-1.97s-3.66.34-4.82-.4c-.31-.2-.44-.91-.43-1.85,2.39.08,5.56.86,5.98.77Z"/>
          <path class="cls-15" d="m191.31,206.84c3.26.5,5.09,2.72,4.21,3.18-1.05.55.04-1.76-4.21-3.18Z"/>
        </g>
        <g>
          <path class="cls-12" d="m252.44,206.46s-1.45-1.6-2.79-.97l-.27,1.43,2.9-.18.16-.28Z"/>
          <path class="cls-13" d="m256.81,198.11s2.94,2.79,3.94,3.68c1,.88,4.96-.97,7.59-.77,2.63.2,2.85,3.67,2.85,3.67l-6.44,5.75-5.03,1.38s-2.75,2.43-4.13,2.52-4.77-7-4.06-7.81c.71-.81,3.69-3.8,3.57-5.68-.12-1.88,1.72-2.73,1.72-2.73Z"/>
          <path class="cls-32" d="m261.69,203.2c-3.02.19-4.55-1.27-5.89-1.46-1.01-.14-1.22,2.68-4.26,4.77.92-1.19,2-3.05,2.53-4.16.26-.39.33-1.19,1.28-1.43.93-.23,2.39.69,3.3,1.18.95.47,1.97.84,3.04,1.1Z"/>
          <polygon class="cls-47" points="261.04 201.47 259.6 204.13 260.02 204.36 261.59 201.64 261.04 201.47"/>
          <polygon class="cls-47" points="261.99 201.73 260.89 204.3 261.22 204.28 262.72 201.68 261.99 201.73"/>
          <path class="cls-41" d="m259.43,210.19c.42-.48,3.74-.61,4.96-.91.88-.21,4.33-4.63,6.22-6.65.81.89.92,1.74.92,1.74l-6.81,6.23-5,1.21s-2.75,2.43-4.13,2.52c-.37.02-.89-.48-1.44-1.24,1.98-1.34,5-2.58,5.28-2.9Z"/>
          <path class="cls-15" d="m264.16,202.84c2.92-1.52,5.71-.81,5.27.09-.53,1.07-1.01-1.44-5.27-.09Z"/>
        </g>
        <polygon class="cls-38" points="369.94 71.62 374.79 73.02 374.4 75.15 368.56 73.08 369.94 71.62"/>
        <g>
          <rect class="cls-70" x="191.24" y="26.88" width="1.22" height="8.35" transform="translate(16.2 -52.12) rotate(16.14)"/>
          <path class="cls-48" d="m190.63,34.56h0c1.33,0,2.41,1.08,2.41,2.41v1.46c0,.21-.17.39-.39.39h-4.05c-.21,0-.39-.17-.39-.39v-1.46c0-1.33,1.08-2.41,2.41-2.41Z" transform="translate(17.7 -51.52) rotate(16.13)"/>
          <path class="cls-14" d="m191.95,47.36c.18-.63.83-1.03,1.63-1.1.69-.05,1.23-.38,1.37-.88l.54-1.87c.3-1.04-.62-2.23-2.06-2.64l-7.01-2.03c-1.44-.42-2.85.09-3.15,1.14l-.54,1.87c-.15.51.14,1.07.69,1.48.64.48.98,1.17.8,1.8-.18.63-.83,1.03-1.63,1.1-.72.06-1.25.46-1.41.99l-4.85,16.76c-.3,1.04.62,2.23,2.06,2.64l7.01,2.03c1.44.42,2.85-.09,3.15-1.14l4.85-16.76c.15-.53-.08-1.15-.66-1.59-.64-.48-.98-1.17-.79-1.8Z"/>
          <path class="cls-60" d="m193.58,46.27c.69-.05,1.23-.38,1.37-.88l.54-1.87c.3-1.04-.62-2.23-2.06-2.64l-.58-.17c1.44.42,2.36,1.6,2.06,2.64l-.54,1.87c-.15.5-.69.83-1.37.88-.8.06-1.45.47-1.63,1.1-.18.63.15,1.32.79,1.8.58.43.82,1.06.66,1.59l-4.85,16.76c-.3,1.04-1.71,1.55-3.15,1.14l.58.17c1.44.42,2.85-.09,3.15-1.14l4.85-16.76c.15-.53-.08-1.15-.66-1.59-.64-.48-.98-1.17-.79-1.8.18-.63.83-1.03,1.63-1.1Z"/>
          <path class="cls-71" d="m192.72,43.35c-.27.94-2.4,1.14-4.76.46-2.36-.68-4.05-1.99-3.78-2.93.27-.94,2.4-1.14,4.76-.46,2.36.68,4.05,1.99,3.78,2.93Z"/>
          <path class="cls-71" d="m188.47,58.05c-1.29,4.45-3.98,7.57-6.01,6.99-2.04-.59-2.64-4.67-1.36-9.12,1.29-4.45,3.98-7.57,6.01-6.99,2.04.59,2.64,4.67,1.36,9.12Z"/>
          <path class="cls-37" d="m191.19,36.43c-.18.62-.75,1-1.27.85-.52-.15-.8-.78-.62-1.4.18-.62.75-1,1.27-.85.52.15.8.78.62,1.4Z"/>
          <rect class="cls-48" x="186.15" y="38.14" width="7.67" height="1.7" transform="translate(18.31 -51.25) rotate(16.13)"/>
          <rect class="cls-37" x="186.3" y="38.16" width="7.67" height=".59" transform="translate(18.17 -51.31) rotate(16.13)"/>
          <path class="cls-37" d="m192.22,30.25c-.45,1.56-.92,2.8-1.05,2.76-.13-.04.14-1.33.59-2.89.45-1.56.92-2.8,1.05-2.76.13.04-.14,1.33-.59,2.89Z"/>
        </g>
        <path class="cls-51" d="m176.27,50.25l20,6.73s-7.19,21-9.7,21.44c-10.83,1.9-18.6-7.88-18.6-7.88l8.3-20.29Z"/>
        <path class="cls-23" d="m188.56,67.51l3.46-11.96-12.07-4.06-3.61,12.48c-.3,1.04.62,2.23,2.06,2.64l7.01,2.03c1.44.42,2.85-.09,3.15-1.14Z"/>
        <g>
          <g>
            <rect class="cls-22" x="322.62" y="62.04" width=".97" height="5.11" transform="translate(49.59 -119.14) rotate(22.59)"/>
            <path class="cls-68" d="m324.52,62.47l-.89-.37.04-.11c.1-.25.39-.36.63-.26h0c.25.1.36.39.26.63l-.04.11Z"/>
          </g>
          <path class="cls-5" d="m321.77,65.74l-3.15-1.31c-.83-.35-1.79.05-2.14.88h0l6.17,2.56h0c.35-.83-.05-1.79-.88-2.14Z"/>
          <path class="cls-5" d="m311.09,67.93h12.18c.71,0,1.28.57,1.28,1.28v6.52c0,.7-.57,1.28-1.28,1.28h-12.18c-.7,0-1.28-.57-1.28-1.28v-6.52c0-.7.57-1.28,1.28-1.28Z" transform="translate(128.49 337.51) rotate(-67.42)"/>
          <path class="cls-65" d="m323.74,68.5l-4.38,10.54c-.25.61-.99.89-1.64.62l-6.02-2.5c-.65-.27-.97-.99-.72-1.6l4.38-10.54c.25-.61.99-.89,1.64-.61l6.02,2.5c.65.27.97.98.72,1.6Z"/>
          <path class="cls-10" d="m321.98,67.77l-4.38,10.54c-.25.61-.88.93-1.39.72l-4.76-1.98c-.51-.21-.73-.88-.47-1.49l4.38-10.54c.25-.61.88-.93,1.39-.72l4.76,1.98c.52.21.73.88.47,1.49Z"/>
          <rect class="cls-22" x="315.12" y="67.71" width="5.26" height="6.77" rx="1.09" ry="1.09" transform="translate(51.65 -116.55) rotate(22.58)"/>
          <path class="cls-5" d="m314.88,67.53l-2.12,5.09c-.11.27-.42.39-.69.28l2.52-6.06c.13.06.23.16.28.28.05.13.06.27,0,.4Z"/>
          <path class="cls-5" d="m322.98,70.33l-2.52,6.06c-.27-.11-.4-.42-.28-.69l2.12-5.09c.11-.27.42-.4.69-.28Z"/>
          <rect class="cls-17" x="315.84" y="68.27" width="4.51" height="3.9" transform="translate(51.34 -116.74) rotate(22.58)"/>
        </g>
        <path class="cls-25" d="m333.93,67.33c-13.51-9.16-24.7-4.35-24.79-4.3l1.95-4.34c.45-.25,9.54-3.15,25.02,5.42l-2.18,3.21Z"/>
        <path class="cls-25" d="m310.89,70.29l-2.31,9.47s10.29,1.06,11.05,2.4l3.99-7.02s-10.01-5.7-12.73-4.86Z"/>
        <path class="cls-53" d="m319.56,73.02l-4.26,7.7c2.13.4,4.02.9,4.33,1.45l3.99-7.02s-1.79-1.02-4.06-2.13Z"/>
      </g>
    </g>
  </g>
</svg>