<?xml version="1.0" encoding="UTF-8"?>
<svg id="Layer_2" data-name="Layer 2" xmlns="http://www.w3.org/2000/svg" viewBox="0 0 358.19 209.08">
  <defs>
    <style>
      .cls-1 {
        letter-spacing: -.02em;
      }

      .cls-2 {
        font-size: 11.05px;
      }

      .cls-2, .cls-3, .cls-4 {
        fill: #fff;
      }

      .cls-2, .cls-4 {
        font-family: NunitoSans10pt-ExtraBold, 'Nunito Sans 10pt';
        font-weight: 700;
      }

      .cls-5 {
        letter-spacing: -.02em;
      }

      .cls-6 {
        letter-spacing: -.02em;
      }

      .cls-7, .cls-8 {
        fill: #f2f2f3;
      }

      .cls-9 {
        letter-spacing: -.03em;
      }

      .cls-10 {
        letter-spacing: -.02em;
      }

      .cls-8 {
        opacity: .5;
      }

      .cls-11 {
        fill: #87c770;
        opacity: .3;
      }

      .cls-12 {
        letter-spacing: -.06em;
      }

      .cls-13 {
        letter-spacing: -.04em;
      }

      .cls-14 {
        letter-spacing: -.06em;
      }

      .cls-4 {
        font-size: 11.4px;
      }

      .cls-15 {
        letter-spacing: -.03em;
      }
    </style>
  </defs>
  <g id="Layer_1-2" data-name="Layer 1">
    <g>
      <g>
        <g>
          <path class="cls-11" d="m253.54,104.54c-7.26-13.94-44.18-76.68-50.74-88.05-30.4,17.56-50.86,50.41-50.86,88.05,0,56.11,45.49,101.6,101.6,101.6,18.45,0,35.76-4.92,50.67-13.52.24-.14-.14.08.1-.06"/>
          <g>
            <path class="cls-8" d="m253.65,0c-57.74,0-104.54,46.8-104.54,104.54s46.8,104.54,104.54,104.54,104.54-46.8,104.54-104.54S311.38,0,253.65,0Zm0,206.11c-56.09,0-101.57-45.47-101.57-101.57S197.55,2.97,253.65,2.97s101.57,45.47,101.57,101.57-45.47,101.57-101.57,101.57Z"/>
            <path class="cls-7" d="m225.9,47.84l23.65,41.25c-1.34.34-2.65.87-3.91,1.59s-2.38,1.59-3.35,2.57l-23.65-41.25c-1.15-2.01-.46-4.56,1.55-5.71,1-.57,2.14-.69,3.18-.41,1.03.28,1.96.95,2.54,1.96Z"/>
            <path class="cls-7" d="m277.15,148.49c-1.62.27-3.31-.49-4.15-2.01l-14.97-26.49c2.69-.74,5.05-2.16,6.93-4.04l15.05,26.63c1.08,1.93.38,4.38-1.55,5.45-.42.23-.86.38-1.3.46Z"/>
            <circle class="cls-7" cx="253.65" cy="104.54" r="9.16"/>
            <path class="cls-7" d="m253.65,23.67c1.63,0,2.96-1.33,2.96-2.96v-8.87c0-1.63-1.33-2.96-2.96-2.96s-2.96,1.33-2.96,2.96v8.87c0,1.63,1.33,2.96,2.96,2.96Z"/>
            <path class="cls-7" d="m208.76,23.56c-.45-.77-1.44-1.04-2.21-.59-.77.45-1.04,1.44-.59,2.21l2.42,4.19c.45.77,1.44,1.04,2.21.59.77-.45,1.04-1.44.59-2.21l-2.42-4.19Z"/>
            <path class="cls-7" d="m178.48,59.27l-4.19-2.42c-.77-.45-1.76-.18-2.21.59-.45.77-.18,1.76.59,2.21l4.19,2.42c.77.45,1.76.18,2.21-.59.45-.77.18-1.76-.59-2.21Z"/>
            <path class="cls-7" d="m176.86,147.01l-4.19,2.42c-.77.45-1.04,1.44-.59,2.21.45.77,1.44,1.04,2.21.59l4.19-2.42c.77-.45,1.04-1.44.59-2.21-.45-.77-1.44-1.04-2.21-.59Z"/>
            <path class="cls-7" d="m210.59,179.12c-.77-.45-1.76-.18-2.21.59l-2.42,4.19c-.45.77-.18,1.76.59,2.21s1.76.18,2.21-.59l2.42-4.19c.45-.77.18-1.76-.59-2.21Z"/>
            <path class="cls-7" d="m298.92,179.71c-.45-.77-1.44-1.04-2.21-.59-.77.45-1.04,1.44-.59,2.21l2.42,4.19c.45.77,1.44,1.04,2.21.59.77-.45,1.04-1.44.59-2.21l-2.42-4.19Z"/>
            <path class="cls-7" d="m334.63,149.42l-4.19-2.42c-.77-.45-1.76-.18-2.21.59-.45.77-.18,1.76.59,2.21l4.19,2.42c.77.45,1.76.18,2.21-.59s.18-1.76-.59-2.21Z"/>
            <path class="cls-7" d="m330.44,62.07l4.19-2.42c.77-.45,1.04-1.44.59-2.21-.45-.77-1.44-1.04-2.21-.59l-4.19,2.42c-.77.45-1.04,1.44-.59,2.21.45.77,1.44,1.04,2.21.59Z"/>
            <path class="cls-7" d="m300.74,22.97c-.77-.45-1.76-.18-2.21.59l-2.42,4.19c-.45.77-.18,1.76.59,2.21.77.45,1.76.18,2.21-.59l2.42-4.19c.45-.77.18-1.76-.59-2.21Z"/>
            <path class="cls-7" d="m173.05,104.59c0-1.63-1.33-2.96-2.96-2.96h-8.87c-1.63,0-2.96,1.33-2.96,2.96s1.33,2.96,2.96,2.96h8.87c1.63,0,2.96-1.33,2.96-2.96Z"/>
            <path class="cls-7" d="m253.96,185.19c-1.63,0-2.96,1.33-2.96,2.96v8.87c0,1.63,1.33,2.96,2.96,2.96s2.96-1.33,2.96-2.96v-8.87c0-1.63-1.33-2.96-2.96-2.96Z"/>
            <path class="cls-7" d="m346.4,101.31h-8.87c-1.63,0-2.96,1.33-2.96,2.96s1.33,2.96,2.96,2.96h8.87c1.63,0,2.96-1.33,2.96-2.96s-1.33-2.96-2.96-2.96Z"/>
          </g>
        </g>
        <text class="cls-4" transform="translate(194.11 139.44)"><tspan class="cls-5" x="0" y="0">B</tspan><tspan class="cls-9" x="7.98" y="0">E</tspan><tspan class="cls-15" x="14.83" y="0">S</tspan><tspan class="cls-5" x="22.02" y="0">T TIME</tspan><tspan class="cls-12" x="0" y="11.14">T</tspan><tspan class="cls-5" x="6.74" y="11.14">O VISIT</tspan><tspan class="cls-5"><tspan x="0" y="22.29">05-11 AM</tspan></tspan></text>
        <text class="cls-2" transform="translate(265.46 77.69)"><tspan class="cls-14" x="0" y="0">T</tspan><tspan class="cls-1" x="6.53" y="0">OO MUCH</tspan><tspan class="cls-1" x="0" y="10.8">C</tspan><tspan class="cls-10" x="7.49" y="10.8">R</tspan><tspan class="cls-13" x="15.16" y="10.8">O</tspan><tspan class="cls-6" x="23.75" y="10.8">WDED</tspan><tspan class="cls-6"><tspan x="0" y="21.6">12-05 PM</tspan></tspan></text>
      </g>
      <g>
        <g>
          <path class="cls-3" d="m53.42,62.59c0,1.92-.69,3.71-2.08,5.37-1.96,2.36-4.57,4.07-7.85,5.11-2.43.78-4.79,1.16-7.09,1.16-.84,0-1.67-.05-2.48-.15-5.3-.68-9.79-1.84-13.47-3.49-3.34,2.46-6.87,3.7-10.58,3.7-4.39,0-7.1-1.21-8.15-3.64-.24-.57-.35-1.25-.35-2.02s.39-1.6,1.16-2.48c1.21-1.35,2.9-2.02,5.06-2.02,1.42,0,2.7.2,3.85.61,1.15.41,2.56,1.06,4.25,1.97,1.69.91,2.94,1.57,3.75,1.97,1.48-1.45,3.02-3.47,4.61-6.05,1.59-2.58,2.98-5.11,4.18-7.59,1.2-2.48,2.73-5.24,4.58-8.28,1.86-3.04,3.75-5.62,5.67-7.75l2.89-3.29c-2.67-.47-5.6-.71-8.81-.71s-6.73.42-10.58,1.26c-5.26,1.11-9.31,3.38-12.15,6.78-1.72,2.06-2.58,4.02-2.58,5.87,0,2.46,1.2,4.07,3.59,4.81.84.24,1.59.35,2.23.35s1.38-.12,2.23-.35c.84-.24,1.66-.73,2.46-1.49.79-.76,1.37-1.49,1.72-2.2.35-.71.53-1.24.53-1.6s.17-.53.51-.53c.34.03.52.27.56.71v.05c-.37,2.46-1.69,4.34-3.95,5.62-1.38.74-2.77,1.11-4.15,1.11l-2.63-.46c-3.58-1.25-5.37-3.58-5.37-6.99,0-2.33,1.03-4.62,3.09-6.88,3.31-3.71,8.17-6.02,14.58-6.93,3.1-.44,6.34-.66,9.69-.66s6.78.37,10.25,1.11c.94-.81,1.77-1.35,2.48-1.62.71-.27,1.12-.41,1.24-.41s.19.02.23.05c.2,0,.24.11.13.33-.12.22-.49.53-1.11.94s-1,.78-1.14,1.11c4.59,1.18,7.9,2.87,9.92,5.06,1.08,1.21,1.62,2.45,1.62,3.72s-.37,2.54-1.11,3.82c-.98,1.69-2.56,2.96-4.76,3.82-2.19.86-4.4,1.34-6.63,1.44,2.16.68,4.17,1.62,6.02,2.83,2.63,1.72,3.95,4.02,3.95,6.89Zm-35.08,7.04c-3.95-1.89-6.45-3.02-7.49-3.39-1.05-.37-2.08-.56-3.11-.56s-1.85.36-2.45,1.09c-.61.73-.91,1.38-.91,1.97s.13,1.16.4,1.7c.74,1.52,2.3,2.28,4.66,2.28,3.21,0,6.18-1.03,8.91-3.09Zm17.36,3.19c3.78,0,6.99-1.08,9.62-3.24,2.87-2.3,4.3-4.78,4.3-7.44s-1.47-4.86-4.4-6.28c-1.08-.51-2.4-1-3.97-1.49-1.57-.49-2.83-.9-3.8-1.24-.96-.34-1.51-.66-1.65-.96,0-.64.49-.98,1.47-1.01.64,0,1.62.05,2.94.15s2.45.14,3.39.13c.94-.02,2.08-.35,3.42-1.01s2.47-1.51,3.42-2.56c1.52-1.69,2.28-3.27,2.28-4.76,0-3.17-2.97-5.45-8.91-6.83-1.79,2.46-5,7.67-9.62,15.62-4.62,7.95-8.18,13.27-10.68,15.97l-1.92,1.82c3.81,1.59,7.91,2.6,12.3,3.04.64.07,1.25.1,1.82.1Z"/>
          <path class="cls-3" d="m9.89,74.71c-4.55,0-7.42-1.31-8.54-3.9-.26-.63-.39-1.36-.39-2.19,0-.88.43-1.81,1.27-2.76,1.29-1.44,3.1-2.17,5.38-2.17,1.46,0,2.8.21,3.99.63,1.16.41,2.61,1.08,4.31,2,1.5.81,2.66,1.43,3.46,1.83,1.39-1.4,2.84-3.34,4.33-5.76,1.57-2.56,2.97-5.1,4.16-7.56,1.19-2.48,2.74-5.27,4.6-8.31,1.86-3.05,3.78-5.67,5.72-7.81l2.38-2.72c-2.44-.38-5.12-.58-7.99-.58-3.16,0-6.69.42-10.49,1.26-5.15,1.09-9.16,3.32-11.92,6.64-1.65,1.97-2.48,3.86-2.48,5.6,0,2.28,1.08,3.72,3.3,4.41.79.22,1.5.34,2.1.34s1.31-.11,2.11-.34c.77-.22,1.54-.68,2.28-1.39.75-.72,1.3-1.42,1.64-2.09.4-.81.49-1.21.49-1.41,0-.59.36-.95.93-.95.3.03.91.19.98,1.1v.05s0,.1,0,.1c-.39,2.59-1.79,4.58-4.16,5.92-1.45.78-2.91,1.17-4.36,1.17l-2.7-.46c-3.82-1.32-5.72-3.81-5.72-7.4,0-2.43,1.08-4.84,3.2-7.17,3.36-3.77,8.35-6.15,14.83-7.07,6.17-.87,12.98-1.03,19.89.42.91-.76,1.73-1.29,2.45-1.56,1.05-.4,1.26-.43,1.39-.43.1,0,.23,0,.35.06.24.04.36.18.41.26.11.19.1.42-.04.68-.16.29-.55.63-1.26,1.09-.31.2-.52.37-.67.51,4.35,1.19,7.55,2.88,9.53,5.03,1.15,1.29,1.73,2.64,1.73,4.01s-.39,2.69-1.17,4.03c-1.02,1.76-2.7,3.11-4.97,4-1.6.63-3.22,1.06-4.85,1.29,1.52.61,2.97,1.36,4.32,2.24,2.75,1.8,4.14,4.23,4.14,7.24,0,2.02-.73,3.91-2.17,5.64-2,2.41-4.71,4.18-8.04,5.24-3.37,1.07-6.68,1.41-9.75,1.03-5.21-.66-9.7-1.82-13.36-3.43-3.34,2.41-6.92,3.63-10.63,3.63Zm-2.28-10.17c-2.05,0-3.61.62-4.75,1.89-.7.79-1.06,1.53-1.06,2.2,0,.72.11,1.34.32,1.86.97,2.24,3.58,3.38,7.76,3.38,3.6,0,7.08-1.22,10.33-3.61l.2-.15.22.1c3.62,1.63,8.11,2.79,13.35,3.46,2.94.37,6.14.04,9.39-1,3.18-1.02,5.75-2.69,7.65-4.98,1.31-1.57,1.98-3.28,1.98-5.1,0-2.74-1.23-4.88-3.76-6.53-1.82-1.19-3.81-2.12-5.92-2.79l-2.29-.71,2.39-.11c2.17-.1,4.36-.57,6.5-1.41,2.09-.82,3.62-2.05,4.55-3.64.7-1.21,1.06-2.43,1.06-3.61s-.51-2.31-1.51-3.44c-1.95-2.12-5.22-3.78-9.71-4.93l-.46-.12.18-.45c.17-.42.59-.85,1.3-1.31.26-.17.45-.31.59-.42-.16.06-.39.14-.7.25-.66.25-1.45.77-2.36,1.55l-.16.14-.2-.04c-3.43-.73-6.85-1.11-10.16-1.11s-6.56.22-9.63.65c-6.28.89-11.1,3.18-14.32,6.8-1.98,2.17-2.98,4.39-2.98,6.6,0,3.24,1.66,5.39,5.08,6.59l2.57.44c1.23,0,2.56-.36,3.88-1.07,2.15-1.22,3.38-2.96,3.73-5.31-.03-.26-.12-.27-.18-.28-.01,0-.03,0-.04,0,0,0,0,.04,0,.1,0,.42-.19,1.01-.58,1.78-.38.75-.98,1.53-1.81,2.32-.84.8-1.73,1.34-2.63,1.59-.88.25-1.66.37-2.34.37s-1.47-.12-2.34-.37c-2.59-.8-3.9-2.56-3.9-5.22,0-1.95.9-4.01,2.68-6.14,2.88-3.47,7.05-5.8,12.39-6.93,3.86-.84,7.45-1.27,10.67-1.27s6.2.24,8.88.71l.74.13-3.38,3.85c-1.9,2.1-3.79,4.69-5.63,7.69-1.84,3.02-3.38,5.79-4.56,8.24-1.2,2.48-2.61,5.05-4.2,7.63-1.6,2.6-3.17,4.67-4.67,6.13l-.21.21-.27-.13c-.81-.4-2.07-1.07-3.76-1.98-1.66-.9-3.07-1.55-4.19-1.95-1.1-.39-2.34-.58-3.71-.58Zm28.1,8.71c-.58,0-1.21-.03-1.87-.1-4.41-.44-8.59-1.47-12.42-3.07l-.6-.25,2.39-2.27c2.44-2.64,6.02-7.99,10.61-15.88,4.61-7.92,7.85-13.19,9.64-15.65l.16-.23.27.06c6.13,1.43,9.24,3.87,9.24,7.25,0,1.59-.8,3.28-2.39,5.04-.98,1.08-2.17,1.97-3.54,2.65-1.38.68-2.59,1.04-3.6,1.06-.95.02-2.1-.03-3.43-.13-1.3-.1-2.27-.15-2.9-.15-.85.03-1.01.29-1.04.48.1.11.41.34,1.36.68.97.34,2.24.76,3.78,1.24,1.58.49,2.94,1,4.03,1.51,3.08,1.49,4.65,3.73,4.65,6.66s-1.5,5.4-4.46,7.77c-2.69,2.21-6.02,3.33-9.88,3.33Zm-13.36-3.71c3.59,1.42,7.48,2.35,11.58,2.76.63.07,1.23.1,1.78.1,3.66,0,6.81-1.06,9.35-3.14,2.75-2.2,4.15-4.6,4.15-7.12s-1.36-4.54-4.17-5.9c-1.05-.49-2.37-.99-3.92-1.47-1.55-.48-2.83-.9-3.81-1.25-1.12-.39-1.7-.76-1.89-1.19l-.04-.17c0-.51.24-1.38,1.88-1.43h0c.67,0,1.66.05,2.98.15,1.3.1,2.43.14,3.35.13.88-.01,1.97-.34,3.24-.97,1.28-.63,2.39-1.46,3.29-2.46,1.44-1.6,2.17-3.1,2.17-4.48,0-2.89-2.8-5.03-8.31-6.36-1.8,2.53-4.97,7.69-9.43,15.35-4.62,7.94-8.23,13.34-10.74,16.05l-1.47,1.39Zm-12.91,3.6c-2.53,0-4.22-.85-5.04-2.51-.3-.59-.45-1.23-.45-1.88,0-.69.34-1.44,1.01-2.24.69-.82,1.62-1.24,2.78-1.24,1.07,0,2.17.2,3.25.58,1.06.38,3.6,1.53,7.53,3.41l.63.3-.55.42c-2.8,2.11-5.88,3.17-9.16,3.17Zm-1.7-7.04c-.91,0-1.6.31-2.13.94-.54.64-.81,1.22-.81,1.7,0,.52.12,1.03.36,1.51.67,1.38,2.07,2.04,4.28,2.04,2.88,0,5.59-.87,8.09-2.59-3.54-1.69-5.83-2.72-6.81-3.07-1-.35-2-.53-2.97-.53Z"/>
        </g>
        <g>
          <path class="cls-3" d="m58.69,64.51c-.47,1.15-.71,2.43-.71,3.85,0,.95.21,1.7.63,2.25.42.56,1.02.84,1.8.84,3.07,0,5.85-2.89,8.35-8.66.24-.54.52-.78.86-.71.14.03.2.12.2.25s-.38,1.02-1.14,2.66c-.76,1.64-1.53,2.96-2.3,3.97-1.72,2.36-3.85,3.54-6.38,3.54-1.35,0-2.5-.44-3.44-1.32-.95-.88-1.42-2.08-1.42-3.59s.36-3.13,1.09-4.83c.73-1.7,1.71-3.29,2.96-4.76,1.25-1.47,2.68-2.54,4.3-3.21.78-.34,1.52-.51,2.23-.51s1.37.2,1.97.61c.57.47.86,1,.86,1.57,0,2.03-1.22,3.97-3.64,5.82-.74.57-1.79,1.09-3.14,1.54-1.35.46-2.38.68-3.09.68Zm8.5-8.1c0-.67-.27-1.01-.81-1.01-.95,0-2.38,1.16-4.3,3.49-1.15,1.42-2.16,3-3.04,4.76.57,0,1.41-.2,2.51-.61,1.1-.41,2.05-.94,2.86-1.62,1.86-1.59,2.78-3.26,2.78-5.01Z"/>
          <path class="cls-3" d="m60,72.93c-1.45,0-2.71-.48-3.73-1.43-1.03-.96-1.55-2.27-1.55-3.9s.38-3.25,1.12-5c.74-1.74,1.76-3.37,3.03-4.87,1.29-1.51,2.79-2.63,4.46-3.33,1.68-.73,3.27-.74,4.6.14.71.58,1.05,1.22,1.05,1.92,0,2.15-1.28,4.23-3.81,6.16-.77.6-1.87,1.14-3.26,1.61-1.24.42-2.2.65-2.93.7-.38,1.03-.58,2.18-.58,3.44,0,.85.18,1.52.55,2,.34.45.82.67,1.46.67,2.87,0,5.55-2.83,7.97-8.4.41-.93.95-1.03,1.33-.95.34.08.54.34.54.67,0,.14,0,.3-1.18,2.84-.77,1.65-1.56,3.02-2.35,4.05-1.79,2.46-4.05,3.71-6.71,3.71Zm5.72-18.22c-.65,0-1.34.16-2.06.47-1.56.65-2.95,1.69-4.15,3.1-1.21,1.43-2.19,2.99-2.89,4.65-.7,1.64-1.05,3.21-1.05,4.67s.42,2.48,1.28,3.29c.87.81,1.9,1.2,3.16,1.2,2.41,0,4.39-1.1,6.04-3.37.76-1,1.52-2.31,2.26-3.9.13-.27.24-.52.34-.74-2.44,5.17-5.2,7.79-8.23,7.79-.91,0-1.63-.34-2.13-1-.48-.63-.72-1.47-.72-2.51,0-1.47.25-2.82.74-4.01l.11-.26h.28c.11,0,.22,0,.35-.02h-.67l.3-.61c.89-1.77,1.93-3.4,3.09-4.83,2.06-2.49,3.53-3.65,4.63-3.65.37,0,1.23.14,1.23,1.43,0,1.88-.99,3.67-2.93,5.33-.67.56-1.45,1.04-2.31,1.42.95-.37,1.72-.78,2.28-1.21,2.31-1.77,3.48-3.61,3.48-5.49,0-.44-.23-.85-.71-1.24-.51-.34-1.08-.51-1.71-.51Zm.66,1.11c-.46,0-1.58.43-3.98,3.34-.97,1.19-1.85,2.53-2.62,3.98.44-.09.99-.26,1.62-.49,1.05-.39,1.97-.91,2.74-1.55,1.75-1.49,2.63-3.07,2.63-4.69,0-.59-.22-.59-.39-.59Z"/>
        </g>
        <g>
          <path class="cls-3" d="m73.22,71.35c.44.07.74.1.91.1,1.35,0,2.68-.79,4-2.38.71-.88,1.97-3.09,3.8-6.63.07-.17.19-.25.35-.25.3-.03.46.08.46.35,0,.07-.08.26-.23.58-.15.32-.3.64-.43.96-.14.32-.35.78-.66,1.39-.3.61-.56,1.1-.78,1.47-.22.37-.5.83-.84,1.37-.34.54-.68.96-1.01,1.27l-1.06,1.11c-.57.57-1.25.98-2.03,1.21-1.25.41-2.46.44-3.64.1-.78.34-1.47.51-2.08.51-2.4,0-3.85-.94-4.35-2.84-.1-.44-.15-.97-.15-1.59s.21-1.22.63-1.8c.42-.57.87-.88,1.34-.91,1.72-3.27,3.19-6.23,4.4-8.86,1.35-2.87,2.92-4.3,4.71-4.3.47,0,.94.11,1.39.33.46.22.62.46.51.73-.12.27-.36.32-.73.15-.37-.17-.69-.25-.96-.25s-.51.05-.71.15c-1.15.54-1.72,1.7-1.72,3.49,0,.95.14,1.72.41,2.33.27.61.57,1.27.91,1.97.78,1.75,1.16,3.19,1.16,4.3s-.35,2.21-1.06,3.29c-.71,1.08-1.55,1.96-2.53,2.63Zm-5.52-1.72c0,.2.02.42.05.66.27.91.89,1.37,1.87,1.37.41,0,.74-.07,1.01-.2-1.25-.78-1.92-2.04-2.03-3.8-.61.61-.91,1.26-.91,1.97Zm3.8,1.37c1.48-1.15,2.23-3,2.23-5.57,0-1.05-.12-2.48-.35-4.3s-.35-3.05-.35-3.7.02-1.08.05-1.32c-2.57,5.13-4.15,8.25-4.76,9.37.71,0,1.06.51,1.06,1.52,0,1.99.71,3.32,2.13,4Z"/>
          <path class="cls-3" d="m69.98,72.93c-2.6,0-4.2-1.06-4.76-3.15-.11-.48-.17-1.05-.17-1.7,0-.71.24-1.4.71-2.05.43-.58.9-.93,1.41-1.05,1.67-3.17,3.11-6.08,4.3-8.65,1.42-3.02,3.13-4.55,5.09-4.55.53,0,1.06.12,1.57.37.95.46.81,1.05.71,1.28-.12.28-.31.4-.45.45-.24.09-.52.06-.84-.08-.63-.28-1.02-.25-1.31-.11-1,.47-1.49,1.49-1.49,3.12,0,.88.12,1.61.37,2.16.27.6.57,1.26.91,1.96.8,1.81,1.2,3.32,1.2,4.48s-.38,2.38-1.13,3.52c-.52.79-1.12,1.49-1.78,2.07,1.15-.07,2.32-.82,3.49-2.22.68-.85,1.95-3.05,3.75-6.56.12-.29.39-.48.73-.48.24-.03.47.03.64.18.11.1.24.28.24.59,0,.13-.04.28-.27.76-.15.32-.29.63-.42.95-.14.33-.36.8-.67,1.42-.32.63-.58,1.12-.8,1.49-.22.37-.5.83-.84,1.38-.36.57-.72,1.03-1.09,1.36l-1.04,1.09c-.63.63-1.37,1.07-2.21,1.33-1.26.41-2.52.46-3.74.14-.77.32-1.48.48-2.1.48Zm-2.32-7.15h-.18c-.34.04-.69.29-1.03.75-.37.5-.55,1.01-.55,1.55,0,.59.05,1.1.14,1.5.45,1.68,1.74,2.51,3.94,2.51.54,0,1.19-.16,1.91-.47l.14-.06.1.03.85-.59c.93-.64,1.74-1.49,2.42-2.52.66-1,.99-2.03.99-3.06s-.38-2.44-1.13-4.13c-.34-.7-.64-1.36-.91-1.97-.29-.66-.44-1.5-.44-2.5,0-1.96.66-3.26,1.96-3.87.5-.25,1.15-.29,2.02.1.08.04.14.05.17.06-.04-.02-.12-.09-.3-.18-1.36-.65-2.77-.19-3.99,1.26l-.29,1.99c-.03.21-.05.63-.05,1.26s.12,1.85.35,3.64c.24,1.83.36,3.3.36,4.36,0,2.69-.8,4.68-2.39,5.9l-.21.16-.23-.11s0,0,0,0l.19.12-.68.34c-.33.16-.73.25-1.2.25-1.17,0-1.95-.58-2.28-1.67-.05-.32-.07-.56-.07-.78,0-.82.35-1.59,1.03-2.27l.63-.63c-.07-.83-.44-.83-.63-.83h-.71l.06-.12Zm4.6,5.84c.39.1.78.17,1.18.18-.09-.01-.19-.03-.29-.04l-.9-.14Zm-3.93-2.89c-.14.29-.21.58-.21.89,0,.18.02.38.05.6.21.69.69,1.02,1.5,1.01-.67-.64-1.12-1.47-1.33-2.49Zm.61-3.55c.44.2.85.69.85,1.81,0,1.71.54,2.86,1.65,3.5,1.23-1.07,1.86-2.78,1.86-5.07,0-1.02-.12-2.45-.35-4.25-.19-1.44-.3-2.5-.34-3.22-1.79,3.57-3.02,5.99-3.67,7.22Zm13.32-2.54c-1.76,3.48-2.99,5.63-3.73,6.59.31-.29.61-.67.91-1.15.33-.54.61-.99.83-1.36.21-.36.46-.83.77-1.44.3-.6.51-1.05.65-1.37.14-.33.28-.65.44-.98.06-.13.11-.23.13-.3Zm-9.17-7.53c-.29.46-.58.99-.86,1.58-.36.79-.75,1.61-1.17,2.46.49-.97,1.03-2.05,1.62-3.24l.4-.81Z"/>
        </g>
        <g>
          <path class="cls-3" d="m80.61,68.26c0-2.8,1.35-7.49,4.05-14.07h-2.63c-.17,0-.28-.09-.33-.28-.05-.19-.03-.37.05-.56.08-.19.21-.28.38-.28h3.04c1.21-2.67,2.34-4.89,3.39-6.68,1.05-1.79,2.01-3,2.89-3.62.88-.62,1.51-.94,1.9-.94s.67.03.84.1c.78.37,1.16,1.14,1.16,2.3s-.39,2.57-1.16,4.23c-.78,1.65-1.54,3.19-2.28,4.61h2.43c.17,0,.28.09.33.28.05.19.03.37-.05.56-.08.19-.21.28-.38.28h-2.94c-1.86,3.14-4.1,5.92-6.73,8.35l-1.16,5.16c-.1.44-.15.87-.15,1.29s.12.85.35,1.29c.24.44.61.66,1.11.66.57,0,1.22-.2,1.92-.61,1.62-1.22,3.41-3.76,5.37-7.64.13-.3.29-.49.48-.56.19-.07.29-.02.33.13.03.15-.02.4-.15.73-1.11,2.33-1.99,3.98-2.63,4.96-1.82,2.94-3.76,4.4-5.82,4.4-1.05,0-1.91-.39-2.58-1.16-.68-.78-1.01-1.75-1.01-2.94Zm9.52-14.07h-2.38c-.41.95-1.32,3.19-2.73,6.73,1.82-1.89,3.53-4.13,5.11-6.73Zm.66-1.11c2.23-3.98,3.34-6.75,3.34-8.3,0-.68-.12-1.01-.35-1.01-.37,0-.94.54-1.7,1.62-.76,1.08-2.03,3.64-3.82,7.7h2.53Z"/>
          <path class="cls-3" d="m84.2,72.78c-1.17,0-2.15-.44-2.9-1.31-.74-.85-1.12-1.93-1.12-3.21,0-2.8,1.26-7.27,3.84-13.65h-2.01c-.36,0-.64-.22-.74-.59-.08-.28-.05-.56.07-.84.15-.33.43-.53.76-.53h2.77c1.18-2.56,2.28-4.74,3.3-6.47,1.09-1.86,2.07-3.08,3.01-3.75.97-.69,1.65-1.01,2.14-1.01.44,0,.77.04.99.13.96.46,1.43,1.36,1.43,2.7,0,1.22-.41,2.71-1.2,4.41-.66,1.42-1.32,2.76-1.96,4.01h1.74c.36,0,.64.22.74.59.08.28.05.56-.07.84-.15.34-.43.53-.76.53h-2.7c-1.82,3.04-4.04,5.78-6.59,8.15l-1.14,5.04c-.09.41-.14.81-.14,1.2,0,.35.1.72.3,1.09.16.3.39.44.74.44.5,0,1.07-.19,1.71-.55,1.52-1.14,3.28-3.66,5.2-7.47.17-.39.42-.65.71-.76.22-.08.42-.08.59.02.15.08.26.23.3.41.05.25,0,.56-.17.98-1.13,2.36-2.02,4.04-2.67,5.04-1.89,3.05-3.97,4.59-6.17,4.59Zm-2.11-19.02h3.19l-.24.58c-2.67,6.5-4.02,11.18-4.02,13.91,0,1.09.3,1.96.91,2.66.6.69,1.34,1.02,2.26,1.02,1.89,0,3.73-1.41,5.46-4.2.3-.46.65-1.06,1.05-1.81-1.36,2.28-2.62,3.85-3.83,4.75-1.65.95-3.05.95-3.66-.19-.27-.5-.4-1-.4-1.49,0-.45.05-.92.16-1.39l1.17-5.19-.33.34.8-2c1.41-3.52,2.33-5.79,2.74-6.74l.11-.26h3.41l-.39.64c-1.6,2.61-3.34,4.9-5.17,6.81l-.27.28c2.26-2.22,4.24-4.74,5.88-7.52l.12-.21h3.18c.03-.11.05-.19.03-.27h-3.06l.32-.62c.73-1.4,1.5-2.95,2.27-4.59.75-1.59,1.12-2.95,1.12-4.05,0-1-.3-1.62-.92-1.92-.03,0-.2-.06-.65-.06-.13,0-.56.08-1.65.86-.83.59-1.76,1.76-2.77,3.49-1.03,1.76-2.17,4-3.37,6.64l-.11.25h-3.31c-.04.11-.05.19-.03.27Zm5.93.84c-.34.8-.92,2.22-1.73,4.25,1.07-1.28,2.1-2.7,3.07-4.25h-1.34Zm3.01-1.11h-3.43l.26-.59c1.82-4.11,3.08-6.65,3.86-7.77.89-1.26,1.5-1.8,2.04-1.8.78,0,.78,1.08.78,1.43,0,1.64-1.11,4.42-3.39,8.51l-.12.22Zm-2.13-.84h1.64c2.1-3.78,3.17-6.43,3.17-7.88,0-.28-.02-.45-.04-.54-.17.1-.55.41-1.24,1.39-.7,1-1.89,3.36-3.52,7.03Z"/>
        </g>
        <g>
          <path class="cls-3" d="m28.62,126.91c-.3,0-.61-.03-.91-.1-1.62-.3-2.43-1.74-2.43-4.3,0-4.15,2.09-11.22,6.28-21.21,1.62-3.78,2.82-7.46,3.59-11.04.3-1.38.46-2.49.46-3.32s-.03-1.48-.1-1.95c-.17-1.48-.73-2.51-1.67-3.09-1.69-.91-3.58-1.37-5.67-1.37s-4.51.54-6.94,1.62c-2.43,1.08-4.72,2.4-6.86,3.95-2.14,1.55-4.09,3.4-5.85,5.54-1.75,2.14-3.06,4.39-3.92,6.73-.86,2.35-1.29,4.46-1.29,6.35,0,.78.07,1.52.2,2.23.54,2.33,1.55,4.07,3.04,5.21,1.48,1.15,3.24,1.72,5.26,1.72,2.83,0,5.49-1.25,7.97-3.75,2.48-2.5,3.72-5.15,3.72-7.95,0-1.52-.3-2.61-.91-3.29-.61-.68-1.23-1.01-1.87-1.01s-1.28.09-1.92.28c-.64.19-.96.17-.96-.05s.39-.51,1.16-.86c.78-.35,1.59-.53,2.43-.53s1.62.25,2.33.76c1.32,1.01,1.97,2.55,1.97,4.61s-.78,4.13-2.35,6.2c-1.57,2.08-3.5,3.75-5.8,5.01-2.3,1.27-4.56,1.9-6.81,1.9s-4.33-.82-6.25-2.45c-1.92-1.64-3.21-3.84-3.85-6.61-.17-.81-.25-1.67-.25-2.58,0-2.13.52-4.44,1.57-6.94,1.05-2.5,2.56-4.82,4.53-6.96,1.97-2.14,4.11-3.93,6.4-5.37,2.3-1.43,4.72-2.62,7.29-3.57,2.56-.98,4.98-1.47,7.24-1.47s4.32.35,6.18,1.06c3.27,1.42,4.91,4.42,4.91,9.01,0,3.37-1.22,7.56-3.64,12.55-1.52,3.11-2.87,6.45-4.05,10.02-1.75,5.3-2.63,8.98-2.63,11.04,0,1.55.52,2.33,1.57,2.33,2.09,0,5.75-2.72,10.98-8.15,3.68-3.81,6.56-8,8.66-12.55,1.35-2.9,2.03-5.57,2.03-8,0-1.28-.1-2.18-.3-2.71-.2-.52-.34-.86-.41-1.01-.07-.15-.2-.29-.41-.41-.2-.12-.34-.18-.4-.18-.47-.13-.96-.24-1.47-.33-.51-.08-.8-.31-.89-.68-.08-.37.09-.59.53-.66l.96.1c1.55.44,2.9,1.54,4.05,3.29.64.98.96,2.15.96,3.52s-.32,2.98-.96,4.83c-1.55,4.12-3.95,8.18-7.19,12.17-3.24,4-6.44,7.06-9.59,9.19-3.16,2.13-5.73,3.19-7.72,3.19Z"/>
          <path class="cls-3" d="m28.62,127.33c-.33,0-.67-.04-1-.11-1.83-.34-2.76-1.93-2.76-4.71,0-4.19,2.12-11.38,6.31-21.37,1.6-3.74,2.8-7.42,3.57-10.96.3-1.35.45-2.43.45-3.23s-.03-1.44-.1-1.89c-.16-1.37-.64-2.28-1.47-2.79-3.29-1.77-7.61-1.77-12.22.28-2.39,1.06-4.68,2.38-6.78,3.9-2.1,1.52-4.04,3.36-5.77,5.47-1.72,2.1-3.01,4.32-3.85,6.61-.84,2.29-1.26,4.38-1.26,6.21,0,.75.07,1.47.2,2.15.51,2.2,1.48,3.88,2.88,4.96,1.4,1.08,3.09,1.63,5.01,1.63,2.71,0,5.29-1.22,7.67-3.62s3.6-4.98,3.6-7.65c0-1.4-.27-2.42-.8-3.01-.52-.58-1.05-.87-1.56-.87-.6,0-1.2.09-1.81.26-.66.19-1.03.19-1.27,0-.14-.11-.23-.28-.23-.46,0-.43.41-.79,1.41-1.24,1.68-.77,3.64-.83,5.18.27,1.43,1.1,2.15,2.76,2.15,4.95s-.82,4.32-2.44,6.46c-1.6,2.11-3.59,3.84-5.93,5.13-2.35,1.29-4.71,1.95-7.01,1.95s-4.53-.86-6.53-2.56c-1.99-1.69-3.33-3.99-3.99-6.83-.18-.85-.26-1.74-.26-2.68,0-2.17.54-4.56,1.6-7.1,1.06-2.53,2.61-4.91,4.61-7.08,1.99-2.16,4.17-3.99,6.49-5.44,2.31-1.44,4.79-2.66,7.37-3.61,5.19-1.98,9.92-1.85,13.71-.4,3.44,1.49,5.18,4.65,5.18,9.4,0,3.42-1.24,7.71-3.69,12.74-1.51,3.08-2.86,6.43-4.03,9.97-1.73,5.23-2.61,8.9-2.61,10.9s.83,1.91,1.15,1.91c1.96,0,5.56-2.7,10.68-8.02,3.63-3.76,6.51-7.95,8.58-12.44,1.32-2.83,1.99-5.47,1.99-7.82,0-1.22-.09-2.08-.28-2.56-.2-.51-.33-.84-.4-.99-.03-.07-.11-.14-.23-.21-.18-.11-.24-.12-.25-.13-.52-.14-1-.25-1.48-.33-.86-.14-1.14-.63-1.23-1.01-.08-.36.02-.6.11-.75.15-.22.41-.37.77-.42h.05s1.02.1,1.02.1c1.72.48,3.16,1.64,4.36,3.48.68,1.05,1.03,2.31,1.03,3.75s-.33,3.08-.98,4.97c-1.56,4.15-4.01,8.29-7.26,12.3-3.25,4.01-6.51,7.13-9.68,9.27-3.26,2.19-5.86,3.26-7.96,3.26Zm-.46-47.21c2.15,0,4.13.48,5.87,1.42,1.08.65,1.71,1.8,1.89,3.41.07.48.1,1.15.1,2s-.16,2-.47,3.41c-.78,3.59-2,7.33-3.62,11.11-4.14,9.89-6.24,16.97-6.24,21.04,0,2.35.68,3.63,2.09,3.89.29.06.56.09.83.09,1.89,0,4.41-1.05,7.49-3.12,3.11-2.09,6.3-5.16,9.5-9.1,3.2-3.95,5.59-8,7.12-12.06.62-1.79.93-3.37.93-4.69s-.3-2.38-.89-3.29c-1.09-1.66-2.37-2.71-3.81-3.12l-.83-.08c-.12.02-.15.06-.15.06h0s0,.03.01.08c.02.08.06.28.54.36.5.08,1,.19,1.48.33.14.02.3.09.54.23.28.16.48.37.58.6.07.15.21.5.41,1.03.22.58.33,1.51.33,2.86,0,2.48-.69,5.23-2.06,8.18-2.1,4.58-5.04,8.84-8.74,12.67-5.36,5.57-9.06,8.28-11.29,8.28-.91,0-1.99-.48-1.99-2.75,0-2.12.87-5.78,2.65-11.17,1.18-3.57,2.55-6.96,4.07-10.08,2.39-4.91,3.6-9.07,3.6-12.37,0-4.45-1.52-7.27-4.66-8.62-3.56-1.36-8.09-1.5-13.1.41-2.53.93-4.95,2.12-7.22,3.53-2.25,1.41-4.38,3.19-6.32,5.29-1.93,2.1-3.43,4.4-4.45,6.84-1.02,2.44-1.54,4.71-1.54,6.77,0,.88.08,1.72.24,2.5.62,2.66,1.86,4.8,3.71,6.37,1.84,1.56,3.85,2.35,5.98,2.35s4.38-.62,6.61-1.85c2.23-1.23,4.14-2.88,5.66-4.9,1.5-1.99,2.27-3.99,2.27-5.95s-.59-3.34-1.81-4.27c-1.27-.91-2.9-.83-4.31-.18.51-.11,1.03-.17,1.53-.17.76,0,1.5.39,2.19,1.15.69.76,1.02,1.93,1.02,3.57,0,2.9-1.29,5.68-3.84,8.25-2.55,2.57-5.33,3.87-8.27,3.87-2.11,0-3.97-.61-5.52-1.81-1.56-1.2-2.63-3.04-3.19-5.45-.14-.74-.21-1.52-.21-2.32,0-1.93.44-4.12,1.32-6.5.87-2.38,2.22-4.69,3.99-6.86,1.77-2.16,3.76-4.05,5.93-5.62,2.16-1.56,4.49-2.9,6.93-3.99,2.47-1.1,4.86-1.66,7.11-1.66Z"/>
        </g>
        <g>
          <path class="cls-3" d="m55.09,120.93c.64,0,1.32-.32,2.03-.96,1.25-1.25,2.83-3.8,4.76-7.64.24-.51.47-.66.71-.46.07.07.1.18.1.33s-.14.52-.41,1.11c-.27.59-.51,1.12-.73,1.6-.22.47-.64,1.24-1.27,2.3-.63,1.06-1.19,1.88-1.7,2.46-1.38,1.59-2.69,2.38-3.92,2.38s-2.12-.37-2.66-1.11c-.54-.74-.81-1.57-.81-2.48s.22-1.91.66-2.99l3.24-8.25c.07-.2.1-.47.1-.81s-.2-.78-.61-1.32l2.78-.05c.78,0,1.23.14,1.37.43.13.29.03.73-.3,1.34l-4.05,9.47c-.57,1.25-.86,2.31-.86,3.19,0,.98.52,1.47,1.57,1.47Zm4.96-18.58c-.47.4-1,.61-1.57.61s-1.03-.2-1.37-.61c-.34-.41-.47-.89-.41-1.47.1-.57.39-1.06.86-1.47.47-.4,1-.61,1.57-.61s1.04.2,1.39.61c.35.41.48.9.38,1.47-.1.57-.39,1.06-.86,1.47Z"/>
          <path class="cls-3" d="m54.66,122.47c-1.37,0-2.38-.43-3-1.29-.59-.81-.89-1.73-.89-2.73s.23-2.02.69-3.15l3.24-8.25c.05-.14.07-.37.07-.66,0-.14-.07-.46-.52-1.06l-.49-.66,3.61-.07h0c.62,0,1.47.07,1.75.67.2.42.09.99-.32,1.73l-4.03,9.43c-.55,1.2-.83,2.21-.83,3.02,0,.74.33,1.05,1.15,1.05.53,0,1.12-.29,1.74-.85,1.19-1.2,2.77-3.73,4.66-7.52.13-.28.36-.68.74-.76.21-.05.43.01.62.17.17.17.25.38.25.65,0,.17-.05.44-.44,1.29-.27.59-.51,1.12-.73,1.6-.23.49-.66,1.27-1.29,2.34-.64,1.08-1.22,1.93-1.74,2.52-1.46,1.67-2.89,2.52-4.24,2.52Zm.69-16.97c.18.34.27.64.27.91,0,.39-.04.7-.12.94l-3.25,8.27c-.42,1.03-.63,1.98-.63,2.83s.24,1.56.73,2.23c.46.63,1.22.94,2.32.94s2.31-.75,3.61-2.24c.49-.55,1.04-1.36,1.65-2.39.61-1.04,1.03-1.81,1.25-2.27.13-.27.26-.56.4-.87-1.65,3.17-3.01,5.27-4.15,6.41-.8.72-1.58,1.09-2.32,1.09-1.28,0-1.99-.67-1.99-1.89,0-.94.3-2.07.9-3.37l4.04-9.46c.4-.73.33-.96.31-1,0,0-.13-.19-.98-.19l-2.02.04Zm3.13-2.11c-.7,0-1.27-.26-1.69-.76-.41-.5-.58-1.1-.5-1.79.12-.69.46-1.27,1-1.74.55-.47,1.17-.71,1.84-.71s1.27.25,1.71.75c.44.5.6,1.12.48,1.82-.12.67-.45,1.25-1,1.72h0c-.55.47-1.17.71-1.84.71Zm.66-4.15c-.47,0-.9.17-1.3.51-.4.34-.63.74-.72,1.22-.05.43.05.81.31,1.12.26.31.6.46,1.04.46.47,0,.9-.17,1.29-.51h0c.4-.34.64-.74.72-1.22.08-.45-.01-.81-.28-1.12-.27-.31-.62-.46-1.07-.46Z"/>
        </g>
        <g>
          <path class="cls-3" d="m66.23,121.08c.44.07.74.1.91.1,1.35,0,2.68-.79,4-2.38.71-.88,1.97-3.09,3.8-6.63.07-.17.19-.25.35-.25.3-.03.46.08.46.35,0,.07-.08.26-.23.58-.15.32-.3.64-.43.96-.14.32-.35.78-.66,1.39-.3.61-.56,1.1-.78,1.47-.22.37-.5.83-.84,1.37-.34.54-.68.96-1.01,1.27l-1.06,1.11c-.57.57-1.25.98-2.03,1.21-1.25.41-2.46.44-3.64.1-.78.34-1.47.51-2.08.51-2.4,0-3.85-.94-4.35-2.84-.1-.44-.15-.97-.15-1.59s.21-1.22.63-1.8c.42-.57.87-.88,1.34-.91,1.72-3.27,3.19-6.23,4.4-8.86,1.35-2.87,2.92-4.3,4.71-4.3.47,0,.94.11,1.39.33.46.22.62.46.51.73-.12.27-.36.32-.73.15-.37-.17-.69-.25-.96-.25s-.51.05-.71.15c-1.15.54-1.72,1.7-1.72,3.49,0,.95.14,1.72.41,2.33.27.61.57,1.27.91,1.97.78,1.75,1.16,3.19,1.16,4.3s-.35,2.21-1.06,3.29c-.71,1.08-1.55,1.96-2.53,2.63Zm-5.52-1.72c0,.2.02.42.05.66.27.91.89,1.37,1.87,1.37.41,0,.74-.07,1.01-.2-1.25-.78-1.92-2.04-2.03-3.8-.61.61-.91,1.26-.91,1.97Zm3.8,1.37c1.48-1.15,2.23-3,2.23-5.57,0-1.05-.12-2.48-.35-4.3s-.35-3.05-.35-3.7.02-1.08.05-1.32c-2.57,5.13-4.15,8.25-4.76,9.37.71,0,1.06.51,1.06,1.52,0,1.99.71,3.32,2.13,4Z"/>
          <path class="cls-3" d="m62.99,122.67c-2.6,0-4.2-1.06-4.76-3.15-.11-.48-.17-1.05-.17-1.7,0-.71.24-1.4.71-2.05.43-.58.9-.93,1.41-1.05,1.67-3.17,3.11-6.08,4.3-8.65,1.42-3.02,3.13-4.55,5.09-4.55.53,0,1.06.12,1.57.37.95.46.81,1.05.71,1.28-.12.28-.31.4-.45.45-.24.09-.52.06-.84-.08-.63-.28-1.02-.25-1.31-.11-1,.47-1.49,1.49-1.49,3.12,0,.88.12,1.61.37,2.16.27.6.57,1.26.91,1.96.8,1.81,1.2,3.32,1.2,4.48s-.38,2.38-1.13,3.52c-.52.79-1.12,1.49-1.78,2.07,1.15-.07,2.32-.82,3.49-2.22.68-.85,1.95-3.05,3.75-6.56.12-.29.39-.48.73-.48.24-.03.47.03.64.18.11.1.24.28.24.59,0,.13-.04.28-.27.76-.15.32-.29.63-.42.95-.14.33-.36.8-.67,1.42-.32.63-.58,1.12-.8,1.49-.22.37-.5.83-.84,1.38-.36.57-.72,1.03-1.09,1.36l-1.04,1.09c-.63.63-1.37,1.07-2.21,1.33-1.26.41-2.52.46-3.74.14-.77.32-1.48.48-2.1.48Zm-2.32-7.15h-.18c-.34.04-.69.29-1.03.75-.37.5-.55,1.01-.55,1.55,0,.59.05,1.1.14,1.5.45,1.68,1.74,2.51,3.94,2.51.54,0,1.19-.16,1.91-.47l.14-.06.1.03.85-.59c.93-.64,1.74-1.49,2.42-2.52.66-1,.99-2.03.99-3.06s-.38-2.44-1.13-4.13c-.34-.7-.64-1.36-.91-1.97-.29-.66-.44-1.5-.44-2.5,0-1.96.66-3.26,1.96-3.87.5-.25,1.15-.29,2.02.1.08.04.14.05.17.06-.04-.02-.12-.09-.3-.18-1.35-.65-2.77-.19-3.99,1.26l-.29,1.99c-.03.21-.05.63-.05,1.26s.12,1.85.35,3.64c.24,1.83.36,3.3.36,4.36,0,2.69-.8,4.68-2.39,5.9l-.21.16-.23-.11s0,0,0,0l.19.12-.68.34c-.33.16-.73.25-1.2.25-1.17,0-1.95-.58-2.28-1.67-.05-.32-.07-.56-.07-.78,0-.82.35-1.59,1.03-2.27l.63-.63c-.07-.83-.44-.83-.63-.83h-.71l.06-.12Zm4.6,5.84c.39.1.78.17,1.18.18-.09-.01-.19-.03-.29-.04l-.9-.14Zm-3.93-2.89c-.14.29-.21.58-.21.89,0,.18.02.38.05.6.21.69.66,1.01,1.5,1.01-.67-.64-1.12-1.47-1.33-2.49Zm.61-3.55c.44.2.85.69.85,1.81,0,1.71.54,2.86,1.65,3.5,1.23-1.07,1.86-2.78,1.86-5.07,0-1.02-.12-2.45-.35-4.25-.19-1.44-.3-2.5-.34-3.22-1.79,3.57-3.02,5.99-3.67,7.22Zm13.32-2.54c-1.76,3.48-2.99,5.63-3.73,6.59.31-.29.61-.67.91-1.15.33-.54.61-.99.83-1.36.21-.36.46-.83.77-1.44.3-.6.51-1.05.65-1.37.14-.33.28-.65.44-.98.06-.13.11-.23.13-.3Zm-9.17-7.53c-.29.46-.58.99-.86,1.58-.36.79-.75,1.61-1.17,2.46.49-.97,1.03-2.05,1.62-3.24l.4-.81Z"/>
        </g>
        <g>
          <path class="cls-3" d="m76.86,120.93c.64,0,1.32-.32,2.03-.96,1.25-1.25,2.83-3.8,4.76-7.64.24-.51.47-.66.71-.46.07.07.1.18.1.33s-.14.52-.41,1.11c-.27.59-.51,1.12-.73,1.6-.22.47-.64,1.24-1.27,2.3-.63,1.06-1.19,1.88-1.7,2.46-1.38,1.59-2.69,2.38-3.92,2.38s-2.12-.37-2.66-1.11c-.54-.74-.81-1.57-.81-2.48s.22-1.91.66-2.99l3.24-8.25c.07-.2.1-.47.1-.81s-.2-.78-.61-1.32l2.78-.05c.78,0,1.23.14,1.37.43.13.29.03.73-.3,1.34l-4.05,9.47c-.57,1.25-.86,2.31-.86,3.19,0,.98.52,1.47,1.57,1.47Zm4.96-18.58c-.47.4-1,.61-1.57.61s-1.03-.2-1.37-.61c-.34-.41-.47-.89-.41-1.47.1-.57.39-1.06.86-1.47.47-.4,1-.61,1.57-.61s1.04.2,1.39.61c.35.41.48.9.38,1.47-.1.57-.39,1.06-.86,1.47Z"/>
          <path class="cls-3" d="m76.43,122.47c-1.37,0-2.38-.43-3-1.29-.59-.81-.89-1.73-.89-2.73s.23-2.02.69-3.15l3.24-8.25c.05-.14.07-.37.07-.66,0-.14-.07-.46-.52-1.06l-.49-.66,3.61-.07h0c.62,0,1.47.07,1.75.67.2.42.09.99-.32,1.73l-4.03,9.43c-.55,1.2-.83,2.21-.83,3.02,0,.74.33,1.05,1.15,1.05.53,0,1.12-.29,1.74-.85,1.19-1.2,2.77-3.73,4.66-7.52.13-.28.36-.68.74-.76.21-.05.43.01.62.17.17.17.25.38.25.65,0,.17-.05.44-.44,1.29-.27.59-.51,1.12-.73,1.6-.23.49-.66,1.27-1.29,2.34-.64,1.08-1.22,1.93-1.74,2.52-1.46,1.67-2.89,2.52-4.24,2.52Zm.69-16.97c.18.34.27.64.27.91,0,.39-.04.7-.12.94l-3.25,8.27c-.42,1.03-.63,1.98-.63,2.83s.24,1.56.73,2.23c.46.63,1.22.94,2.32.94s2.31-.75,3.61-2.24c.49-.55,1.04-1.36,1.65-2.39.61-1.04,1.03-1.81,1.25-2.27.13-.27.26-.56.4-.87-1.65,3.17-3.01,5.27-4.15,6.41-.8.72-1.58,1.09-2.32,1.09-1.28,0-1.99-.67-1.99-1.89,0-.94.3-2.07.9-3.37l4.04-9.46c.4-.73.33-.96.31-1,0,0-.13-.19-.98-.19l-2.02.04Zm3.13-2.11c-.7,0-1.27-.26-1.69-.76-.41-.5-.58-1.1-.5-1.79.12-.69.46-1.27,1-1.74.55-.47,1.17-.71,1.84-.71s1.27.25,1.71.75c.44.5.6,1.12.48,1.82-.12.67-.45,1.25-1,1.72h0c-.55.47-1.17.71-1.84.71Zm.66-4.15c-.47,0-.9.17-1.3.51-.4.34-.63.74-.72,1.22-.05.43.05.81.31,1.12.26.31.6.46,1.04.46.47,0,.9-.17,1.29-.51h0c.4-.34.64-.74.72-1.22.08-.45-.01-.81-.28-1.12-.27-.31-.62-.46-1.07-.46Z"/>
        </g>
        <g>
          <path class="cls-3" d="m82.43,118c0-2.8,1.35-7.49,4.05-14.07h-2.63c-.17,0-.28-.09-.33-.28-.05-.19-.03-.37.05-.56.08-.19.21-.28.38-.28h3.04c1.21-2.67,2.34-4.89,3.39-6.68,1.05-1.79,2.01-3,2.89-3.62.88-.62,1.51-.94,1.9-.94s.67.03.84.1c.78.37,1.16,1.14,1.16,2.3s-.39,2.57-1.16,4.23c-.78,1.65-1.54,3.19-2.28,4.61h2.43c.17,0,.28.09.33.28.05.19.03.37-.05.56-.08.19-.21.28-.38.28h-2.94c-1.86,3.14-4.1,5.92-6.73,8.35l-1.16,5.16c-.1.44-.15.87-.15,1.29s.12.85.35,1.29c.24.44.61.66,1.11.66.57,0,1.22-.2,1.92-.61,1.62-1.22,3.41-3.76,5.37-7.64.13-.3.29-.49.48-.56.19-.07.29-.02.33.13.03.15-.02.4-.15.73-1.11,2.33-1.99,3.98-2.63,4.96-1.82,2.94-3.76,4.4-5.82,4.4-1.05,0-1.91-.39-2.58-1.16-.68-.78-1.01-1.75-1.01-2.94Zm9.52-14.07h-2.38c-.41.95-1.32,3.19-2.73,6.73,1.82-1.89,3.53-4.13,5.11-6.73Zm.66-1.11c2.23-3.98,3.34-6.75,3.34-8.3,0-.68-.12-1.01-.35-1.01-.37,0-.94.54-1.7,1.62-.76,1.08-2.03,3.64-3.82,7.7h2.53Z"/>
          <path class="cls-3" d="m86.02,122.52c-1.17,0-2.15-.44-2.9-1.31-.74-.85-1.12-1.93-1.12-3.21,0-2.8,1.26-7.27,3.84-13.65h-2.01c-.36,0-.64-.22-.74-.59-.08-.28-.05-.56.07-.84.15-.33.43-.53.76-.53h2.77c1.18-2.56,2.28-4.74,3.3-6.47,1.09-1.86,2.07-3.08,3.01-3.75.97-.69,1.65-1.01,2.14-1.01.44,0,.77.04.99.13.96.46,1.43,1.36,1.43,2.7,0,1.22-.41,2.71-1.2,4.41-.66,1.42-1.32,2.76-1.96,4.01h1.74c.36,0,.64.22.74.59.08.28.05.56-.07.84-.15.34-.43.53-.76.53h-2.7c-1.82,3.04-4.04,5.78-6.59,8.15l-1.14,5.04c-.09.41-.14.81-.14,1.2,0,.35.1.72.3,1.09.16.3.39.44.74.44.5,0,1.07-.19,1.71-.55,1.52-1.14,3.28-3.66,5.2-7.47.17-.39.42-.65.71-.76.22-.08.42-.08.59.02.15.08.26.23.3.41.05.25,0,.56-.17.98-1.13,2.36-2.02,4.04-2.67,5.03-1.89,3.05-3.97,4.6-6.17,4.6Zm-2.11-19.02h3.19l-.24.58c-2.67,6.5-4.02,11.18-4.02,13.91,0,1.09.3,1.96.91,2.66.6.69,1.34,1.02,2.26,1.02,1.89,0,3.73-1.41,5.46-4.2.3-.46.65-1.06,1.05-1.81-1.36,2.28-2.62,3.85-3.83,4.75-1.65.95-3.05.95-3.66-.19-.27-.5-.4-1-.4-1.49,0-.45.05-.92.16-1.39l1.17-5.19-.33.34.8-2c1.41-3.52,2.33-5.79,2.74-6.74l.11-.26h3.41l-.39.64c-1.6,2.61-3.34,4.9-5.17,6.81l-.27.28c2.26-2.22,4.24-4.74,5.88-7.52l.12-.21h3.18c.03-.11.05-.19.03-.27h-3.06l.32-.62c.73-1.4,1.5-2.95,2.27-4.59.75-1.59,1.12-2.95,1.12-4.05,0-1-.3-1.62-.92-1.92-.03,0-.2-.06-.65-.06-.13,0-.56.08-1.65.86-.83.59-1.76,1.76-2.77,3.49-1.03,1.76-2.17,4-3.37,6.64l-.11.25h-3.31c-.04.11-.05.19-.03.27Zm5.93.84c-.34.8-.92,2.22-1.73,4.25,1.07-1.28,2.1-2.7,3.07-4.25h-1.34Zm3.01-1.11h-3.43l.26-.59c1.82-4.11,3.08-6.65,3.86-7.77.89-1.26,1.5-1.8,2.04-1.8.78,0,.78,1.08.78,1.43,0,1.64-1.11,4.42-3.39,8.51l-.12.22Zm-2.13-.84h1.64c2.1-3.78,3.17-6.43,3.17-7.88,0-.28-.02-.45-.04-.54-.17.1-.55.41-1.24,1.39-.7,1-1.89,3.36-3.52,7.03Z"/>
        </g>
        <g>
          <path class="cls-3" d="m95.79,120.93c.64,0,1.32-.32,2.03-.96,1.25-1.25,2.83-3.8,4.76-7.64.24-.51.47-.66.71-.46.07.07.1.18.1.33s-.14.52-.41,1.11c-.27.59-.51,1.12-.73,1.6-.22.47-.64,1.24-1.27,2.3-.63,1.06-1.19,1.88-1.7,2.46-1.38,1.59-2.69,2.38-3.92,2.38s-2.12-.37-2.66-1.11c-.54-.74-.81-1.57-.81-2.48s.22-1.91.66-2.99l3.24-8.25c.07-.2.1-.47.1-.81s-.2-.78-.61-1.32l2.78-.05c.78,0,1.23.14,1.37.43.13.29.03.73-.3,1.34l-4.05,9.47c-.57,1.25-.86,2.31-.86,3.19,0,.98.52,1.47,1.57,1.47Zm4.96-18.58c-.47.4-1,.61-1.57.61s-1.03-.2-1.37-.61c-.34-.41-.47-.89-.41-1.47.1-.57.39-1.06.86-1.47.47-.4,1-.61,1.57-.61s1.04.2,1.39.61c.35.41.48.9.38,1.47-.1.57-.39,1.06-.86,1.47Z"/>
          <path class="cls-3" d="m95.36,122.47c-1.37,0-2.38-.43-3-1.29-.59-.81-.89-1.73-.89-2.73s.23-2.02.69-3.15l3.24-8.25c.05-.14.07-.37.07-.66,0-.14-.07-.46-.52-1.06l-.49-.66,3.61-.07h0c.62,0,1.47.07,1.75.67.2.42.09.99-.32,1.73l-4.03,9.43c-.55,1.2-.83,2.21-.83,3.02,0,.74.33,1.05,1.15,1.05.53,0,1.12-.29,1.74-.85,1.19-1.2,2.77-3.73,4.66-7.52.13-.28.36-.68.74-.76.21-.05.43.01.62.17.17.17.25.38.25.65,0,.17-.05.44-.44,1.29-.27.59-.51,1.12-.73,1.6-.23.49-.66,1.27-1.29,2.34-.64,1.08-1.22,1.93-1.74,2.52-1.46,1.67-2.89,2.52-4.24,2.52Zm.69-16.97c.18.34.27.64.27.91,0,.39-.04.7-.12.94l-3.25,8.27c-.42,1.03-.63,1.98-.63,2.83s.24,1.56.73,2.23c.46.63,1.22.94,2.32.94s2.31-.75,3.61-2.24c.49-.55,1.04-1.36,1.65-2.39.61-1.04,1.03-1.81,1.25-2.27.13-.27.26-.56.4-.87-1.65,3.17-3.01,5.27-4.15,6.41-.8.72-1.58,1.09-2.32,1.09-1.28,0-1.99-.67-1.99-1.89,0-.94.3-2.07.9-3.37l4.04-9.46c.4-.73.33-.96.31-1,0,0-.13-.19-.98-.19l-2.02.04Zm3.13-2.11c-.7,0-1.27-.26-1.69-.76-.41-.5-.58-1.1-.5-1.79.12-.69.46-1.27,1-1.74.55-.47,1.17-.71,1.84-.71s1.27.25,1.71.75c.44.5.6,1.12.48,1.82-.12.67-.45,1.25-1,1.72h0c-.55.47-1.17.71-1.84.71Zm.66-4.15c-.47,0-.9.17-1.3.51-.4.34-.63.74-.72,1.22-.05.43.05.81.31,1.12.26.31.6.46,1.04.46.47,0,.9-.17,1.29-.51h0c.4-.34.64-.74.72-1.22.08-.45-.01-.81-.28-1.12-.27-.31-.62-.46-1.07-.46Z"/>
        </g>
        <g>
          <path class="cls-3" d="m117.92,105.44c-4.15,7.29-6.23,12.05-6.23,14.28,0,.88.32,1.32.96,1.32,1.72,0,4.03-2.92,6.94-8.76.2-.47.41-.66.61-.56.2.1.3.24.3.41s-.07.37-.2.61c-1.79,3.61-3.3,6.1-4.53,7.47-1.23,1.37-2.46,2.05-3.7,2.05s-2.17-.47-2.81-1.42c-.34-.44-.51-1.04-.51-1.8s.17-1.68.51-2.76c.34-1.08,1.26-2.83,2.78-5.26.37-.61.56-1.09.56-1.44s-.29-.53-.86-.53-1.67.76-3.29,2.28c-2.43,2.23-4.78,5.57-7.04,10.02-.2.34-.43.55-.68.63-.25.08-.75.14-1.49.18-.74.03-1.23.12-1.47.25.54-1.08,1.6-3.29,3.19-6.63,2.84-5.91,4.69-9.28,5.57-10.13.41-.4.96-.61,1.67-.61.13,0,.48.05,1.04.15s.97.12,1.24.05c-1.25.68-3.29,3.85-6.13,9.52,1.59-1.96,3.03-3.52,4.33-4.68,1.3-1.16,2.86-2.24,4.68-3.24,1.82-.99,3.15-1.49,4-1.49.2,0,.39.03.56.1Z"/>
          <path class="cls-3" d="m96.77,123.46l.62-1.25c.54-1.08,1.61-3.31,3.18-6.62,2.89-6.01,4.74-9.36,5.66-10.25.48-.48,1.14-.72,1.96-.72.1,0,.33.02,1.11.16.61.11.92.09,1.06.06l3.24-.81-2.94,1.59c-.66.36-1.93,1.77-4.3,6.15.71-.76,1.38-1.43,2.02-2,1.32-1.18,2.92-2.29,4.76-3.3,1.9-1.04,3.28-1.55,4.2-1.55.25,0,.49.04.71.13l.45.18-.24.42c-4.1,7.19-6.17,11.93-6.17,14.07,0,.9.35.9.54.9,1.06,0,3.06-1.48,6.56-8.52.18-.43.39-.68.65-.78.17-.06.35-.05.52.03.47.23.54.59.54.78,0,.25-.08.51-.26.82-1.78,3.61-3.33,6.15-4.58,7.54-1.31,1.45-2.66,2.19-4.01,2.19s-2.44-.54-3.16-1.6c-.38-.49-.58-1.18-.58-2.03,0-.8.18-1.77.53-2.88.35-1.12,1.28-2.88,2.83-5.36.41-.67.49-1.03.49-1.22,0-.03-.08-.11-.44-.11-.21,0-.92.21-3,2.16-2.38,2.19-4.72,5.52-6.95,9.91-.27.45-.58.73-.93.84-.3.1-.81.16-1.61.2-.91.04-1.2.15-1.28.2l-1.21.69Zm14.97-14.84c1.16,0,1.28.67,1.28.95,0,.44-.2.98-.62,1.66-1.5,2.39-2.42,4.13-2.74,5.17-.32,1.03-.49,1.92-.49,2.63,0,.66.14,1.18.42,1.54.58.85,1.38,1.25,2.48,1.25s2.24-.64,3.38-1.91c1.05-1.16,2.32-3.2,3.8-6.06-2.71,5.18-4.82,7.6-6.6,7.6-.42,0-1.38-.17-1.38-1.74,0-2.27,1.96-6.83,5.98-13.95-.78.04-2.01.53-3.69,1.44-.97.53-1.87,1.09-2.7,1.67.41-.21.68-.26.88-.26Zm-3.54-3.16c-.6,0-1.05.16-1.37.48-.84.81-2.69,4.17-5.49,10.01-1.25,2.64-2.19,4.59-2.79,5.82.2-.02.42-.04.67-.05.92-.04,1.26-.12,1.38-.16.15-.05.31-.21.45-.45,1.2-2.36,2.44-4.44,3.7-6.19-.03.03-.05.06-.08.1l-2.43,3,1.73-3.45c2.3-4.6,4.07-7.55,5.38-8.93-.06,0-.12-.02-.19-.03-.74-.13-.92-.14-.96-.14Zm11.81,6.9s-.01.03-.02.04c0-.01.01-.03.02-.04Z"/>
        </g>
        <g>
          <path class="cls-3" d="m116.09,138.04c-3.17,0-4.76-1.3-4.76-3.9,0-2.16,1.47-4.1,4.4-5.82,2.5-1.45,5.69-2.82,9.57-4.1,1.79-.57,3.09-1.03,3.9-1.37.88-2.56,1.32-5.37,1.32-8.4,0-.61-.03-1.06-.1-1.37-.95,1.92-2.24,3.9-3.9,5.92-1.96,2.43-3.9,3.37-5.82,2.83-1.75-.74-2.63-2.19-2.63-4.35,0-2.9,1.45-6.09,4.35-9.57,1.59-1.89,3.44-3.09,5.57-3.59.57-.17,1.15-.25,1.72-.25,1.52,0,3,.51,4.46,1.52.54.44.81.81.81,1.11s-.1.6-.3.89c-.2.29-.41.32-.63.1-.22-.22-.36-.43-.43-.63-.44-1.25-1.15-1.87-2.13-1.87-1.79,0-3.8,1.25-6.02,3.75-1.25,1.42-2.33,2.94-3.24,4.56-1.11,2.03-1.67,3.59-1.67,4.68s.34,1.83,1.01,2.2c.24.1.47.15.71.15.78,0,1.75-.53,2.91-1.59,1.16-1.06,2.24-2.41,3.24-4.05.99-1.64,1.63-2.91,1.9-3.82.27-.91.6-1.48.99-1.72s.82-.37,1.29-.41c.47-.03.79-.12.96-.25.27,1.52.41,3.3.41,5.34s-.35,4.36-1.06,6.96c1.55-1.11,2.66-2.11,3.32-2.99.66-.88,1.18-1.67,1.57-2.38.39-.71.73-1.41,1.04-2.1.3-.69.51-1.14.61-1.34s.27-.33.51-.38c.24-.05.35.06.35.33,0,.17-.05.37-.15.61-1.49,3.07-2.73,5.29-3.72,6.66-1,1.37-2.35,2.45-4.07,3.27-.81,2.29-1.98,4.57-3.52,6.83-1.54,2.26-3.47,4.25-5.8,5.97s-4.64,2.58-6.94,2.58Zm-3.7-2.94c0,1.28.83,1.92,2.48,1.92.98,0,2.08-.29,3.32-.86,1.23-.57,2.25-1.16,3.06-1.77,1.38-1.11,2.9-2.77,4.56-4.96,1.25-1.76,2.21-3.46,2.89-5.11l-1.77.61c-5.26,1.82-8.98,3.44-11.14,4.86-1.59,1.05-2.63,2.38-3.14,4-.17.51-.25.94-.25,1.32Z"/>
          <path class="cls-3" d="m116.09,138.46c-4.28,0-5.18-2.35-5.18-4.32,0-2.31,1.55-4.39,4.61-6.19,2.51-1.46,5.76-2.85,9.65-4.14,1.65-.53,2.89-.96,3.69-1.28.8-2.42,1.22-5.09,1.23-7.95-.87,1.53-1.96,3.1-3.25,4.69-2.06,2.56-4.17,3.56-6.26,2.97-1.97-.83-2.94-2.42-2.94-4.76,0-2.99,1.5-6.3,4.45-9.84,1.64-1.95,3.59-3.21,5.79-3.73.59-.17,1.21-.26,1.82-.26,1.6,0,3.18.54,4.7,1.59.68.55.99,1.01.99,1.46,0,.39-.13.77-.38,1.13-.18.26-.4.4-.64.42-.13,0-.3,0-.49-.14l.09.49c.27,1.54.41,3.36.41,5.41,0,1.76-.26,3.74-.78,5.91,1.02-.8,1.79-1.53,2.27-2.18.64-.86,1.16-1.64,1.54-2.33.38-.7.73-1.4,1.02-2.07.31-.7.51-1.16.62-1.36.16-.32.43-.53.79-.6.3-.06.5.03.61.12.17.14.26.35.26.62,0,.23-.06.48-.19.77-1.5,3.1-2.76,5.36-3.77,6.74-1,1.38-2.37,2.49-4.08,3.32-.82,2.26-2,4.54-3.51,6.77-1.56,2.29-3.54,4.34-5.89,6.08-2.39,1.77-4.81,2.66-7.19,2.66Zm-1.94-1.06c.55.14,1.19.21,1.94.21,2.19,0,4.44-.84,6.69-2.5,2.28-1.68,4.19-3.66,5.7-5.87,1.51-2.22,2.68-4.49,3.47-6.74l.06-.17.16-.07c1.65-.78,2.96-1.83,3.91-3.13.41-.56.87-1.29,1.37-2.16-.27.4-.56.83-.9,1.27-.68.91-1.83,1.94-3.41,3.08l-.97.69.31-1.15c.7-2.55,1.05-4.86,1.05-6.85,0-1.78-.11-3.37-.31-4.75-.17.04-.37.07-.6.08-.4.03-.77.14-1.1.34-.17.1-.49.43-.8,1.48-.28.94-.93,2.26-1.94,3.92-1.01,1.66-2.13,3.06-3.32,4.14-1.67,1.52-2.91,2.02-4.07,1.52-.85-.47-1.27-1.33-1.27-2.59,0-1.18.56-2.78,1.72-4.89.92-1.64,2.03-3.2,3.29-4.63,2.36-2.65,4.47-3.93,6.41-3.89-1.13-.33-2.3-.37-3.44-.04-2.05.49-3.85,1.65-5.37,3.46-2.82,3.38-4.25,6.51-4.25,9.3,0,1.99.78,3.29,2.37,3.96,1.71.48,3.47-.4,5.33-2.71,1.63-1.99,2.92-3.96,3.85-5.84l.53-1.08.26,1.18c.07.34.11.82.11,1.46,0,3.07-.45,5.94-1.34,8.54l-.06.18-.18.07c-.82.34-2.14.8-3.93,1.38-3.83,1.27-7.02,2.63-9.48,4.06-2.78,1.63-4.19,3.47-4.19,5.46,0,.63.1,1.16.29,1.61-.05-.22-.07-.44-.07-.65,0-.42.09-.89.27-1.45.53-1.7,1.65-3.12,3.31-4.22,2.18-1.43,5.96-3.08,11.23-4.91l2.65-.91-.35.86c-.68,1.67-1.67,3.42-2.93,5.2-1.68,2.22-3.23,3.92-4.64,5.04-.84.63-1.89,1.24-3.15,1.83-1.28.6-2.46.9-3.49.9-.26,0-.5-.02-.72-.04Zm13.77-12.37l-.86.3c-5.21,1.8-8.92,3.42-11.04,4.81-1.49.99-2.49,2.25-2.97,3.77-.16.47-.23.87-.23,1.19,0,.7.23,1.5,2.06,1.5.91,0,1.97-.28,3.14-.82,1.2-.56,2.21-1.14,2.99-1.73,1.34-1.08,2.85-2.72,4.47-4.88,1-1.41,1.82-2.8,2.45-4.15Zm3.56-19.42c-1.66,0-3.58,1.21-5.71,3.61-1.22,1.39-2.29,2.89-3.19,4.48-1.07,1.95-1.62,3.46-1.62,4.48,0,.94.26,1.54.79,1.83.15.06.33.1.51.1.46,0,1.28-.26,2.63-1.48,1.13-1.03,2.19-2.36,3.16-3.96.97-1.6,1.59-2.85,1.85-3.72.3-1.02.69-1.67,1.17-1.96.44-.27.94-.43,1.48-.47.55-.04.7-.14.73-.16l.45-.36h0c-.26-.27-.44-.53-.53-.8-.37-1.06-.94-1.58-1.73-1.58Zm8.36,6.7s-.03.04-.04.06c-.09.19-.27.58-.53,1.18.16-.32.32-.65.49-.99.04-.09.07-.17.08-.24Zm-6.72-6.87c.34.33.64.8.89,1.49.05.14.15.29.31.45,0,0,0-.01.02-.02.15-.22.23-.43.23-.64,0-.03-.02-.27-.65-.79-.26-.18-.52-.34-.78-.49Z"/>
        </g>
        <g>
          <path class="cls-3" d="m68.03,145.41c1.64-3.64,3.08-6.4,4.33-8.28,1.25-1.87,2.42-3,3.52-3.39,1.1-.39,1.84-.58,2.23-.58s.58.05.58.15-.22.26-.66.48c-.44.22-1.19,1.11-2.25,2.66-1.06,1.55-2.4,3.93-4.02,7.14-1.62,3.21-3.04,6.6-4.25,10.18,2.06,0,3.37-.1,3.92-.3s.89-.24,1.01-.1c.12.14-.04.35-.48.66-1.11.78-2.75,1.23-4.91,1.37-.03.07-.3.88-.81,2.43-1.69,5.23-2.53,8.89-2.53,10.98,0,1.18.21,2.01.63,2.48.42.47.87.71,1.34.71s1-.2,1.57-.61c1.92-1.42,4.03-4.47,6.33-9.16.27-.57.53-.81.78-.71.25.1.24.46-.03,1.06-1.25,2.67-2.29,4.62-3.11,5.87-.83,1.25-1.76,2.4-2.81,3.44-1.38,1.32-2.77,1.97-4.15,1.97-1.55,0-2.63-.64-3.24-1.92-.3-.61-.46-1.16-.46-1.67s0-1.04.02-1.59c.02-.56.08-1.28.18-2.18.1-.89.35-2.01.73-3.34.39-1.33.69-2.35.91-3.04.22-.69.55-1.63.99-2.81.44-1.18.67-1.82.71-1.92-1.45,0-7.17-.22-17.16-.66-2.06,6.14-5.3,11.64-9.72,16.5-2.16,2.4-4.67,4.4-7.54,6.02-3.85,2.13-7.9,3.19-12.15,3.19-1.79,0-3.78-.26-5.97-.78-2.19-.52-4.27-1.52-6.23-2.99-1.96-1.47-3.35-3.45-4.18-5.95-.83-2.5-.85-5.26-.08-8.3.41-1.55,1.31-3,2.71-4.35,1.4-1.35,2.56-2.04,3.47-2.08.34,0,.54.04.61.13.07.08.04.19-.08.3-.12.12-.26.21-.43.28-1.01.44-2.06,1.4-3.14,2.88-1.42,1.96-2.13,4.24-2.13,6.83,0,4.05,1.96,7.07,5.87,9.06,2.36,1.18,5.13,1.77,8.3,1.77,1.38,0,2.68-.14,3.9-.41,11.44-2.57,19.49-9.97,24.15-22.22-.88,0-1.73.19-2.56.58-.83.39-1.37.58-1.62.58s-.4-.1-.43-.3c0-.57.4-1.12,1.21-1.65.81-.52,1.52-.82,2.13-.89h1.97c2.16-5.4,4.62-10.87,7.39-16.4-.88.1-2.13.22-3.75.35-1.62.14-2.94.25-3.95.35-1.01.1-2.26.27-3.75.51-1.48.24-2.72.52-3.7.84-.98.32-2.07.77-3.27,1.34-1.2.57-2.2,1.23-3.01,1.97-1.92,1.82-3.29,4.05-4.1,6.68-.34,1.08-.51,2.23-.51,3.44s.44,2.4,1.32,3.54c.88,1.15,2.04,1.72,3.49,1.72,2.87,0,4.91-1.65,6.13-4.96.57-1.55.86-2.64.86-3.27s-.11-1.1-.33-1.42c-.22-.32-.16-.51.18-.58.24-.03.44.1.61.41.4.88.61,1.82.61,2.83s-.34,2.11-1.01,3.29c-1.15,2.09-2.7,3.49-4.66,4.2-.94.34-1.89.51-2.83.51s-1.89-.2-2.83-.61c-1.79-.78-3.11-2.09-3.95-3.95-.54-1.11-.81-2.18-.81-3.19s.16-2.17.48-3.47c.32-1.3.95-2.62,1.9-3.97.94-1.35,2.13-2.44,3.54-3.27,1.42-.83,2.83-1.51,4.25-2.05,1.42-.54,3.1-.94,5.04-1.22,1.94-.27,3.63-.47,5.06-.61,1.43-.14,3.16-.25,5.19-.35,2.03-.1,3.53-.2,4.51-.3.37-.64.94-1.43,1.7-2.35.76-.93,1.41-1.47,1.95-1.62.54-.15.96-.23,1.27-.23,1.25,0,1.87.53,1.87,1.59s-.69,1.95-2.08,2.66c-1.38.71-2.68,1.06-3.9,1.06-.91,1.75-2.2,4.89-3.87,9.39-1.67,4.51-2.56,6.88-2.66,7.11,2.53,0,5.8.14,9.8.43,4,.29,6.45.43,7.37.43.67-1.96,1.83-4.76,3.47-8.4Zm-10.66-12.71c-.41,0-1.25.83-2.53,2.48,2.19-.34,3.27-.93,3.24-1.77-.03-.37-.22-.59-.56-.66-.03-.03-.08-.05-.15-.05Z"/>
          <path class="cls-3" d="m17.53,180.86c-1.81,0-3.85-.27-6.07-.8-2.24-.54-4.39-1.56-6.38-3.06-2.02-1.51-3.47-3.58-4.32-6.15-.85-2.56-.88-5.44-.08-8.54.42-1.62,1.37-3.15,2.82-4.55,1.49-1.44,2.72-2.15,3.74-2.19h0c.51,0,.79.08.95.28.16.2.22.54-.1.87-.16.16-.35.28-.57.37-.93.4-1.92,1.33-2.95,2.74-1.36,1.88-2.05,4.09-2.05,6.59,0,3.91,1.85,6.75,5.64,8.69,2.29,1.14,5.02,1.73,8.11,1.73,1.35,0,2.63-.13,3.81-.4,11.05-2.48,18.99-9.66,23.61-21.35-.59.07-1.18.24-1.75.51-1.17.55-1.58.62-1.8.62-.46,0-.78-.25-.85-.66,0-.79.47-1.46,1.4-2.07.87-.56,1.63-.87,2.31-.95h1.74c2.04-5.08,4.38-10.28,6.96-15.48-.8.08-1.81.17-2.99.27-1.62.14-2.93.25-3.94.35-1,.1-2.21.26-3.72.5-1.45.23-2.67.51-3.63.82-.96.31-2.04.76-3.21,1.32-1.15.55-2.13,1.19-2.91,1.9-1.86,1.76-3.2,3.95-3.98,6.5-.32,1.03-.49,2.15-.49,3.32s.41,2.22,1.23,3.29c.8,1.05,1.83,1.56,3.16,1.56,2.7,0,4.57-1.53,5.73-4.68.69-1.87.84-2.73.84-3.12,0-.53-.09-.93-.26-1.18-.2-.29-.25-.56-.16-.8.06-.16.22-.36.6-.43.27-.04.72,0,1.06.61.44.96.66,1.97.66,3.04s-.36,2.26-1.07,3.5c-1.19,2.17-2.83,3.65-4.88,4.39-1.98.71-4,.74-5.98-.11-1.88-.82-3.28-2.22-4.17-4.16-.56-1.16-.85-2.29-.85-3.36s.17-2.24.49-3.57c.33-1.34.99-2.73,1.96-4.12.97-1.39,2.21-2.53,3.68-3.39,1.43-.84,2.88-1.53,4.31-2.08,1.44-.55,3.17-.97,5.13-1.24,1.95-.27,3.65-.48,5.08-.61,1.44-.14,3.19-.26,5.21-.36,1.86-.09,3.3-.19,4.27-.28.38-.62.92-1.37,1.62-2.22.82-1.01,1.53-1.58,2.16-1.76.58-.16,1.03-.24,1.38-.24,2,0,2.3,1.26,2.3,2.02,0,1.23-.78,2.25-2.31,3.03-1.34.69-2.63,1.06-3.83,1.1-.89,1.77-2.15,4.83-3.74,9.12-1.25,3.37-2.06,5.56-2.44,6.55,2.44.02,5.54.16,9.21.43,3.59.26,5.95.4,7.04.43.69-1.95,1.82-4.68,3.38-8.15,1.64-3.65,3.11-6.45,4.36-8.34,1.31-1.97,2.53-3.13,3.73-3.56,1.17-.41,1.92-.61,2.37-.61.27,0,1,0,1,.57,0,.35-.33.58-.89.86-.21.1-.76.57-2.09,2.52-1.05,1.53-2.39,3.91-4,7.09-1.52,3-2.87,6.22-4.04,9.56,2.05-.02,2.87-.16,3.19-.28.55-.2,1.15-.35,1.47.02.11.13.16.29.14.45-.03.27-.24.52-.7.83-1.12.78-2.75,1.26-4.85,1.42-.09.27-.29.87-.71,2.16-1.67,5.16-2.51,8.82-2.51,10.85,0,1.07.18,1.81.52,2.2.71.8,1.4.71,2.35.04,1.85-1.37,3.94-4.4,6.19-9,.47-1,.98-1.05,1.32-.91.18.07.32.21.39.38.12.3.06.68-.18,1.24-1.26,2.68-2.31,4.68-3.15,5.93-.84,1.27-1.8,2.45-2.86,3.51-1.47,1.39-2.96,2.1-4.45,2.1-1.72,0-2.94-.73-3.62-2.17-.33-.65-.5-1.28-.5-1.85,0-.51,0-1.05.02-1.61.02-.56.08-1.31.18-2.21.1-.92.36-2.06.75-3.41.39-1.34.69-2.35.91-3.05.22-.7.55-1.62.99-2.83.22-.59.39-1.04.5-1.36-2.09-.04-7.55-.25-16.26-.64-2.07,6.05-5.34,11.55-9.71,16.35-2.18,2.42-4.75,4.47-7.65,6.11-3.9,2.15-8.05,3.24-12.36,3.24Zm-10.68-24.39c-.73.19-1.67.83-2.77,1.89-1.34,1.29-2.21,2.69-2.59,4.16-.75,2.94-.73,5.66.07,8.06.8,2.4,2.15,4.34,4.03,5.74s3.94,2.41,6.07,2.91c2.15.51,4.13.77,5.88.77,4.16,0,8.18-1.06,11.95-3.14,2.81-1.59,5.31-3.59,7.43-5.94,4.36-4.79,7.6-10.3,9.63-16.36l.1-.3h.32c9.93.45,15.7.67,17.14.67h.59l-.19.56c-.04.1-.27.75-.71,1.93-.44,1.18-.77,2.12-.98,2.79-.22.69-.52,1.7-.91,3.03-.38,1.3-.62,2.4-.72,3.27-.1.88-.16,1.6-.18,2.14-.02.55-.02,1.08-.02,1.58,0,.44.14.94.41,1.48.54,1.14,1.48,1.69,2.86,1.69,1.26,0,2.56-.63,3.86-1.86,1.01-1.01,1.94-2.15,2.75-3.37.78-1.18,1.77-3.04,2.95-5.53-2.3,4.64-4.36,7.6-6.32,9.04-1.35.95-2.5.93-3.48-.16-.5-.56-.74-1.46-.74-2.76,0-2.16.83-5.79,2.55-11.11.77-2.36.81-2.44.83-2.49l.11-.22h.24c1.8-.13,3.23-.47,4.26-1.04-.7.16-1.94.25-3.78.25h-.59l.19-.56c1.22-3.58,2.66-7.02,4.28-10.23,1.62-3.21,2.99-5.63,4.05-7.19,1.03-1.5,1.63-2.19,2.02-2.52-.33.08-.79.22-1.43.45-1,.36-2.12,1.44-3.31,3.23-1.23,1.84-2.68,4.61-4.29,8.22h0c-1.62,3.62-2.79,6.43-3.45,8.37l-.1.28h-.3c-.92,0-3.41-.14-7.4-.43-3.97-.28-7.26-.43-9.77-.43h-.64l.25-.59c.07-.16.58-1.52,2.65-7.09,1.67-4.5,2.98-7.68,3.89-9.44l.12-.23h.26c1.14,0,2.39-.34,3.71-1.02,1.24-.64,1.85-1.38,1.85-2.28,0-.58-.17-1.17-1.45-1.17-.26,0-.65.07-1.15.21-.31.09-.86.42-1.74,1.48-.74.91-1.3,1.68-1.66,2.3l-.11.19-.21.02c-.99.1-2.51.21-4.53.3-2,.1-3.74.22-5.17.35-1.41.13-3.11.34-5.04.6-1.9.27-3.56.67-4.95,1.19-1.39.53-2.8,1.21-4.19,2.02-1.36.79-2.51,1.85-3.41,3.14-.91,1.3-1.53,2.59-1.84,3.83-.31,1.26-.47,2.39-.47,3.37s.26,1.95.77,3c.8,1.76,2.06,3.02,3.74,3.75,1.78.77,3.58.73,5.36.09,1.85-.67,3.34-2.02,4.43-4.01.64-1.12.96-2.16.96-3.09,0-.63-.08-1.23-.25-1.81.02.18.03.37.03.57,0,.68-.29,1.8-.89,3.41-1.28,3.47-3.47,5.24-6.52,5.24-1.58,0-2.87-.63-3.83-1.89-.93-1.22-1.4-2.49-1.4-3.8s.18-2.45.52-3.57c.83-2.69,2.25-5,4.21-6.86.84-.77,1.89-1.46,3.12-2.05,1.21-.58,2.32-1.04,3.32-1.36,1-.33,2.26-.61,3.76-.85,1.52-.24,2.76-.41,3.77-.51,1.01-.1,2.33-.22,3.96-.36,1.59-.13,2.85-.25,3.73-.35l.77-.09-.35.7c-2.75,5.5-5.23,11.01-7.38,16.37l-.11.27h-2.26c-.49.06-1.15.33-1.9.82-.61.39-.95.79-1.01,1.17.17-.01.52-.1,1.44-.53.88-.41,1.8-.62,2.74-.62h.61l-.22.57c-4.69,12.33-12.91,19.9-24.45,22.49-1.24.28-2.58.42-3.99.42-3.22,0-6.08-.61-8.49-1.82-4.05-2.06-6.11-5.24-6.11-9.44,0-2.68.74-5.06,2.21-7.08,1-1.38,2-2.34,2.98-2.86Zm47.01-20.71l.65-.84c1.8-2.32,2.44-2.64,2.87-2.64.14,0,.25.04.33.08.47.13.75.48.8,1.01.07,1.66-2.69,2.09-3.6,2.23l-1.05.16Zm3.47-2.62c-.14.07-.54.33-1.43,1.4,1.15-.29,1.78-.68,1.77-1.12-.02-.2-.1-.24-.22-.26l-.12-.02Z"/>
        </g>
        <g>
          <path class="cls-3" d="m82.89,154.06c2.46,0,3.7,1.55,3.7,4.66,0,1.42-.37,2.94-1.11,4.56-.95,2.19-2.36,4.19-4.25,5.97.44.84,1.23,1.27,2.38,1.27.91,0,1.77-.46,2.58-1.37,1.01-1.05,1.74-1.96,2.18-2.76.44-.79.76-1.37.96-1.75.2-.37.46-.9.78-1.6.32-.69.51-1.11.58-1.27.07-.15.19-.23.35-.23.34-.03.51.08.51.35,0,.1-.03.22-.1.35l-.3.71c-.2.47-.35.81-.46,1.01-.1.2-.28.57-.53,1.09-.25.52-.47.94-.66,1.24-.19.3-.44.71-.76,1.21-.32.51-.61.91-.86,1.22-.25.3-.57.64-.94,1.01-.37.37-.73.66-1.06.86-.84.51-1.64.76-2.38.76-1.38,0-2.46-.44-3.24-1.32-1.55,1.15-2.99,1.72-4.3,1.72-2.46,0-3.7-1.55-3.7-4.66,0-1.42.37-2.94,1.11-4.56,1.01-2.36,2.44-4.37,4.28-6.02,1.84-1.65,3.59-2.48,5.24-2.48Zm.56,1.57c-.91,0-1.99.61-3.24,1.82-1.25,1.21-2.36,2.87-3.34,4.96-1.18,2.43-1.77,4.42-1.77,5.97s.59,2.33,1.77,2.33c.84,0,1.79-.46,2.83-1.37-.54-.78-.81-1.6-.81-2.48.07-1.45.66-2.18,1.77-2.18.44,0,.8.15,1.09.46.29.3.43.58.43.84s-.03.51-.1.78c.57-.84,1.23-2.04,1.97-3.59.84-1.72,1.27-3.41,1.27-5.06s-.63-2.48-1.87-2.48Z"/>
          <path class="cls-3" d="m75.95,172.2c-1.88,0-4.12-.88-4.12-5.08,0-1.47.39-3.07,1.15-4.73,1.03-2.4,2.5-4.47,4.38-6.16,1.91-1.72,3.77-2.59,5.52-2.59,1.88,0,4.12.88,4.12,5.08,0,1.47-.39,3.06-1.15,4.73-.92,2.13-2.3,4.11-4.1,5.87.38.52.99.78,1.84.78.79,0,1.53-.4,2.27-1.23.99-1.02,1.7-1.92,2.12-2.68.44-.79.76-1.37.96-1.74.2-.36.46-.89.77-1.57.32-.69.51-1.11.58-1.26.14-.3.41-.48.74-.48.26-.03.51.04.69.19.11.1.24.28.24.58,0,.17-.05.35-.15.54l-.29.69c-.21.48-.36.83-.47,1.04-.1.2-.28.56-.53,1.08-.25.52-.48.95-.68,1.28-.19.31-.44.71-.76,1.22-.34.53-.63.94-.89,1.26-.26.32-.59.67-.96,1.04-.39.39-.78.7-1.14.92-.91.54-1.78.82-2.6.82-1.35,0-2.46-.4-3.29-1.18-1.51,1.05-2.94,1.59-4.25,1.59Zm6.94-17.72c-1.54,0-3.21.8-4.96,2.37-1.78,1.61-3.19,3.58-4.17,5.88-.72,1.56-1.08,3.04-1.08,4.39,0,3.8,1.87,4.24,3.27,4.24.56,0,1.15-.12,1.76-.35-.29.08-.57.13-.85.13-.82,0-2.19-.36-2.19-2.75,0-1.61.61-3.68,1.82-6.16.99-2.12,2.15-3.83,3.43-5.08,1.34-1.31,2.5-1.94,3.53-1.94s2.29.5,2.29,2.9c0,1.71-.44,3.48-1.31,5.25-.74,1.56-1.42,2.79-2,3.65l-.95,1.4c1.57-1.6,2.78-3.38,3.61-5.29.72-1.57,1.08-3.04,1.08-4.39,0-3.8-1.87-4.24-3.27-4.24Zm-2.57,15.01l.26.29c.7.79,1.65,1.17,2.92,1.17.16,0,.33-.01.51-.04-.13.02-.27.03-.41.03-1.31,0-2.24-.5-2.75-1.49l-.15-.28.23-.22c.08-.07.15-.14.22-.22l.52-2.06c.06-.23.09-.46.09-.68,0-.08-.04-.26-.32-.55-.21-.22-.46-.32-.78-.32-.59,0-1.28.2-1.35,1.77,0,.78.24,1.51.74,2.22l.22.31-.29.25c-.23.2-.46.38-.69.54.24-.15.47-.31.72-.49l.31-.23Zm10.79-7.52s-.02,0-.03,0c-.08.13-.28.56-.6,1.25-.32.7-.59,1.24-.8,1.62-.2.37-.52.96-.96,1.75-.46.83-1.21,1.78-2.24,2.85-.41.47-.85.82-1.3,1.07.16-.08.31-.16.48-.26.31-.19.64-.45.98-.8.36-.36.66-.69.91-.98.24-.29.52-.68.83-1.17.32-.5.57-.91.76-1.21.18-.3.4-.7.64-1.2.25-.53.43-.89.53-1.09.1-.2.25-.53.44-.99l.3-.71c.03-.05.04-.1.05-.12Zm-7.66-5.92c-.79,0-1.79.57-2.95,1.7-1.21,1.17-2.3,2.8-3.25,4.84-1.15,2.37-1.73,4.31-1.73,5.79,0,1.69.72,1.91,1.35,1.91.66,0,1.43-.35,2.28-1.03-.45-.75-.68-1.56-.68-2.4.1-2.15,1.25-2.6,2.19-2.6.56,0,1.03.2,1.4.59.17.18.29.35.38.52.38-.67.79-1.47,1.23-2.39.81-1.66,1.22-3.3,1.22-4.88,0-1.82-.78-2.06-1.45-2.06Z"/>
        </g>
        <g>
          <path class="cls-3" d="m88.86,168.85c0-1.45.62-3.21,1.87-5.26-.54,0-.69-.27-.46-.81l.91-1.77c1.15-2.19,2.09-4.05,2.83-5.57.34-.71,1-1.06,1.97-1.06h3.09c-1.22.88-2.44,2.57-3.67,5.09-1.23,2.51-2.19,4.49-2.86,5.92-.68,1.43-1.01,2.52-1.01,3.27s.13,1.27.38,1.57c.25.3.6.46,1.04.46.64,0,1.54-.68,2.68-2.03,1.79-2.09,4.3-6.5,7.54-13.21.37-.71,1.03-1.06,1.97-1.06h2.73c-.74.57-1.33,1.16-1.75,1.77-.42.61-1,1.69-1.75,3.24-2.03,4.05-3.16,6.73-3.39,8.05-.1.47-.15.91-.15,1.32,0,1.08.37,1.65,1.11,1.72,1.82,0,4.07-2.82,6.73-8.45.2-.47.41-.66.61-.56s.3.24.3.41-.15.56-.46,1.16c-.3.61-.6,1.2-.89,1.77-.29.57-.73,1.36-1.32,2.35-.59,1-1.14,1.78-1.64,2.35-1.32,1.49-2.61,2.23-3.87,2.23s-2.13-.56-2.61-1.67c-.2-.51-.3-1.15-.3-1.92s.17-1.74.51-2.89c-2.46,4.32-4.74,6.48-6.83,6.48-1.82,0-2.88-.76-3.19-2.28-.1-.17-.15-.37-.15-.61Z"/>
          <path class="cls-3" d="m101.44,172.15c-1.42,0-2.46-.67-3-1.93-.23-.56-.34-1.26-.34-2.09,0-.2,0-.4.03-.62-2.09,3.12-4.04,4.64-5.94,4.64-2.5,0-3.33-1.37-3.59-2.55-.12-.22-.17-.47-.17-.76,0-1.41.56-3.09,1.65-5-.09-.06-.16-.13-.22-.22-.17-.26-.16-.61.02-1.03l.92-1.79c1.15-2.2,2.1-4.07,2.83-5.56.28-.59.92-1.3,2.35-1.3h4.39l-1.06.76c-1.15.83-2.34,2.49-3.54,4.93-1.23,2.51-2.18,4.48-2.86,5.92-.65,1.37-.97,2.41-.97,3.09,0,.79.15,1.14.28,1.3.17.21.4.3.71.3.29,0,.97-.24,2.36-1.88,1.76-2.06,4.28-6.47,7.48-13.12.45-.87,1.24-1.3,2.35-1.3h3.97l-.98.76c-.7.55-1.26,1.11-1.66,1.68-.41.59-.98,1.66-1.71,3.18-2,4-3.13,6.67-3.36,7.94-.1.46-.14.87-.14,1.24,0,1.23.51,1.28.73,1.3,1.09,0,3.1-1.43,6.31-8.21.19-.44.4-.69.66-.78.17-.06.35-.05.52.03.47.23.54.59.54.78s-.06.47-.5,1.35l-.89,1.77c-.29.58-.74,1.38-1.33,2.38-.6,1.01-1.17,1.82-1.69,2.42-1.39,1.57-2.8,2.37-4.19,2.37Zm-.98-10.25l-1.02,3.47c-.32,1.1-.49,2.03-.49,2.77s.09,1.31.27,1.77c.4.94,1.13,1.41,2.22,1.41s2.33-.7,3.56-2.09c.49-.55,1.03-1.32,1.6-2.29.58-.98,1.02-1.76,1.3-2.33l.89-1.77c.13-.25.21-.44.28-.59-2.76,5.82-5.08,8.64-7.09,8.64-.6-.05-1.54-.4-1.54-2.14,0-.43.05-.9.16-1.4.24-1.36,1.37-4.03,3.43-8.15.76-1.58,1.34-2.66,1.78-3.29.26-.38.58-.75.96-1.11h-1.6c-.79,0-1.3.27-1.6.84-3.23,6.7-5.79,11.18-7.6,13.29-.56.66-1.06,1.16-1.51,1.51,1.32-.98,2.73-2.78,4.21-5.39l1.79-3.14Zm-9.86,1.25s.07,0,.13,0h.75l-.39.64c-1.2,1.98-1.81,3.68-1.81,5.05,0,.16.03.29.09.39l.05.14c.27,1.32,1.15,1.94,2.78,1.94.48,0,.98-.13,1.49-.4-.26.12-.5.18-.73.18-.57,0-1.03-.2-1.36-.61-.32-.39-.48-.99-.48-1.84s.34-1.94,1.05-3.44c.68-1.44,1.63-3.41,2.86-5.93.98-2,1.95-3.48,2.92-4.48h-1.96c-1.08,0-1.43.47-1.59.82-.73,1.5-1.69,3.38-2.84,5.58l-.91,1.77c-.04.09-.05.15-.06.19,0,0,0,0,.01,0Z"/>
        </g>
        <g>
          <path class="cls-3" d="m115.49,151.48c0,1.52-.96,2.95-2.89,4.3.67.03,1.58.05,2.71.05s2.56-.08,4.28-.25c.07.1.1.37.1.81s-.2,1.09-.61,1.95c-.4.86-.77,1.6-1.09,2.23-.32.63-.63,1.21-.91,1.77-.29.56-.61,1.24-.96,2.05-.35.81-.65,1.55-.89,2.23-.84,2.57-.71,3.85.4,3.85,1.42,0,3.51-2.82,6.28-8.45.24-.44.43-.61.58-.51.15.1.23.23.23.38s-.22.68-.66,1.57c-.44.89-.91,1.81-1.42,2.76-.51.95-1.3,2.04-2.38,3.29-1.28,1.55-2.51,2.33-3.7,2.33-1.32,0-2.23-.79-2.73-2.38-.1-.3-.15-.76-.15-1.37s.19-1.42.58-2.43c.39-1.01,1-2.24,1.85-3.7.84-1.45,1.32-2.3,1.42-2.56.1-.25.15-.5.15-.73,0-1.05-1.35-1.6-4.05-1.67l-.61,1.62c-2.13,5.57-4.17,9.3-6.13,11.19-.34.3-.51.2-.51-.3,0-.1.03-.22.1-.35,1.89-2.5,3.53-5.45,4.91-8.86,1.38-3.41,2.35-6.65,2.89-9.72.2-1.05.68-1.57,1.42-1.57s1.28.47,1.62,1.42c.1.3.15.66.15,1.06Z"/>
          <path class="cls-3" d="m114.58,172.25c-1.51,0-2.57-.9-3.14-2.67-.11-.35-.17-.84-.17-1.49s.2-1.51.61-2.58c.39-1.03,1.02-2.29,1.88-3.76,1.04-1.78,1.33-2.34,1.39-2.5.08-.2.12-.4.12-.58,0-.71-1.18-1.15-3.34-1.24l-.5,1.34c-2.14,5.6-4.23,9.42-6.23,11.34-.31.28-.58.35-.83.24-.39-.17-.39-.68-.39-.85s.05-.35.15-.54c1.9-2.52,3.53-5.47,4.9-8.83,1.37-3.36,2.33-6.61,2.86-9.63.31-1.59,1.17-1.92,1.83-1.92s1.51.29,2.02,1.7c.12.35.18.76.18,1.21,0,1.38-.71,2.69-2.13,3.92,1.35.03,3.22.01,5.76-.24l.25-.02.14.21c.09.13.17.35.17,1.04,0,.51-.21,1.2-.65,2.13-.41.87-.77,1.61-1.09,2.24l-.91,1.77c-.28.54-.6,1.22-.95,2.03-.35.8-.64,1.54-.87,2.2-.75,2.27-.51,2.95-.38,3.13.05.07.14.15.38.15.7,0,2.39-1.07,5.9-8.22.25-.46.47-.69.73-.75.16-.04.33-.01.47.08.27.18.42.44.42.73,0,.16-.05.44-.7,1.75-.44.9-.92,1.82-1.42,2.77-.52.97-1.34,2.1-2.43,3.37-1.35,1.64-2.71,2.47-4.01,2.47Zm-3.23-15.68h.3c1.1.04,4.46.12,4.46,2.1,0,.29-.06.59-.18.89-.07.19-.3.65-1.44,2.61-.83,1.43-1.44,2.65-1.82,3.63-.37.96-.55,1.72-.55,2.28,0,.7.07,1.05.13,1.23.45,1.41,1.21,2.09,2.33,2.09.61,0,1.24-.25,1.9-.73-.33.16-.6.21-.84.21-.58,0-.9-.27-1.07-.5-.48-.66-.4-1.9.26-3.9.24-.68.54-1.44.9-2.26.36-.82.69-1.52.97-2.07l.91-1.77c.32-.62.68-1.36,1.08-2.21.47-1,.57-1.51.57-1.77,0-.15,0-.27-.01-.35-3.22.3-5.35.24-6.68.17l-1.23-.06,1-.7c1.8-1.26,2.71-2.59,2.71-3.96,0-.36-.04-.67-.13-.93-.36-1.01-.87-1.13-1.22-1.13-.21,0-.77,0-1,1.23-.54,3.08-1.52,6.38-2.91,9.8-1.27,3.12-2.77,5.9-4.47,8.28,1.69-2.01,3.47-5.45,5.3-10.26l.71-1.9Zm8.94,9.42c-.17.3-.34.58-.5.84.19-.29.35-.56.49-.82v-.02Z"/>
        </g>
        <g>
          <path class="cls-3" d="m126.17,170.82c.44.07.74.1.91.1,1.35,0,2.68-.79,4-2.38.71-.88,1.97-3.09,3.8-6.63.07-.17.19-.25.35-.25.3-.03.46.08.46.35,0,.07-.08.26-.23.58-.15.32-.3.64-.43.96-.14.32-.35.78-.66,1.39-.3.61-.56,1.1-.78,1.47-.22.37-.5.83-.84,1.37-.34.54-.68.96-1.01,1.27l-1.06,1.11c-.57.57-1.25.98-2.03,1.21-1.25.41-2.46.44-3.64.1-.78.34-1.47.51-2.08.51-2.4,0-3.85-.94-4.35-2.84-.1-.44-.15-.97-.15-1.59s.21-1.22.63-1.8c.42-.57.87-.88,1.34-.91,1.72-3.27,3.19-6.23,4.4-8.86,1.35-2.87,2.92-4.3,4.71-4.3.47,0,.94.11,1.39.33.46.22.62.46.51.73-.12.27-.36.32-.73.15-.37-.17-.69-.25-.96-.25s-.51.05-.71.15c-1.15.54-1.72,1.7-1.72,3.49,0,.95.14,1.72.41,2.33.27.61.57,1.27.91,1.97.78,1.75,1.16,3.19,1.16,4.3s-.35,2.21-1.06,3.29c-.71,1.08-1.55,1.96-2.53,2.63Zm-5.52-1.72c0,.2.02.42.05.66.27.91.89,1.37,1.87,1.37.41,0,.74-.07,1.01-.2-1.25-.78-1.92-2.04-2.03-3.8-.61.61-.91,1.26-.91,1.97Zm3.8,1.37c1.48-1.15,2.23-3,2.23-5.57,0-1.05-.12-2.48-.35-4.3s-.35-3.05-.35-3.7.02-1.08.05-1.32c-2.57,5.13-4.15,8.25-4.76,9.37.71,0,1.06.51,1.06,1.52,0,1.99.71,3.32,2.13,4Z"/>
          <path class="cls-3" d="m122.93,172.41c-2.6,0-4.2-1.06-4.76-3.15-.11-.48-.17-1.05-.17-1.7,0-.71.24-1.4.71-2.05.43-.58.9-.93,1.41-1.05,1.67-3.17,3.11-6.08,4.3-8.65,1.42-3.02,3.13-4.55,5.09-4.55.53,0,1.06.12,1.57.37.95.46.81,1.05.71,1.28-.12.28-.31.4-.45.45-.24.09-.52.06-.84-.08-.63-.28-1.02-.25-1.31-.11-1,.47-1.49,1.49-1.49,3.12,0,.88.12,1.61.37,2.16.27.6.57,1.26.91,1.96.8,1.81,1.2,3.32,1.2,4.48s-.38,2.38-1.13,3.52c-.52.79-1.12,1.49-1.78,2.07,1.15-.07,2.32-.82,3.49-2.22.68-.85,1.95-3.05,3.75-6.56.12-.29.39-.48.73-.48.24-.03.47.03.64.18.11.1.24.28.24.59,0,.13-.04.28-.27.76-.15.32-.29.63-.42.95-.14.33-.36.8-.67,1.42-.32.63-.58,1.12-.8,1.49-.22.37-.5.83-.84,1.38-.36.57-.72,1.03-1.09,1.36l-1.04,1.09c-.63.63-1.37,1.07-2.21,1.33-1.26.41-2.52.46-3.74.14-.77.32-1.48.48-2.1.48Zm-2.32-7.15h-.18c-.34.04-.69.29-1.03.75-.37.5-.55,1.01-.55,1.55,0,.59.05,1.1.14,1.5.45,1.68,1.74,2.51,3.94,2.51.54,0,1.19-.16,1.91-.47l.14-.06.1.03.85-.59c.93-.64,1.74-1.49,2.42-2.52.66-1,.99-2.03.99-3.06s-.38-2.44-1.13-4.13c-.34-.7-.64-1.36-.91-1.97-.29-.66-.44-1.5-.44-2.5,0-1.96.66-3.26,1.96-3.87.5-.25,1.15-.29,2.02.1.08.04.14.05.17.06-.04-.02-.12-.09-.3-.18-1.36-.65-2.77-.19-3.99,1.26l-.29,1.99c-.03.21-.05.63-.05,1.26s.12,1.85.35,3.64c.24,1.83.36,3.3.36,4.36,0,2.69-.8,4.68-2.39,5.9l-.21.16-.23-.11s0,0,0,0l.19.12-.68.34c-.33.16-.73.25-1.2.25-1.17,0-1.95-.58-2.28-1.67-.05-.32-.07-.56-.07-.78,0-.82.35-1.59,1.03-2.27l.63-.63c-.07-.83-.44-.83-.63-.83h-.71l.06-.12Zm4.6,5.84c.39.1.78.17,1.18.18-.09-.01-.19-.03-.29-.04l-.9-.14Zm-3.93-2.89c-.14.29-.21.58-.21.89,0,.18.02.38.05.6.21.69.66.99,1.5,1.01-.67-.64-1.12-1.47-1.33-2.49Zm.61-3.55c.44.2.85.69.85,1.81,0,1.71.54,2.86,1.65,3.5,1.23-1.07,1.86-2.78,1.86-5.07,0-1.02-.12-2.45-.35-4.25-.19-1.44-.3-2.5-.34-3.22-1.79,3.57-3.02,5.99-3.67,7.22Zm13.32-2.54c-1.76,3.48-2.99,5.63-3.73,6.59.31-.29.61-.67.91-1.15.33-.54.61-.99.83-1.36.21-.36.46-.83.77-1.44.3-.6.51-1.05.65-1.37.14-.33.28-.65.44-.98.06-.13.11-.23.13-.3Zm-9.17-7.53c-.29.46-.58.99-.86,1.58-.36.79-.75,1.61-1.17,2.46.49-.97,1.03-2.05,1.62-3.24l.4-.81Z"/>
        </g>
      </g>
    </g>
  </g>
</svg>